{
.appVersion = "1352";
DisplayStrings = (

glyphs = (
{
color = 3;
glyphname = .notdef;
lastChange = "2021-09-02 13:46:44 +0000";
layers = (
{
layerId = "5B3E1226-E0D0-4C23-AF14-DEF1E2C801D3";
paths = (
{
closed = 1;
nodes = (
"438 -5 LINE",
"449 7 LINE",
"449 575 LINE",
"438 587 LINE",
"47 587 LINE",
"35 575 LINE",
"35 7 LINE",
"47 -5 LINE"
);
},
{
closed = 1;
nodes = (
"142 139 LINE",
"225 292 LINE",
"142 443 LINE",
"153 465 LINE",
"236 314 LINE",
"321 466 LINE",
"334 443 LINE",
"248 290 LINE",
"334 139 LINE",
"321 117 LINE",
"236 267 LINE",
"153 117 LINE"
);
},
{
closed = 1;
nodes = (
"61 561 LINE",
"425 561 LINE",
"425 21 LINE",
"61 21 LINE"
);
},
{
closed = 1;
nodes = (
"402 40 LINE",
"402 538 LINE",
"82 538 LINE",
"82 40 LINE"
);
}
);
width = 484;
}
);
note = .notdef;
},
{
glyphname = A;
lastChange = "2021-09-02 13:49:33 +0000";
layers = (
{
anchors = (
{
name = bottom;
position = "{204, 0}";
},
{
name = ogonek;
position = "{390, -50}";
},
{
name = top;
position = "{555, 590}";
}
);
background = {
paths = (
{
closed = 1;
nodes = (
"386 -80 OFFCURVE",
"395 -74 OFFCURVE",
"394 -72 CURVE SMOOTH",
"390 -65 OFFCURVE",
"388 -57 OFFCURVE",
"388 -46 CURVE SMOOTH",
"388 -19 OFFCURVE",
"401 23 OFFCURVE",
"432 98 CURVE SMOOTH",
"485 218 OFFCURVE",
"615 504 OFFCURVE",
"615 547 CURVE SMOOTH",
"615 568 OFFCURVE",
"570 575 OFFCURVE",
"555 575 CURVE SMOOTH",
"446 575 OFFCURVE",
"188 341 OFFCURVE",
"118 254 CURVE",
"88 246 OFFCURVE",
"-28 255 OFFCURVE",
"-38 226 CURVE",
"-36 218 OFFCURVE",
"-25 211 OFFCURVE",
"-17 211 CURVE SMOOTH",
"17 211 OFFCURVE",
"52 212 OFFCURVE",
"86 212 CURVE",
"41 155 OFFCURVE",
"-39 23 OFFCURVE",
"-39 -49 CURVE SMOOTH",
"-39 -56 OFFCURVE",
"-28 -75 OFFCURVE",
"-20 -75 CURVE SMOOTH",
"-16 -75 OFFCURVE",
"-15 -70 OFFCURVE",
"-15 -67 CURVE",
"5 12 OFFCURVE",
"104 214 OFFCURVE",
"169 214 CURVE SMOOTH",
"216 214 OFFCURVE",
"405 219 OFFCURVE",
"405 245 CURVE SMOOTH",
"405 257 OFFCURVE",
"329 259 OFFCURVE",
"318 259 CURVE SMOOTH",
"177 259 LINE",
"284 383 OFFCURVE",
"384 479 OFFCURVE",
"540 542 CURVE",
"527 485 OFFCURVE",
"450 242 OFFCURVE",
"408 133 CURVE SMOOTH",
"386 75 OFFCURVE",
"361 8 OFFCURVE",
"361 -35 CURVE SMOOTH",
"361 -56 OFFCURVE",
"367 -72 OFFCURVE",
"382 -78 CURVE SMOOTH"
);
}
);
};
layerId = "5B3E1226-E0D0-4C23-AF14-DEF1E2C801D3";
paths = (
{
closed = 1;
nodes = (
"386 -65 OFFCURVE",
"395 -59 OFFCURVE",
"394 -57 CURVE SMOOTH",
"390 -50 OFFCURVE",
"388 -42 OFFCURVE",
"388 -31 CURVE SMOOTH",
"388 -5 OFFCURVE",
"399 35 OFFCURVE",
"433 114 CURVE SMOOTH",
"485 235 OFFCURVE",
"615 518 OFFCURVE",
"615 562 CURVE SMOOTH",
"615 583 OFFCURVE",
"570 590 OFFCURVE",
"555 590 CURVE SMOOTH",
"446 590 OFFCURVE",
"188 356 OFFCURVE",
"118 269 CURVE",
"88 261 OFFCURVE",
"-28 270 OFFCURVE",
"-38 241 CURVE",
"-36 233 OFFCURVE",
"-25 226 OFFCURVE",
"-17 226 CURVE SMOOTH",
"17 226 OFFCURVE",
"52 227 OFFCURVE",
"86 227 CURVE",
"41 170 OFFCURVE",
"-39 38 OFFCURVE",
"-39 -34 CURVE SMOOTH",
"-39 -41 OFFCURVE",
"-28 -60 OFFCURVE",
"-20 -60 CURVE SMOOTH",
"-16 -60 OFFCURVE",
"-15 -55 OFFCURVE",
"-15 -52 CURVE",
"5 27 OFFCURVE",
"104 229 OFFCURVE",
"169 229 CURVE SMOOTH",
"216 229 OFFCURVE",
"405 234 OFFCURVE",
"405 260 CURVE SMOOTH",
"405 272 OFFCURVE",
"329 274 OFFCURVE",
"318 274 CURVE SMOOTH",
"177 274 LINE",
"284 398 OFFCURVE",
"384 494 OFFCURVE",
"540 557 CURVE",
"527 500 OFFCURVE",
"450 257 OFFCURVE",
"408 148 CURVE SMOOTH",
"386 90 OFFCURVE",
"361 23 OFFCURVE",
"361 -20 CURVE SMOOTH",
"361 -41 OFFCURVE",
"367 -57 OFFCURVE",
"382 -63 CURVE SMOOTH"
);
}
);
width = 469;
}
);
note = A;
unicode = 0041;
},
{
glyphname = AE;
lastChange = "2021-09-02 13:45:16 +0000";
layers = (
{
anchors = (
{
name = bottom;
position = "{444, 0}";
},
{
name = top;
position = "{672, 595}";
}
);
background = {
paths = (
{
closed = 1;
nodes = (
"-16 -75 OFFCURVE",
"-15 -70 OFFCURVE",
"-15 -67 CURVE",
"5 12 OFFCURVE",
"102 207 OFFCURVE",
"193 216 CURVE SMOOTH",
"210 217 OFFCURVE",
"350 223 OFFCURVE",
"424 237 CURVE",
"404 194 OFFCURVE",
"384 145 OFFCURVE",
"384 102 CURVE SMOOTH",
"384 96 OFFCURVE",
"384 90 OFFCURVE",
"385 85 CURVE SMOOTH",
"395 4 OFFCURVE",
"452 -26 OFFCURVE",
"526 -26 CURVE SMOOTH",
"630 -26 OFFCURVE",
"902 65 OFFCURVE",
"955 142 CURVE SMOOTH",
"958 146 OFFCURVE",
"959 150 OFFCURVE",
"959 152 CURVE SMOOTH",
"959 155 OFFCURVE",
"958 156 OFFCURVE",
"956 156 CURVE SMOOTH",
"954 156 OFFCURVE",
"952 155 OFFCURVE",
"948 153 CURVE SMOOTH",
"849 98 OFFCURVE",
"656 40 OFFCURVE",
"536 25 CURVE SMOOTH",
"529 24 OFFCURVE",
"522 24 OFFCURVE",
"516 24 CURVE SMOOTH",
"462 24 OFFCURVE",
"445 57 OFFCURVE",
"445 97 CURVE SMOOTH",
"445 154 OFFCURVE",
"477 225 OFFCURVE",
"487 247 CURVE",
"553 255 OFFCURVE",
"714 252 OFFCURVE",
"829 271 CURVE SMOOTH",
"836 272 OFFCURVE",
"866 282 OFFCURVE",
"866 289 CURVE SMOOTH",
"866 291 OFFCURVE",
"863 293 OFFCURVE",
"854 294 CURVE SMOOTH",
"830 297 OFFCURVE",
"805 297 OFFCURVE",
"781 297 CURVE SMOOTH",
"744 297 LINE SMOOTH",
"667 297 OFFCURVE",
"591 286 OFFCURVE",
"514 288 CURVE",
"537 319 OFFCURVE",
"668 506 OFFCURVE",
"694 523 CURVE SMOOTH",
"723 543 OFFCURVE",
"856 549 OFFCURVE",
"896 549 CURVE SMOOTH",
"917 549 OFFCURVE",
"954 550 OFFCURVE",
"975 541 CURVE",
"980 531 OFFCURVE",
"987 527 OFFCURVE",
"992 527 CURVE SMOOTH",
"1000 527 OFFCURVE",
"1007 536 OFFCURVE",
"1007 545 CURVE SMOOTH",
"1007 556 OFFCURVE",
"999 569 OFFCURVE",
"978 575 CURVE",
"927 584 OFFCURVE",
"874 584 OFFCURVE",
"824 584 CURVE SMOOTH",
"778 584 OFFCURVE",
"663 583 OFFCURVE",
"605 562 CURVE",
"591 571 OFFCURVE",
"565 575 OFFCURVE",
"555 575 CURVE SMOOTH",
"446 575 OFFCURVE",
"188 341 OFFCURVE",
"118 254 CURVE",
"88 246 OFFCURVE",
"-28 255 OFFCURVE",
"-38 226 CURVE",
"-36 218 OFFCURVE",
"-25 211 OFFCURVE",
"-17 211 CURVE SMOOTH",
"17 211 OFFCURVE",
"52 212 OFFCURVE",
"86 212 CURVE",
"41 155 OFFCURVE",
"-39 23 OFFCURVE",
"-39 -49 CURVE SMOOTH",
"-39 -56 OFFCURVE",
"-28 -75 OFFCURVE",
"-20 -75 CURVE SMOOTH"
);
},
{
closed = 1;
nodes = (
"302 389 OFFCURVE",
"384 479 OFFCURVE",
"540 542 CURVE",
"576 544 LINE",
"574 541 OFFCURVE",
"572 536 OFFCURVE",
"572 532 CURVE SMOOTH",
"572 529 LINE SMOOTH",
"575 505 OFFCURVE",
"588 517 OFFCURVE",
"595 504 CURVE",
"558 451 OFFCURVE",
"513 410 OFFCURVE",
"457 302 CURVE SMOOTH",
"438 265 LINE",
"418 267 OFFCURVE",
"394 267 OFFCURVE",
"388 267 CURVE SMOOTH",
"344 267 OFFCURVE",
"238 265 OFFCURVE",
"195 265 CURVE"
);
}
);
};
layerId = "5B3E1226-E0D0-4C23-AF14-DEF1E2C801D3";
paths = (
{
closed = 1;
nodes = (
"-16 -60 OFFCURVE",
"-15 -55 OFFCURVE",
"-15 -52 CURVE",
"5 27 OFFCURVE",
"102 222 OFFCURVE",
"193 231 CURVE SMOOTH",
"210 232 OFFCURVE",
"350 238 OFFCURVE",
"424 252 CURVE",
"404 209 OFFCURVE",
"384 160 OFFCURVE",
"384 117 CURVE SMOOTH",
"384 111 OFFCURVE",
"384 105 OFFCURVE",
"385 100 CURVE SMOOTH",
"395 19 OFFCURVE",
"452 -11 OFFCURVE",
"526 -11 CURVE SMOOTH",
"630 -11 OFFCURVE",
"902 80 OFFCURVE",
"955 157 CURVE SMOOTH",
"958 161 OFFCURVE",
"959 165 OFFCURVE",
"959 167 CURVE SMOOTH",
"959 170 OFFCURVE",
"958 171 OFFCURVE",
"956 171 CURVE SMOOTH",
"954 171 OFFCURVE",
"952 170 OFFCURVE",
"948 168 CURVE SMOOTH",
"849 113 OFFCURVE",
"656 55 OFFCURVE",
"536 40 CURVE SMOOTH",
"529 39 OFFCURVE",
"522 39 OFFCURVE",
"516 39 CURVE SMOOTH",
"462 39 OFFCURVE",
"445 72 OFFCURVE",
"445 112 CURVE SMOOTH",
"445 169 OFFCURVE",
"477 240 OFFCURVE",
"487 262 CURVE",
"553 270 OFFCURVE",
"714 267 OFFCURVE",
"829 286 CURVE SMOOTH",
"836 287 OFFCURVE",
"866 297 OFFCURVE",
"866 304 CURVE SMOOTH",
"866 306 OFFCURVE",
"863 308 OFFCURVE",
"854 309 CURVE SMOOTH",
"830 312 OFFCURVE",
"805 312 OFFCURVE",
"781 312 CURVE SMOOTH",
"744 312 LINE SMOOTH",
"667 312 OFFCURVE",
"591 301 OFFCURVE",
"514 303 CURVE",
"537 334 OFFCURVE",
"668 521 OFFCURVE",
"694 538 CURVE SMOOTH",
"723 558 OFFCURVE",
"856 564 OFFCURVE",
"896 564 CURVE SMOOTH",
"917 564 OFFCURVE",
"954 565 OFFCURVE",
"975 556 CURVE",
"980 546 OFFCURVE",
"987 542 OFFCURVE",
"992 542 CURVE SMOOTH",
"1000 542 OFFCURVE",
"1007 551 OFFCURVE",
"1007 560 CURVE SMOOTH",
"1007 571 OFFCURVE",
"999 584 OFFCURVE",
"978 590 CURVE",
"927 599 OFFCURVE",
"874 599 OFFCURVE",
"824 599 CURVE SMOOTH",
"778 599 OFFCURVE",
"663 598 OFFCURVE",
"605 577 CURVE",
"591 586 OFFCURVE",
"565 590 OFFCURVE",
"555 590 CURVE SMOOTH",
"446 590 OFFCURVE",
"188 356 OFFCURVE",
"118 269 CURVE",
"88 261 OFFCURVE",
"-28 270 OFFCURVE",
"-38 241 CURVE",
"-36 233 OFFCURVE",
"-25 226 OFFCURVE",
"-17 226 CURVE SMOOTH",
"17 226 OFFCURVE",
"52 227 OFFCURVE",
"86 227 CURVE",
"41 170 OFFCURVE",
"-39 38 OFFCURVE",
"-39 -34 CURVE SMOOTH",
"-39 -41 OFFCURVE",
"-28 -60 OFFCURVE",
"-20 -60 CURVE SMOOTH"
);
},
{
closed = 1;
nodes = (
"302 404 OFFCURVE",
"384 494 OFFCURVE",
"540 557 CURVE",
"576 559 LINE",
"574 556 OFFCURVE",
"572 551 OFFCURVE",
"572 547 CURVE SMOOTH",
"572 544 LINE SMOOTH",
"572 520 OFFCURVE",
"588 532 OFFCURVE",
"595 519 CURVE",
"558 466 OFFCURVE",
"513 425 OFFCURVE",
"457 317 CURVE SMOOTH",
"438 280 LINE",
"418 282 OFFCURVE",
"394 282 OFFCURVE",
"388 282 CURVE SMOOTH",
"344 282 OFFCURVE",
"238 280 OFFCURVE",
"195 280 CURVE"
);
}
);
width = 887;
}
);
note = AE;
unicode = 00C6;
},
{
glyphname = B;
lastChange = "2021-09-02 13:45:16 +0000";
layers = (
{
background = {
paths = (
{
closed = 1;
nodes = (
"361 -26 OFFCURVE",
"615 40 OFFCURVE",
"605 141 CURVE SMOOTH",
"598 209 OFFCURVE",
"533 264 OFFCURVE",
"469 281 CURVE",
"536 313 OFFCURVE",
"732 347 OFFCURVE",
"723 446 CURVE SMOOTH",
"710 574 OFFCURVE",
"429 602 OFFCURVE",
"331 602 CURVE SMOOTH",
"300 602 OFFCURVE",
"166 587 OFFCURVE",
"171 537 CURVE SMOOTH",
"171 533 OFFCURVE",
"181 533 OFFCURVE",
"182 533 CURVE SMOOTH",
"196 533 OFFCURVE",
"210 538 OFFCURVE",
"223 542 CURVE SMOOTH",
"256 553 OFFCURVE",
"311 553 OFFCURVE",
"346 553 CURVE SMOOTH",
"364 553 OFFCURVE",
"381 553 OFFCURVE",
"398 552 CURVE",
"315 460 OFFCURVE",
"136 184 OFFCURVE",
"136 42 CURVE SMOOTH",
"136 37 OFFCURVE",
"137 32 OFFCURVE",
"137 27 CURVE SMOOTH",
"137 22 OFFCURVE",
"139 15 OFFCURVE",
"141 7 CURVE",
"114 10 LINE SMOOTH",
"97 12 OFFCURVE",
"80 13 OFFCURVE",
"63 13 CURVE SMOOTH",
"60 13 OFFCURVE",
"45 13 OFFCURVE",
"46 7 CURVE SMOOTH",
"48 -18 OFFCURVE",
"143 -22 OFFCURVE",
"163 -24 CURVE SMOOTH",
"165 -24 LINE SMOOTH",
"177 -25 OFFCURVE",
"190 -26 OFFCURVE",
"204 -26 CURVE SMOOTH"
);
},
{
closed = 1;
nodes = (
"167 99 OFFCURVE",
"220 190 OFFCURVE",
"267 262 CURVE",
"267 251 OFFCURVE",
"278 231 OFFCURVE",
"291 231 CURVE SMOOTH",
"314 231 OFFCURVE",
"365 258 OFFCURVE",
"407 258 CURVE SMOOTH",
"457 258 OFFCURVE",
"561 229 OFFCURVE",
"561 164 CURVE SMOOTH",
"561 75 OFFCURVE",
"322 7 OFFCURVE",
"169 6 CURVE"
);
},
{
closed = 1;
nodes = (
"317 368 OFFCURVE",
"383 437 OFFCURVE",
"440 510 CURVE SMOOTH",
"443 513 OFFCURVE",
"445 518 OFFCURVE",
"445 523 CURVE SMOOTH",
"445 525 LINE SMOOTH",
"444 534 OFFCURVE",
"437 542 OFFCURVE",
"432 549 CURVE",
"488 550 OFFCURVE",
"696 520 OFFCURVE",
"696 451 CURVE SMOOTH",
"696 368 OFFCURVE",
"374 283 OFFCURVE",
"302 283 CURVE SMOOTH",
"278 283 LINE"
);
}
);
};
layerId = "5B3E1226-E0D0-4C23-AF14-DEF1E2C801D3";
paths = (
{
closed = 1;
nodes = (
"361 -11 OFFCURVE",
"615 55 OFFCURVE",
"605 156 CURVE SMOOTH",
"598 224 OFFCURVE",
"533 279 OFFCURVE",
"469 296 CURVE",
"536 328 OFFCURVE",
"732 362 OFFCURVE",
"723 461 CURVE SMOOTH",
"711 588 OFFCURVE",
"431 617 OFFCURVE",
"331 617 CURVE SMOOTH",
"300 617 OFFCURVE",
"166 602 OFFCURVE",
"171 552 CURVE SMOOTH",
"171 548 OFFCURVE",
"181 548 OFFCURVE",
"182 548 CURVE SMOOTH",
"196 548 OFFCURVE",
"210 553 OFFCURVE",
"223 557 CURVE SMOOTH",
"257 568 OFFCURVE",
"310 568 OFFCURVE",
"346 568 CURVE SMOOTH",
"364 568 OFFCURVE",
"381 568 OFFCURVE",
"398 567 CURVE",
"315 475 OFFCURVE",
"136 199 OFFCURVE",
"136 57 CURVE SMOOTH",
"136 52 OFFCURVE",
"137 47 OFFCURVE",
"137 42 CURVE SMOOTH",
"137 37 OFFCURVE",
"139 30 OFFCURVE",
"141 22 CURVE",
"114 25 LINE SMOOTH",
"97 27 OFFCURVE",
"78 28 OFFCURVE",
"63 28 CURVE SMOOTH",
"60 28 OFFCURVE",
"45 28 OFFCURVE",
"46 22 CURVE SMOOTH",
"48 -3 OFFCURVE",
"143 -7 OFFCURVE",
"163 -9 CURVE SMOOTH",
"165 -9 LINE SMOOTH",
"177 -10 OFFCURVE",
"190 -11 OFFCURVE",
"204 -11 CURVE SMOOTH"
);
},
{
closed = 1;
nodes = (
"167 114 OFFCURVE",
"220 205 OFFCURVE",
"267 277 CURVE",
"267 266 OFFCURVE",
"278 246 OFFCURVE",
"291 246 CURVE SMOOTH",
"314 246 OFFCURVE",
"365 273 OFFCURVE",
"407 273 CURVE SMOOTH",
"457 273 OFFCURVE",
"561 244 OFFCURVE",
"561 179 CURVE SMOOTH",
"561 90 OFFCURVE",
"322 22 OFFCURVE",
"169 21 CURVE"
);
},
{
closed = 1;
nodes = (
"315 379 OFFCURVE",
"375 443 OFFCURVE",
"440 525 CURVE SMOOTH",
"443 528 OFFCURVE",
"445 533 OFFCURVE",
"445 538 CURVE SMOOTH",
"445 540 LINE SMOOTH",
"444 549 OFFCURVE",
"437 557 OFFCURVE",
"432 564 CURVE",
"488 565 OFFCURVE",
"696 535 OFFCURVE",
"696 466 CURVE SMOOTH",
"696 383 OFFCURVE",
"374 298 OFFCURVE",
"302 298 CURVE SMOOTH",
"278 298 LINE"
);
}
);
width = 594;
}
);
note = B;
unicode = 0042;
},
{
glyphname = C;
lastChange = "2021-09-02 13:45:16 +0000";
layers = (
{
anchors = (
{
name = bottom;
position = "{192, -10}";
},
{
name = top;
position = "{494, 610}";
}
);
background = {
paths = (
{
closed = 1;
nodes = (
"363 -32 OFFCURVE",
"540 72 OFFCURVE",
"625 159 CURVE SMOOTH",
"631 165 OFFCURVE",
"633 173 OFFCURVE",
"633 178 CURVE SMOOTH",
"633 181 OFFCURVE",
"633 183 OFFCURVE",
"631 183 CURVE SMOOTH",
"630 183 OFFCURVE",
"630 183 OFFCURVE",
"629 182 CURVE SMOOTH",
"581 145 OFFCURVE",
"374 -4 OFFCURVE",
"218 -4 CURVE SMOOTH",
"163 -4 OFFCURVE",
"107 25 OFFCURVE",
"101 85 CURVE SMOOTH",
"86 250 OFFCURVE",
"328 565 OFFCURVE",
"498 565 CURVE SMOOTH",
"521 565 OFFCURVE",
"541 556 OFFCURVE",
"543 532 CURVE SMOOTH",
"549 471 OFFCURVE",
"502 463 OFFCURVE",
"492 440 CURVE",
"493 432 OFFCURVE",
"510 432 OFFCURVE",
"512 432 CURVE SMOOTH",
"553 432 OFFCURVE",
"583 463 OFFCURVE",
"583 504 CURVE SMOOTH",
"583 556 OFFCURVE",
"539 589 OFFCURVE",
"491 589 CURVE SMOOTH",
"312 589 OFFCURVE",
"29 298 OFFCURVE",
"45 117 CURVE SMOOTH",
"54 13 OFFCURVE",
"135 -32 OFFCURVE",
"232 -32 CURVE SMOOTH"
);
}
);
};
layerId = "5B3E1226-E0D0-4C23-AF14-DEF1E2C801D3";
paths = (
{
closed = 1;
nodes = (
"363 -17 OFFCURVE",
"540 87 OFFCURVE",
"625 174 CURVE SMOOTH",
"631 180 OFFCURVE",
"633 188 OFFCURVE",
"633 193 CURVE SMOOTH",
"633 196 OFFCURVE",
"633 198 OFFCURVE",
"631 198 CURVE SMOOTH",
"630 198 OFFCURVE",
"628 196 OFFCURVE",
"629 197 CURVE SMOOTH",
"581 160 OFFCURVE",
"374 11 OFFCURVE",
"218 11 CURVE SMOOTH",
"163 11 OFFCURVE",
"107 40 OFFCURVE",
"101 100 CURVE SMOOTH",
"86 265 OFFCURVE",
"328 580 OFFCURVE",
"498 580 CURVE SMOOTH",
"521 580 OFFCURVE",
"541 571 OFFCURVE",
"543 547 CURVE SMOOTH",
"549 486 OFFCURVE",
"502 478 OFFCURVE",
"492 455 CURVE",
"493 447 OFFCURVE",
"510 447 OFFCURVE",
"512 447 CURVE SMOOTH",
"553 447 OFFCURVE",
"583 478 OFFCURVE",
"583 519 CURVE SMOOTH",
"583 571 OFFCURVE",
"539 604 OFFCURVE",
"491 604 CURVE SMOOTH",
"312 604 OFFCURVE",
"29 313 OFFCURVE",
"45 132 CURVE SMOOTH",
"54 28 OFFCURVE",
"135 -17 OFFCURVE",
"232 -17 CURVE SMOOTH"
);
}
);
width = 554;
}
);
note = C;
unicode = 0043;
},
{
glyphname = D;
lastChange = "2021-09-02 13:45:16 +0000";
layers = (
{
anchors = (
{
name = bottom;
position = "{294, 0}";
},
{
name = center;
position = "{183, 305}";
},
{
name = top;
position = "{537, 610}";
}
);
background = {
paths = (
{
closed = 1;
nodes = (
"395 -1 OFFCURVE",
"672 145 OFFCURVE",
"672 344 CURVE SMOOTH",
"672 351 OFFCURVE",
"672 359 OFFCURVE",
"671 367 CURVE SMOOTH",
"649 569 OFFCURVE",
"424 596 OFFCURVE",
"269 596 CURVE SMOOTH",
"240 596 OFFCURVE",
"86 584 OFFCURVE",
"92 537 CURVE SMOOTH",
"92 533 OFFCURVE",
"102 533 OFFCURVE",
"103 533 CURVE SMOOTH",
"117 533 OFFCURVE",
"131 538 OFFCURVE",
"144 542 CURVE SMOOTH",
"189 557 OFFCURVE",
"244 557 OFFCURVE",
"293 557 CURVE SMOOTH",
"419 557 OFFCURVE",
"617 555 OFFCURVE",
"636 383 CURVE SMOOTH",
"654 214 OFFCURVE",
"346 34 OFFCURVE",
"197 34 CURVE SMOOTH",
"192 34 OFFCURVE",
"146 34 OFFCURVE",
"147 23 CURVE SMOOTH",
"148 11 OFFCURVE",
"203 -1 OFFCURVE",
"217 -1 CURVE SMOOTH"
);
},
{
closed = 1;
nodes = (
"115 -22 OFFCURVE",
"134 3 OFFCURVE",
"132 26 CURVE",
"132 26 OFFCURVE",
"131 31 OFFCURVE",
"129 31 CURVE SMOOTH",
"125 31 OFFCURVE",
"113 18 OFFCURVE",
"99 18 CURVE SMOOTH",
"90 18 OFFCURVE",
"88 24 OFFCURVE",
"87 32 CURVE SMOOTH",
"72 176 OFFCURVE",
"384 490 OFFCURVE",
"382 507 CURVE SMOOTH",
"380 522 OFFCURVE",
"348 538 OFFCURVE",
"335 538 CURVE SMOOTH",
"262 538 OFFCURVE",
"53 134 OFFCURVE",
"53 39 CURVE SMOOTH",
"53 22 OFFCURVE",
"65 -22 OFFCURVE",
"92 -22 CURVE SMOOTH"
);
}
);
};
layerId = "5B3E1226-E0D0-4C23-AF14-DEF1E2C801D3";
paths = (
{
closed = 1;
nodes = (
"395 14 OFFCURVE",
"672 160 OFFCURVE",
"672 359 CURVE SMOOTH",
"672 367 OFFCURVE",
"672 373 OFFCURVE",
"671 382 CURVE SMOOTH",
"649 584 OFFCURVE",
"424 611 OFFCURVE",
"269 611 CURVE SMOOTH",
"240 611 OFFCURVE",
"86 599 OFFCURVE",
"92 552 CURVE SMOOTH",
"92 548 OFFCURVE",
"102 548 OFFCURVE",
"103 548 CURVE SMOOTH",
"117 548 OFFCURVE",
"131 553 OFFCURVE",
"144 557 CURVE SMOOTH",
"190 572 OFFCURVE",
"242 572 OFFCURVE",
"293 572 CURVE SMOOTH",
"421 572 OFFCURVE",
"617 570 OFFCURVE",
"636 397 CURVE SMOOTH",
"654 229 OFFCURVE",
"345 49 OFFCURVE",
"197 49 CURVE SMOOTH",
"192 49 OFFCURVE",
"146 49 OFFCURVE",
"147 38 CURVE SMOOTH",
"148 26 OFFCURVE",
"203 14 OFFCURVE",
"217 14 CURVE SMOOTH"
);
},
{
closed = 1;
nodes = (
"115 -7 OFFCURVE",
"134 18 OFFCURVE",
"132 41 CURVE",
"132 41 OFFCURVE",
"131 46 OFFCURVE",
"129 46 CURVE SMOOTH",
"125 46 OFFCURVE",
"113 33 OFFCURVE",
"99 33 CURVE SMOOTH",
"90 33 OFFCURVE",
"88 39 OFFCURVE",
"87 47 CURVE SMOOTH",
"71 197 OFFCURVE",
"383 511 OFFCURVE",
"382 522 CURVE SMOOTH",
"380 537 OFFCURVE",
"348 553 OFFCURVE",
"335 553 CURVE SMOOTH",
"262 553 OFFCURVE",
"53 149 OFFCURVE",
"53 54 CURVE SMOOTH",
"53 37 OFFCURVE",
"65 -7 OFFCURVE",
"92 -7 CURVE SMOOTH"
);
}
);
width = 587;
}
);
note = D;
unicode = 0044;
},
{
glyphname = Eth;
lastChange = "2021-09-02 13:45:16 +0000";
layers = (
{
background = {
paths = (
{
closed = 1;
nodes = (
"395 -1 OFFCURVE",
"672 145 OFFCURVE",
"672 344 CURVE SMOOTH",
"672 351 OFFCURVE",
"672 359 OFFCURVE",
"671 367 CURVE SMOOTH",
"649 569 OFFCURVE",
"424 596 OFFCURVE",
"269 596 CURVE SMOOTH",
"240 596 OFFCURVE",
"86 584 OFFCURVE",
"92 537 CURVE SMOOTH",
"92 533 OFFCURVE",
"102 533 OFFCURVE",
"103 533 CURVE SMOOTH",
"117 533 OFFCURVE",
"131 538 OFFCURVE",
"144 542 CURVE SMOOTH",
"189 557 OFFCURVE",
"244 557 OFFCURVE",
"293 557 CURVE SMOOTH",
"419 557 OFFCURVE",
"617 555 OFFCURVE",
"636 383 CURVE SMOOTH",
"654 214 OFFCURVE",
"346 34 OFFCURVE",
"197 34 CURVE SMOOTH",
"192 34 OFFCURVE",
"146 34 OFFCURVE",
"147 23 CURVE SMOOTH",
"148 11 OFFCURVE",
"203 -1 OFFCURVE",
"217 -1 CURVE SMOOTH"
);
},
{
closed = 1;
nodes = (
"115 -22 OFFCURVE",
"134 3 OFFCURVE",
"132 26 CURVE",
"132 26 OFFCURVE",
"131 31 OFFCURVE",
"129 31 CURVE SMOOTH",
"125 31 OFFCURVE",
"113 18 OFFCURVE",
"99 18 CURVE SMOOTH",
"90 18 OFFCURVE",
"88 24 OFFCURVE",
"87 32 CURVE SMOOTH",
"83 71 OFFCURVE",
"102 121 OFFCURVE",
"133 176 CURVE",
"193 176 LINE SMOOTH",
"234 176 OFFCURVE",
"287 185 OFFCURVE",
"287 201 CURVE SMOOTH",
"287 212 OFFCURVE",
"242 213 OFFCURVE",
"225 213 CURVE SMOOTH",
"156 213 LINE",
"244 350 OFFCURVE",
"383 495 OFFCURVE",
"382 507 CURVE SMOOTH",
"380 522 OFFCURVE",
"348 538 OFFCURVE",
"335 538 CURVE SMOOTH",
"287 538 OFFCURVE",
"178 360 OFFCURVE",
"111 213 CURVE",
"70 213 LINE SMOOTH",
"46 213 OFFCURVE",
"16 192 OFFCURVE",
"16 182 CURVE SMOOTH",
"16 178 OFFCURVE",
"20 176 OFFCURVE",
"28 176 CURVE SMOOTH",
"94 176 LINE",
"69 117 OFFCURVE",
"53 66 OFFCURVE",
"53 39 CURVE SMOOTH",
"53 24 OFFCURVE",
"65 -22 OFFCURVE",
"92 -22 CURVE SMOOTH"
);
}
);
};
layerId = "5B3E1226-E0D0-4C23-AF14-DEF1E2C801D3";
paths = (
{
closed = 1;
nodes = (
"395 14 OFFCURVE",
"672 160 OFFCURVE",
"672 359 CURVE SMOOTH",
"672 366 OFFCURVE",
"672 374 OFFCURVE",
"671 382 CURVE SMOOTH",
"649 584 OFFCURVE",
"424 611 OFFCURVE",
"269 611 CURVE SMOOTH",
"240 611 OFFCURVE",
"86 599 OFFCURVE",
"92 552 CURVE SMOOTH",
"92 548 OFFCURVE",
"102 548 OFFCURVE",
"103 548 CURVE SMOOTH",
"117 548 OFFCURVE",
"131 553 OFFCURVE",
"144 557 CURVE SMOOTH",
"189 572 OFFCURVE",
"244 572 OFFCURVE",
"293 572 CURVE SMOOTH",
"419 572 OFFCURVE",
"617 570 OFFCURVE",
"636 398 CURVE SMOOTH",
"654 229 OFFCURVE",
"346 49 OFFCURVE",
"197 49 CURVE SMOOTH",
"192 49 OFFCURVE",
"146 49 OFFCURVE",
"147 38 CURVE SMOOTH",
"148 26 OFFCURVE",
"203 14 OFFCURVE",
"217 14 CURVE SMOOTH"
);
},
{
closed = 1;
nodes = (
"115 -7 OFFCURVE",
"134 18 OFFCURVE",
"132 41 CURVE",
"132 41 OFFCURVE",
"131 46 OFFCURVE",
"129 46 CURVE SMOOTH",
"125 46 OFFCURVE",
"113 33 OFFCURVE",
"99 33 CURVE SMOOTH",
"90 33 OFFCURVE",
"88 39 OFFCURVE",
"87 47 CURVE SMOOTH",
"83 86 OFFCURVE",
"102 136 OFFCURVE",
"133 191 CURVE",
"193 191 LINE SMOOTH",
"234 191 OFFCURVE",
"287 200 OFFCURVE",
"287 216 CURVE SMOOTH",
"287 227 OFFCURVE",
"242 228 OFFCURVE",
"225 228 CURVE SMOOTH",
"156 228 LINE",
"244 365 OFFCURVE",
"383 510 OFFCURVE",
"382 522 CURVE SMOOTH",
"380 537 OFFCURVE",
"348 553 OFFCURVE",
"335 553 CURVE SMOOTH",
"287 553 OFFCURVE",
"178 375 OFFCURVE",
"111 228 CURVE",
"70 228 LINE SMOOTH",
"46 228 OFFCURVE",
"16 207 OFFCURVE",
"16 197 CURVE SMOOTH",
"16 193 OFFCURVE",
"20 191 OFFCURVE",
"28 191 CURVE SMOOTH",
"94 191 LINE",
"69 132 OFFCURVE",
"53 81 OFFCURVE",
"53 54 CURVE SMOOTH",
"53 39 OFFCURVE",
"65 -7 OFFCURVE",
"92 -7 CURVE SMOOTH"
);
}
);
width = 587;
}
);
note = Eth;
unicode = 00D0;
},
{
glyphname = E;
lastChange = "2021-09-02 13:45:16 +0000";
layers = (
{
anchors = (
{
name = bottom;
position = "{304, 7}";
},
{
name = ogonek;
position = "{537, 83}";
},
{
name = top;
position = "{525, 599}";
},
{
name = topleft;
position = "{20, 610}";
}
);
background = {
paths = (
{
closed = 1;
nodes = (
"332 -26 OFFCURVE",
"604 65 OFFCURVE",
"657 142 CURVE SMOOTH",
"660 146 OFFCURVE",
"661 150 OFFCURVE",
"661 152 CURVE SMOOTH",
"661 155 OFFCURVE",
"660 156 OFFCURVE",
"658 156 CURVE SMOOTH",
"656 156 OFFCURVE",
"654 155 OFFCURVE",
"650 153 CURVE SMOOTH",
"551 98 OFFCURVE",
"352 13 OFFCURVE",
"231 13 CURVE SMOOTH",
"160 13 OFFCURVE",
"137 47 OFFCURVE",
"137 92 CURVE SMOOTH",
"137 168 OFFCURVE",
"204 275 OFFCURVE",
"215 300 CURVE",
"323 345 OFFCURVE",
"456 324 OFFCURVE",
"571 343 CURVE SMOOTH",
"578 344 OFFCURVE",
"608 354 OFFCURVE",
"608 361 CURVE SMOOTH",
"608 363 OFFCURVE",
"605 365 OFFCURVE",
"596 366 CURVE SMOOTH",
"572 369 OFFCURVE",
"547 369 OFFCURVE",
"523 369 CURVE SMOOTH",
"486 369 LINE SMOOTH",
"409 369 OFFCURVE",
"333 358 OFFCURVE",
"256 360 CURVE",
"279 391 OFFCURVE",
"370 506 OFFCURVE",
"396 523 CURVE SMOOTH",
"425 543 OFFCURVE",
"558 549 OFFCURVE",
"598 549 CURVE SMOOTH",
"619 549 OFFCURVE",
"656 550 OFFCURVE",
"677 541 CURVE",
"682 531 OFFCURVE",
"689 527 OFFCURVE",
"694 527 CURVE SMOOTH",
"702 527 OFFCURVE",
"709 536 OFFCURVE",
"709 545 CURVE SMOOTH",
"709 556 OFFCURVE",
"701 569 OFFCURVE",
"680 575 CURVE",
"628 584 OFFCURVE",
"575 584 OFFCURVE",
"525 584 CURVE SMOOTH",
"461 584 OFFCURVE",
"268 582 OFFCURVE",
"274 529 CURVE SMOOTH",
"277 505 OFFCURVE",
"290 517 OFFCURVE",
"297 504 CURVE",
"257 454 OFFCURVE",
"208 339 OFFCURVE",
"133 339 CURVE SMOOTH",
"129 339 OFFCURVE",
"120 341 OFFCURVE",
"112 341 CURVE SMOOTH",
"105 341 OFFCURVE",
"98 339 OFFCURVE",
"98 332 CURVE SMOOTH",
"98 303 OFFCURVE",
"141 303 OFFCURVE",
"159 302 CURVE",
"132 246 OFFCURVE",
"86 169 OFFCURVE",
"86 101 CURVE SMOOTH",
"86 95 OFFCURVE",
"86 90 OFFCURVE",
"87 85 CURVE SMOOTH",
"97 4 OFFCURVE",
"154 -26 OFFCURVE",
"228 -26 CURVE SMOOTH"
);
}
);
};
layerId = "5B3E1226-E0D0-4C23-AF14-DEF1E2C801D3";
paths = (
{
closed = 1;
nodes = (
"332 -11 OFFCURVE",
"604 80 OFFCURVE",
"657 157 CURVE SMOOTH",
"660 161 OFFCURVE",
"661 165 OFFCURVE",
"661 167 CURVE SMOOTH",
"661 170 OFFCURVE",
"660 171 OFFCURVE",
"658 171 CURVE SMOOTH",
"656 171 OFFCURVE",
"654 170 OFFCURVE",
"650 168 CURVE SMOOTH",
"551 113 OFFCURVE",
"352 28 OFFCURVE",
"231 28 CURVE SMOOTH",
"160 28 OFFCURVE",
"137 62 OFFCURVE",
"137 107 CURVE SMOOTH",
"137 183 OFFCURVE",
"204 290 OFFCURVE",
"215 315 CURVE",
"323 360 OFFCURVE",
"457 339 OFFCURVE",
"571 358 CURVE SMOOTH",
"578 359 OFFCURVE",
"608 369 OFFCURVE",
"608 376 CURVE SMOOTH",
"608 378 OFFCURVE",
"605 380 OFFCURVE",
"596 381 CURVE SMOOTH",
"571 384 OFFCURVE",
"549 384 OFFCURVE",
"523 384 CURVE SMOOTH",
"486 384 LINE SMOOTH",
"409 384 OFFCURVE",
"333 373 OFFCURVE",
"256 375 CURVE",
"279 406 OFFCURVE",
"370 521 OFFCURVE",
"396 538 CURVE SMOOTH",
"425 558 OFFCURVE",
"558 564 OFFCURVE",
"598 564 CURVE SMOOTH",
"619 564 OFFCURVE",
"656 565 OFFCURVE",
"677 556 CURVE",
"682 546 OFFCURVE",
"689 542 OFFCURVE",
"694 542 CURVE SMOOTH",
"702 542 OFFCURVE",
"709 551 OFFCURVE",
"709 560 CURVE SMOOTH",
"709 571 OFFCURVE",
"701 584 OFFCURVE",
"680 590 CURVE",
"628 599 OFFCURVE",
"575 599 OFFCURVE",
"525 599 CURVE SMOOTH",
"461 599 OFFCURVE",
"268 597 OFFCURVE",
"274 544 CURVE SMOOTH",
"277 520 OFFCURVE",
"290 532 OFFCURVE",
"297 519 CURVE",
"257 469 OFFCURVE",
"208 354 OFFCURVE",
"133 354 CURVE SMOOTH",
"129 354 OFFCURVE",
"120 356 OFFCURVE",
"112 356 CURVE SMOOTH",
"105 356 OFFCURVE",
"98 354 OFFCURVE",
"98 347 CURVE SMOOTH",
"98 318 OFFCURVE",
"141 318 OFFCURVE",
"159 317 CURVE",
"132 261 OFFCURVE",
"86 184 OFFCURVE",
"86 116 CURVE SMOOTH",
"86 110 OFFCURVE",
"86 107 OFFCURVE",
"87 99 CURVE SMOOTH",
"97 19 OFFCURVE",
"155 -11 OFFCURVE",
"228 -11 CURVE SMOOTH"
);
}
);
width = 589;
}
);
note = E;
unicode = 0045;
},
{
glyphname = F;
lastChange = "2021-09-02 13:45:16 +0000";
layers = (
{
background = {
paths = (
{
closed = 1;
nodes = (
"112 -17 OFFCURVE",
"118 -14 OFFCURVE",
"118 -8 CURVE SMOOTH",
"118 -3 OFFCURVE",
"114 3 OFFCURVE",
"105 10 CURVE SMOOTH",
"100 14 OFFCURVE",
"100 25 OFFCURVE",
"100 30 CURVE SMOOTH",
"100 65 OFFCURVE",
"195 253 OFFCURVE",
"219 253 CURVE SMOOTH",
"326 253 OFFCURVE",
"450 267 OFFCURVE",
"554 281 CURVE SMOOTH",
"569 283 OFFCURVE",
"613 298 OFFCURVE",
"613 307 CURVE SMOOTH",
"613 311 OFFCURVE",
"604 314 OFFCURVE",
"580 314 CURVE SMOOTH",
"518 314 OFFCURVE",
"457 308 OFFCURVE",
"394 308 CURVE SMOOTH",
"366 308 OFFCURVE",
"285 308 OFFCURVE",
"261 317 CURVE",
"343 446 OFFCURVE",
"368 520 OFFCURVE",
"532 531 CURVE SMOOTH",
"600 536 OFFCURVE",
"668 542 OFFCURVE",
"736 542 CURVE SMOOTH",
"772 542 OFFCURVE",
"785 549 OFFCURVE",
"785 556 CURVE SMOOTH",
"785 566 OFFCURVE",
"764 576 OFFCURVE",
"738 576 CURVE SMOOTH",
"663 576 OFFCURVE",
"524 574 OFFCURVE",
"449 571 CURVE SMOOTH",
"391 569 OFFCURVE",
"306 554 OFFCURVE",
"306 523 CURVE SMOOTH",
"306 515 OFFCURVE",
"311 506 OFFCURVE",
"325 495 CURVE",
"280 442 OFFCURVE",
"246 376 OFFCURVE",
"208 318 CURVE",
"192 316 OFFCURVE",
"154 307 OFFCURVE",
"154 287 CURVE SMOOTH",
"154 278 OFFCURVE",
"161 271 OFFCURVE",
"167 266 CURVE",
"133 208 OFFCURVE",
"66 92 OFFCURVE",
"66 27 CURVE SMOOTH",
"66 -4 OFFCURVE",
"89 -17 OFFCURVE",
"105 -17 CURVE SMOOTH"
);
}
);
};
layerId = "5B3E1226-E0D0-4C23-AF14-DEF1E2C801D3";
paths = (
{
closed = 1;
nodes = (
"112 -2 OFFCURVE",
"118 1 OFFCURVE",
"118 7 CURVE SMOOTH",
"118 12 OFFCURVE",
"114 18 OFFCURVE",
"105 25 CURVE SMOOTH",
"100 29 OFFCURVE",
"100 40 OFFCURVE",
"100 45 CURVE SMOOTH",
"100 80 OFFCURVE",
"195 268 OFFCURVE",
"219 268 CURVE SMOOTH",
"326 268 OFFCURVE",
"450 282 OFFCURVE",
"554 296 CURVE SMOOTH",
"569 298 OFFCURVE",
"613 313 OFFCURVE",
"613 322 CURVE SMOOTH",
"613 326 OFFCURVE",
"604 329 OFFCURVE",
"580 329 CURVE SMOOTH",
"518 329 OFFCURVE",
"457 323 OFFCURVE",
"394 323 CURVE SMOOTH",
"366 323 OFFCURVE",
"285 323 OFFCURVE",
"261 332 CURVE",
"343 461 OFFCURVE",
"368 535 OFFCURVE",
"532 546 CURVE SMOOTH",
"600 551 OFFCURVE",
"668 557 OFFCURVE",
"736 557 CURVE SMOOTH",
"772 557 OFFCURVE",
"785 564 OFFCURVE",
"785 571 CURVE SMOOTH",
"785 581 OFFCURVE",
"764 591 OFFCURVE",
"738 591 CURVE SMOOTH",
"663 591 OFFCURVE",
"524 589 OFFCURVE",
"449 586 CURVE SMOOTH",
"391 584 OFFCURVE",
"306 569 OFFCURVE",
"306 538 CURVE SMOOTH",
"306 530 OFFCURVE",
"311 521 OFFCURVE",
"325 510 CURVE",
"280 457 OFFCURVE",
"246 391 OFFCURVE",
"208 333 CURVE",
"192 331 OFFCURVE",
"154 322 OFFCURVE",
"154 302 CURVE SMOOTH",
"154 293 OFFCURVE",
"161 286 OFFCURVE",
"167 281 CURVE",
"133 223 OFFCURVE",
"66 107 OFFCURVE",
"66 42 CURVE SMOOTH",
"66 11 OFFCURVE",
"89 -2 OFFCURVE",
"105 -2 CURVE SMOOTH"
);
}
);
width = 484;
}
);
note = F;
unicode = 0046;
},
{
glyphname = G;
lastChange = "2021-09-02 13:45:16 +0000";
layers = (
{
anchors = (
{
name = bottom;
position = "{290, 9}";
},
{
name = top;
position = "{592, 610}";
}
);
background = {
paths = (
{
closed = 1;
nodes = (
"557 -57 OFFCURVE",
"563 -55 OFFCURVE",
"568 -53 CURVE",
"567 -49 OFFCURVE",
"567 -46 OFFCURVE",
"567 -41 CURVE SMOOTH",
"567 35 OFFCURVE",
"697 230 OFFCURVE",
"784 230 CURVE SMOOTH",
"791 230 OFFCURVE",
"811 227 OFFCURVE",
"828 227 CURVE SMOOTH",
"844 227 OFFCURVE",
"857 229 OFFCURVE",
"857 237 CURVE SMOOTH",
"857 259 OFFCURVE",
"747 261 OFFCURVE",
"697 261 CURVE SMOOTH",
"812 261 OFFCURVE",
"253 273 OFFCURVE",
"253 184 CURVE SMOOTH",
"253 168 OFFCURVE",
"259 162 OFFCURVE",
"272 162 CURVE SMOOTH",
"295 162 OFFCURVE",
"341 184 OFFCURVE",
"407 200 CURVE",
"445 205 OFFCURVE",
"564 227 OFFCURVE",
"624 227 CURVE SMOOTH",
"636 227 OFFCURVE",
"646 226 OFFCURVE",
"652 224 CURVE",
"616 101 OFFCURVE",
"312 15 OFFCURVE",
"198 15 CURVE SMOOTH",
"146 15 OFFCURVE",
"71 27 OFFCURVE",
"71 94 CURVE SMOOTH",
"71 269 OFFCURVE",
"448 569 OFFCURVE",
"613 569 CURVE SMOOTH",
"641 569 OFFCURVE",
"669 559 OFFCURVE",
"669 527 CURVE SMOOTH",
"669 471 OFFCURVE",
"603 426 OFFCURVE",
"603 412 CURVE SMOOTH",
"603 406 OFFCURVE",
"609 404 OFFCURVE",
"614 404 CURVE SMOOTH",
"660 404 OFFCURVE",
"708 462 OFFCURVE",
"708 507 CURVE SMOOTH",
"708 558 OFFCURVE",
"666 608 OFFCURVE",
"613 608 CURVE SMOOTH",
"393 608 OFFCURVE",
"37 337 OFFCURVE",
"37 105 CURVE SMOOTH",
"37 10 OFFCURVE",
"94 -30 OFFCURVE",
"184 -30 CURVE SMOOTH",
"298 -30 OFFCURVE",
"484 41 OFFCURVE",
"578 105 CURVE",
"563 71 OFFCURVE",
"523 18 OFFCURVE",
"523 -18 CURVE SMOOTH",
"523 -36 OFFCURVE",
"531 -57 OFFCURVE",
"552 -57 CURVE SMOOTH"
);
}
);
};
layerId = "5B3E1226-E0D0-4C23-AF14-DEF1E2C801D3";
paths = (
{
closed = 1;
nodes = (
"557 -42 OFFCURVE",
"563 -40 OFFCURVE",
"568 -38 CURVE",
"567 -34 OFFCURVE",
"567 -31 OFFCURVE",
"567 -26 CURVE SMOOTH",
"567 50 OFFCURVE",
"697 245 OFFCURVE",
"784 245 CURVE SMOOTH",
"791 245 OFFCURVE",
"811 242 OFFCURVE",
"828 242 CURVE SMOOTH",
"844 242 OFFCURVE",
"857 244 OFFCURVE",
"857 252 CURVE SMOOTH",
"857 275 OFFCURVE",
"737 277 OFFCURVE",
"691 277 CURVE SMOOTH",
"600 277 OFFCURVE",
"253 269 OFFCURVE",
"253 199 CURVE SMOOTH",
"253 183 OFFCURVE",
"259 177 OFFCURVE",
"272 177 CURVE SMOOTH",
"295 177 OFFCURVE",
"341 199 OFFCURVE",
"407 215 CURVE",
"445 220 OFFCURVE",
"564 242 OFFCURVE",
"624 242 CURVE SMOOTH",
"636 242 OFFCURVE",
"646 241 OFFCURVE",
"652 239 CURVE",
"616 116 OFFCURVE",
"312 30 OFFCURVE",
"198 30 CURVE SMOOTH",
"146 30 OFFCURVE",
"71 42 OFFCURVE",
"71 109 CURVE SMOOTH",
"71 284 OFFCURVE",
"448 584 OFFCURVE",
"613 584 CURVE SMOOTH",
"641 584 OFFCURVE",
"669 574 OFFCURVE",
"669 542 CURVE SMOOTH",
"669 486 OFFCURVE",
"603 441 OFFCURVE",
"603 427 CURVE SMOOTH",
"603 421 OFFCURVE",
"609 419 OFFCURVE",
"614 419 CURVE SMOOTH",
"660 419 OFFCURVE",
"708 477 OFFCURVE",
"708 522 CURVE SMOOTH",
"708 573 OFFCURVE",
"666 623 OFFCURVE",
"613 623 CURVE SMOOTH",
"393 623 OFFCURVE",
"37 352 OFFCURVE",
"37 120 CURVE SMOOTH",
"37 25 OFFCURVE",
"94 -15 OFFCURVE",
"184 -15 CURVE SMOOTH",
"298 -15 OFFCURVE",
"484 56 OFFCURVE",
"578 120 CURVE",
"563 86 OFFCURVE",
"523 33 OFFCURVE",
"523 -3 CURVE SMOOTH",
"523 -21 OFFCURVE",
"531 -42 OFFCURVE",
"552 -42 CURVE SMOOTH"
);
}
);
width = 750;
}
);
note = G;
unicode = 0047;
},
{
glyphname = H;
lastChange = "2021-09-02 13:45:16 +0000";
layers = (
{
anchors = (
{
name = bottom;
position = "{297, 0}";
},
{
name = center;
position = "{297, 305}";
},
{
name = top;
position = "{587, 610}";
},
{
name = topleft;
position = "{20, 610}";
}
);
background = {
paths = (
{
closed = 1;
nodes = (
"64 -46 OFFCURVE",
"82 -28 OFFCURVE",
"82 -12 CURVE SMOOTH",
"82 -11 OFFCURVE",
"81 -10 OFFCURVE",
"80 -10 CURVE SMOOTH",
"76 -10 OFFCURVE",
"58 -29 OFFCURVE",
"45 -29 CURVE SMOOTH",
"38 -29 OFFCURVE",
"37 -22 OFFCURVE",
"37 -17 CURVE SMOOTH",
"37 19 OFFCURVE",
"86 108 OFFCURVE",
"104 140 CURVE SMOOTH",
"148 217 OFFCURVE",
"156 210 OFFCURVE",
"245 220 CURVE SMOOTH",
"325 228 OFFCURVE",
"408 234 OFFCURVE",
"488 234 CURVE SMOOTH",
"494 234 OFFCURVE",
"500 234 OFFCURVE",
"506 232 CURVE",
"479 167 OFFCURVE",
"428 79 OFFCURVE",
"428 8 CURVE SMOOTH",
"428 -21 OFFCURVE",
"438 -37 OFFCURVE",
"469 -37 CURVE SMOOTH",
"476 -37 OFFCURVE",
"481 -33 OFFCURVE",
"481 -29 CURVE SMOOTH",
"481 -26 OFFCURVE",
"476 -22 OFFCURVE",
"463 -22 CURVE SMOOTH",
"456 -22 OFFCURVE",
"455 -14 OFFCURVE",
"455 -9 CURVE SMOOTH",
"455 28 OFFCURVE",
"513 155 OFFCURVE",
"533 190 CURVE SMOOTH",
"548 217 OFFCURVE",
"604 228 OFFCURVE",
"604 237 CURVE SMOOTH",
"604 250 OFFCURVE",
"577 255 OFFCURVE",
"568 257 CURVE",
"633 358 OFFCURVE",
"710 464 OFFCURVE",
"798 546 CURVE SMOOTH",
"802 550 OFFCURVE",
"805 554 OFFCURVE",
"805 560 CURVE SMOOTH",
"805 576 OFFCURVE",
"788 598 OFFCURVE",
"771 598 CURVE SMOOTH",
"722 598 OFFCURVE",
"537 304 OFFCURVE",
"520 262 CURVE",
"483 264 OFFCURVE",
"445 265 OFFCURVE",
"407 265 CURVE SMOOTH",
"332 265 OFFCURVE",
"256 262 OFFCURVE",
"181 259 CURVE",
"244 368 OFFCURVE",
"330 469 OFFCURVE",
"410 566 CURVE",
"409 580 OFFCURVE",
"392 599 OFFCURVE",
"377 599 CURVE SMOOTH",
"331 599 OFFCURVE",
"157 313 OFFCURVE",
"125 262 CURVE",
"107 260 OFFCURVE",
"47 243 OFFCURVE",
"47 218 CURVE SMOOTH",
"47 204 OFFCURVE",
"71 203 OFFCURVE",
"80 203 CURVE SMOOTH",
"93 204 LINE",
"64 153 OFFCURVE",
"10 54 OFFCURVE",
"10 -4 CURVE SMOOTH",
"10 -29 OFFCURVE",
"21 -46 OFFCURVE",
"47 -46 CURVE SMOOTH"
);
}
);
};
layerId = "5B3E1226-E0D0-4C23-AF14-DEF1E2C801D3";
paths = (
{
closed = 1;
nodes = (
"64 -31 OFFCURVE",
"82 -13 OFFCURVE",
"82 3 CURVE SMOOTH",
"82 4 OFFCURVE",
"81 5 OFFCURVE",
"80 5 CURVE SMOOTH",
"76 5 OFFCURVE",
"58 -14 OFFCURVE",
"45 -14 CURVE SMOOTH",
"38 -14 OFFCURVE",
"37 -7 OFFCURVE",
"37 -2 CURVE SMOOTH",
"37 34 OFFCURVE",
"86 123 OFFCURVE",
"104 155 CURVE SMOOTH",
"147 231 OFFCURVE",
"156 225 OFFCURVE",
"246 235 CURVE SMOOTH",
"325 243 OFFCURVE",
"406 249 OFFCURVE",
"488 249 CURVE SMOOTH",
"494 249 OFFCURVE",
"500 249 OFFCURVE",
"506 247 CURVE",
"479 182 OFFCURVE",
"428 94 OFFCURVE",
"428 23 CURVE SMOOTH",
"428 -6 OFFCURVE",
"438 -22 OFFCURVE",
"469 -22 CURVE SMOOTH",
"476 -22 OFFCURVE",
"481 -18 OFFCURVE",
"481 -14 CURVE SMOOTH",
"481 -11 OFFCURVE",
"476 -7 OFFCURVE",
"463 -7 CURVE SMOOTH",
"456 -7 OFFCURVE",
"455 1 OFFCURVE",
"455 6 CURVE SMOOTH",
"455 43 OFFCURVE",
"513 170 OFFCURVE",
"533 205 CURVE SMOOTH",
"548 232 OFFCURVE",
"604 243 OFFCURVE",
"604 252 CURVE SMOOTH",
"604 265 OFFCURVE",
"577 270 OFFCURVE",
"568 272 CURVE",
"633 373 OFFCURVE",
"710 479 OFFCURVE",
"798 561 CURVE SMOOTH",
"802 565 OFFCURVE",
"805 569 OFFCURVE",
"805 575 CURVE SMOOTH",
"805 591 OFFCURVE",
"788 613 OFFCURVE",
"771 613 CURVE SMOOTH",
"722 613 OFFCURVE",
"537 319 OFFCURVE",
"520 277 CURVE",
"483 279 OFFCURVE",
"445 280 OFFCURVE",
"407 280 CURVE SMOOTH",
"332 280 OFFCURVE",
"256 277 OFFCURVE",
"181 274 CURVE",
"244 383 OFFCURVE",
"330 484 OFFCURVE",
"410 581 CURVE",
"409 595 OFFCURVE",
"392 614 OFFCURVE",
"377 614 CURVE SMOOTH",
"331 614 OFFCURVE",
"157 328 OFFCURVE",
"125 277 CURVE",
"107 275 OFFCURVE",
"47 258 OFFCURVE",
"47 233 CURVE SMOOTH",
"47 219 OFFCURVE",
"71 219 OFFCURVE",
"80 219 CURVE SMOOTH",
"93 219 LINE",
"64 168 OFFCURVE",
"10 69 OFFCURVE",
"10 11 CURVE SMOOTH",
"10 -14 OFFCURVE",
"21 -31 OFFCURVE",
"47 -31 CURVE SMOOTH"
);
}
);
width = 593;
}
);
note = H;
unicode = 0048;
},
{
glyphname = I;
lastChange = "2021-09-02 13:45:16 +0000";
layers = (
{
anchors = (
{
name = bottom;
position = "{179, 28}";
},
{
name = ogonek;
position = "{198, 38}";
},
{
name = top;
position = "{517, 610}";
},
{
name = topleft;
position = "{20, 610}";
}
);
background = {
paths = (
{
closed = 1;
nodes = (
"25 -15 OFFCURVE",
"28 -14 OFFCURVE",
"31 -14 CURVE",
"140 11 OFFCURVE",
"256 24 OFFCURVE",
"368 33 CURVE SMOOTH",
"376 34 OFFCURVE",
"407 38 OFFCURVE",
"406 50 CURVE SMOOTH",
"406 58 OFFCURVE",
"381 58 OFFCURVE",
"379 58 CURVE SMOOTH",
"321 58 OFFCURVE",
"264 55 OFFCURVE",
"206 56 CURVE",
"247 180 OFFCURVE",
"386 409 OFFCURVE",
"482 498 CURVE SMOOTH",
"554 565 OFFCURVE",
"696 545 OFFCURVE",
"709 571 CURVE",
"708 578 OFFCURVE",
"698 579 OFFCURVE",
"694 579 CURVE SMOOTH",
"646 583 OFFCURVE",
"596 584 OFFCURVE",
"549 584 CURVE",
"539 594 OFFCURVE",
"520 612 OFFCURVE",
"505 612 CURVE SMOOTH",
"495 612 OFFCURVE",
"484 588 OFFCURVE",
"475 584 CURVE SMOOTH",
"449 570 OFFCURVE",
"285 576 OFFCURVE",
"285 534 CURVE SMOOTH",
"285 525 OFFCURVE",
"295 509 OFFCURVE",
"307 509 CURVE SMOOTH",
"341 509 OFFCURVE",
"395 543 OFFCURVE",
"443 542 CURVE",
"349 462 OFFCURVE",
"205 174 OFFCURVE",
"172 52 CURVE",
"138 49 OFFCURVE",
"5 46 OFFCURVE",
"5 1 CURVE SMOOTH",
"5 -9 OFFCURVE",
"12 -15 OFFCURVE",
"21 -15 CURVE SMOOTH"
);
}
);
};
layerId = "5B3E1226-E0D0-4C23-AF14-DEF1E2C801D3";
paths = (
{
closed = 1;
nodes = (
"25 0 OFFCURVE",
"28 1 OFFCURVE",
"31 1 CURVE",
"140 26 OFFCURVE",
"256 39 OFFCURVE",
"368 48 CURVE SMOOTH",
"376 49 OFFCURVE",
"406 53 OFFCURVE",
"406 65 CURVE SMOOTH",
"406 73 OFFCURVE",
"381 73 OFFCURVE",
"379 73 CURVE SMOOTH",
"321 73 OFFCURVE",
"264 70 OFFCURVE",
"206 71 CURVE",
"247 195 OFFCURVE",
"386 424 OFFCURVE",
"482 513 CURVE SMOOTH",
"554 580 OFFCURVE",
"696 560 OFFCURVE",
"709 586 CURVE",
"708 593 OFFCURVE",
"698 594 OFFCURVE",
"694 594 CURVE SMOOTH",
"646 598 OFFCURVE",
"596 599 OFFCURVE",
"549 599 CURVE",
"539 609 OFFCURVE",
"520 627 OFFCURVE",
"505 627 CURVE SMOOTH",
"495 627 OFFCURVE",
"483 603 OFFCURVE",
"475 599 CURVE SMOOTH",
"449 586 OFFCURVE",
"285 591 OFFCURVE",
"285 549 CURVE SMOOTH",
"285 540 OFFCURVE",
"295 524 OFFCURVE",
"307 524 CURVE SMOOTH",
"341 524 OFFCURVE",
"395 558 OFFCURVE",
"443 557 CURVE",
"349 477 OFFCURVE",
"205 189 OFFCURVE",
"172 67 CURVE",
"138 64 OFFCURVE",
"5 61 OFFCURVE",
"5 16 CURVE SMOOTH",
"5 6 OFFCURVE",
"12 0 OFFCURVE",
"21 0 CURVE SMOOTH"
);
}
);
width = 407;
}
);
note = I;
unicode = 0049;
},
{
glyphname = J;
lastChange = "2021-09-02 13:45:16 +0000";
layers = (
{
anchors = (
{
name = bottom;
position = "{242, 0}";
},
{
name = top;
position = "{590, 610}";
}
);
background = {
paths = (
{
closed = 1;
nodes = (
"314 -53 OFFCURVE",
"534 399 OFFCURVE",
"624 543 CURVE",
"651 544 OFFCURVE",
"678 545 OFFCURVE",
"705 545 CURVE SMOOTH",
"708 545 OFFCURVE",
"730 543 OFFCURVE",
"750 543 CURVE SMOOTH",
"765 543 OFFCURVE",
"778 544 OFFCURVE",
"778 549 CURVE SMOOTH",
"778 578 OFFCURVE",
"646 578 OFFCURVE",
"623 583 CURVE",
"615 590 OFFCURVE",
"596 609 OFFCURVE",
"585 609 CURVE SMOOTH",
"570 609 OFFCURVE",
"555 588 OFFCURVE",
"548 578 CURVE",
"491 572 OFFCURVE",
"279 571 OFFCURVE",
"279 489 CURVE SMOOTH",
"279 444 OFFCURVE",
"322 420 OFFCURVE",
"363 420 CURVE SMOOTH",
"370 420 OFFCURVE",
"414 422 OFFCURVE",
"414 435 CURVE SMOOTH",
"414 452 OFFCURVE",
"305 451 OFFCURVE",
"305 477 CURVE SMOOTH",
"305 520 OFFCURVE",
"505 537 OFFCURVE",
"540 539 CURVE",
"504 417 OFFCURVE",
"271 -29 OFFCURVE",
"136 -29 CURVE SMOOTH",
"95 -29 OFFCURVE",
"75 26 OFFCURVE",
"75 86 CURVE SMOOTH",
"75 143 OFFCURVE",
"92 204 OFFCURVE",
"125 230 CURVE SMOOTH",
"128 232 OFFCURVE",
"129 235 OFFCURVE",
"129 238 CURVE SMOOTH",
"129 243 OFFCURVE",
"124 248 OFFCURVE",
"119 248 CURVE SMOOTH",
"117 248 OFFCURVE",
"115 248 OFFCURVE",
"113 246 CURVE SMOOTH",
"62 205 OFFCURVE",
"36 135 OFFCURVE",
"36 73 CURVE SMOOTH",
"36 5 OFFCURVE",
"67 -53 OFFCURVE",
"130 -53 CURVE SMOOTH"
);
}
);
};
layerId = "5B3E1226-E0D0-4C23-AF14-DEF1E2C801D3";
paths = (
{
closed = 1;
nodes = (
"314 -38 OFFCURVE",
"534 414 OFFCURVE",
"624 558 CURVE",
"651 559 OFFCURVE",
"678 560 OFFCURVE",
"705 560 CURVE SMOOTH",
"708 560 OFFCURVE",
"730 558 OFFCURVE",
"750 558 CURVE SMOOTH",
"765 558 OFFCURVE",
"778 559 OFFCURVE",
"778 564 CURVE SMOOTH",
"778 593 OFFCURVE",
"646 593 OFFCURVE",
"623 598 CURVE",
"615 605 OFFCURVE",
"596 624 OFFCURVE",
"585 624 CURVE SMOOTH",
"570 624 OFFCURVE",
"555 603 OFFCURVE",
"548 593 CURVE",
"491 587 OFFCURVE",
"279 586 OFFCURVE",
"279 504 CURVE SMOOTH",
"279 459 OFFCURVE",
"322 435 OFFCURVE",
"363 435 CURVE SMOOTH",
"370 435 OFFCURVE",
"414 437 OFFCURVE",
"414 450 CURVE SMOOTH",
"414 467 OFFCURVE",
"305 466 OFFCURVE",
"305 492 CURVE SMOOTH",
"305 535 OFFCURVE",
"505 552 OFFCURVE",
"540 554 CURVE",
"504 432 OFFCURVE",
"271 -14 OFFCURVE",
"136 -14 CURVE SMOOTH",
"95 -14 OFFCURVE",
"75 41 OFFCURVE",
"75 101 CURVE SMOOTH",
"75 158 OFFCURVE",
"92 219 OFFCURVE",
"125 245 CURVE SMOOTH",
"128 247 OFFCURVE",
"129 250 OFFCURVE",
"129 253 CURVE SMOOTH",
"129 258 OFFCURVE",
"124 263 OFFCURVE",
"119 263 CURVE SMOOTH",
"117 263 OFFCURVE",
"115 263 OFFCURVE",
"113 261 CURVE SMOOTH",
"62 220 OFFCURVE",
"36 150 OFFCURVE",
"36 88 CURVE SMOOTH",
"36 20 OFFCURVE",
"67 -38 OFFCURVE",
"130 -38 CURVE SMOOTH"
);
}
);
width = 484;
}
);
note = J;
unicode = 004A;
},
{
glyphname = K;
lastChange = "2021-09-02 13:45:16 +0000";
layers = (
{
anchors = (
{
name = bottom;
position = "{274, 0}";
},
{
name = top;
position = "{529, 610}";
}
);
background = {
paths = (
{
closed = 1;
nodes = (
"545 -27 OFFCURVE",
"587 22 OFFCURVE",
"584 72 CURVE SMOOTH",
"583 86 OFFCURVE",
"570 127 OFFCURVE",
"553 127 CURVE SMOOTH",
"548 127 OFFCURVE",
"547 123 OFFCURVE",
"547 120 CURVE SMOOTH",
"547 117 OFFCURVE",
"548 114 OFFCURVE",
"548 112 CURVE SMOOTH",
"550 80 OFFCURVE",
"546 0 OFFCURVE",
"502 0 CURVE SMOOTH",
"442 0 OFFCURVE",
"334 234 OFFCURVE",
"322 286 CURVE",
"378 325 OFFCURVE",
"752 540 OFFCURVE",
"750 573 CURVE SMOOTH",
"749 580 OFFCURVE",
"742 583 OFFCURVE",
"736 583 CURVE SMOOTH",
"726 583 OFFCURVE",
"718 578 OFFCURVE",
"710 573 CURVE SMOOTH",
"538 460 OFFCURVE",
"369 339 OFFCURVE",
"181 250 CURVE",
"227 355 OFFCURVE",
"294 449 OFFCURVE",
"354 546 CURVE SMOOTH",
"359 554 OFFCURVE",
"365 564 OFFCURVE",
"365 574 CURVE SMOOTH",
"364 589 OFFCURVE",
"347 592 OFFCURVE",
"336 592 CURVE SMOOTH",
"326 592 OFFCURVE",
"307 590 OFFCURVE",
"300 581 CURVE SMOOTH",
"280 556 OFFCURVE",
"264 520 OFFCURVE",
"247 492 CURVE SMOOTH",
"195 401 OFFCURVE",
"51 148 OFFCURVE",
"51 37 CURVE SMOOTH",
"51 9 OFFCURVE",
"61 -15 OFFCURVE",
"91 -15 CURVE SMOOTH",
"99 -15 OFFCURVE",
"102 -8 OFFCURVE",
"102 -2 CURVE SMOOTH",
"102 3 OFFCURVE",
"100 8 OFFCURVE",
"96 8 CURVE SMOOTH",
"87 8 OFFCURVE",
"85 18 OFFCURVE",
"84 25 CURVE SMOOTH",
"78 112 OFFCURVE",
"189 224 OFFCURVE",
"263 250 CURVE",
"298 187 OFFCURVE",
"386 48 OFFCURVE",
"434 0 CURVE SMOOTH",
"451 -16 OFFCURVE",
"471 -27 OFFCURVE",
"494 -27 CURVE SMOOTH"
);
}
);
};
layerId = "5B3E1226-E0D0-4C23-AF14-DEF1E2C801D3";
paths = (
{
closed = 1;
nodes = (
"545 -12 OFFCURVE",
"587 37 OFFCURVE",
"584 87 CURVE SMOOTH",
"583 101 OFFCURVE",
"570 142 OFFCURVE",
"553 142 CURVE SMOOTH",
"548 142 OFFCURVE",
"547 138 OFFCURVE",
"547 135 CURVE SMOOTH",
"547 132 OFFCURVE",
"548 128 OFFCURVE",
"548 127 CURVE SMOOTH",
"550 95 OFFCURVE",
"546 15 OFFCURVE",
"502 15 CURVE SMOOTH",
"442 15 OFFCURVE",
"334 249 OFFCURVE",
"322 301 CURVE",
"378 340 OFFCURVE",
"752 555 OFFCURVE",
"750 588 CURVE SMOOTH",
"749 595 OFFCURVE",
"742 598 OFFCURVE",
"736 598 CURVE SMOOTH",
"726 598 OFFCURVE",
"718 593 OFFCURVE",
"710 588 CURVE SMOOTH",
"538 475 OFFCURVE",
"369 354 OFFCURVE",
"181 265 CURVE",
"227 370 OFFCURVE",
"294 464 OFFCURVE",
"354 561 CURVE SMOOTH",
"359 569 OFFCURVE",
"365 579 OFFCURVE",
"365 589 CURVE SMOOTH",
"365 604 OFFCURVE",
"347 607 OFFCURVE",
"336 607 CURVE SMOOTH",
"326 607 OFFCURVE",
"307 605 OFFCURVE",
"300 596 CURVE SMOOTH",
"279 569 OFFCURVE",
"257 523 OFFCURVE",
"248 508 CURVE SMOOTH",
"195 416 OFFCURVE",
"51 164 OFFCURVE",
"51 52 CURVE SMOOTH",
"51 24 OFFCURVE",
"61 0 OFFCURVE",
"91 0 CURVE SMOOTH",
"99 0 OFFCURVE",
"102 7 OFFCURVE",
"102 13 CURVE SMOOTH",
"102 18 OFFCURVE",
"100 23 OFFCURVE",
"96 23 CURVE SMOOTH",
"87 23 OFFCURVE",
"85 33 OFFCURVE",
"84 40 CURVE SMOOTH",
"78 126 OFFCURVE",
"189 239 OFFCURVE",
"263 265 CURVE",
"298 202 OFFCURVE",
"386 63 OFFCURVE",
"434 15 CURVE SMOOTH",
"451 -2 OFFCURVE",
"474 -12 OFFCURVE",
"494 -12 CURVE SMOOTH"
);
}
);
width = 586;
}
);
note = K;
unicode = 004B;
},
{
glyphname = L;
lastChange = "2021-09-02 13:45:16 +0000";
layers = (
{
anchors = (
{
name = bottom;
position = "{260, 30}";
},
{
name = center;
position = "{258, 305}";
},
{
name = top;
position = "{468, 610}";
},
{
name = topright;
position = "{571, 610}";
}
);
background = {
paths = (
{
closed = 1;
nodes = (
"42 -27 OFFCURVE",
"138 -3 OFFCURVE",
"160 0 CURVE SMOOTH",
"260 15 OFFCURVE",
"291 19 OFFCURVE",
"393 19 CURVE SMOOTH",
"398 19 OFFCURVE",
"431 16 OFFCURVE",
"461 16 CURVE SMOOTH",
"485 16 OFFCURVE",
"506 18 OFFCURVE",
"506 25 CURVE SMOOTH",
"503 56 OFFCURVE",
"403 56 OFFCURVE",
"372 56 CURVE SMOOTH",
"273 56 OFFCURVE",
"172 53 OFFCURVE",
"75 38 CURVE",
"90 163 OFFCURVE",
"352 549 OFFCURVE",
"483 549 CURVE SMOOTH",
"508 549 OFFCURVE",
"508 539 OFFCURVE",
"525 530 CURVE",
"528 530 OFFCURVE",
"530 534 OFFCURVE",
"530 537 CURVE SMOOTH",
"530 539 OFFCURVE",
"529 540 OFFCURVE",
"529 541 CURVE SMOOTH",
"527 568 OFFCURVE",
"471 606 OFFCURVE",
"446 606 CURVE SMOOTH",
"311 606 OFFCURVE",
"50 165 OFFCURVE",
"47 31 CURVE",
"21 32 OFFCURVE",
"16 20 OFFCURVE",
"16 2 CURVE SMOOTH",
"16 -2 OFFCURVE",
"17 -7 OFFCURVE",
"17 -12 CURVE SMOOTH",
"18 -23 OFFCURVE",
"22 -27 OFFCURVE",
"34 -27 CURVE SMOOTH"
);
}
);
};
layerId = "5B3E1226-E0D0-4C23-AF14-DEF1E2C801D3";
paths = (
{
closed = 1;
nodes = (
"42 -12 OFFCURVE",
"140 12 OFFCURVE",
"160 15 CURVE SMOOTH",
"260 30 OFFCURVE",
"291 34 OFFCURVE",
"393 34 CURVE SMOOTH",
"398 34 OFFCURVE",
"431 31 OFFCURVE",
"461 31 CURVE SMOOTH",
"483 31 OFFCURVE",
"507 33 OFFCURVE",
"506 40 CURVE SMOOTH",
"504 71 OFFCURVE",
"402 71 OFFCURVE",
"372 71 CURVE SMOOTH",
"273 71 OFFCURVE",
"172 68 OFFCURVE",
"75 53 CURVE",
"90 178 OFFCURVE",
"352 564 OFFCURVE",
"483 564 CURVE SMOOTH",
"508 564 OFFCURVE",
"508 554 OFFCURVE",
"525 545 CURVE",
"528 545 OFFCURVE",
"530 549 OFFCURVE",
"530 552 CURVE SMOOTH",
"530 554 OFFCURVE",
"529 554 OFFCURVE",
"529 556 CURVE SMOOTH",
"527 583 OFFCURVE",
"471 621 OFFCURVE",
"446 621 CURVE SMOOTH",
"311 621 OFFCURVE",
"50 180 OFFCURVE",
"47 46 CURVE",
"21 47 OFFCURVE",
"16 35 OFFCURVE",
"16 17 CURVE SMOOTH",
"16 13 OFFCURVE",
"17 8 OFFCURVE",
"17 3 CURVE SMOOTH",
"17 -8 OFFCURVE",
"22 -12 OFFCURVE",
"34 -12 CURVE SMOOTH"
);
}
);
width = 515;
}
);
note = L;
unicode = 004C;
},
{
glyphname = Lslash;
lastChange = "2021-09-02 13:45:16 +0000";
layers = (
{
background = {
paths = (
{
closed = 1;
nodes = (
"42 -27 OFFCURVE",
"138 -3 OFFCURVE",
"160 0 CURVE SMOOTH",
"260 15 OFFCURVE",
"291 19 OFFCURVE",
"393 19 CURVE SMOOTH",
"398 19 OFFCURVE",
"431 16 OFFCURVE",
"461 16 CURVE SMOOTH",
"485 16 OFFCURVE",
"506 18 OFFCURVE",
"506 25 CURVE SMOOTH",
"503 56 OFFCURVE",
"403 56 OFFCURVE",
"372 56 CURVE SMOOTH",
"273 56 OFFCURVE",
"172 53 OFFCURVE",
"75 38 CURVE",
"79 71 OFFCURVE",
"100 122 OFFCURVE",
"131 179 CURVE",
"185 194 LINE SMOOTH",
"225 203 OFFCURVE",
"276 223 OFFCURVE",
"276 237 CURVE SMOOTH",
"276 240 OFFCURVE",
"273 241 OFFCURVE",
"266 241 CURVE SMOOTH",
"251 241 OFFCURVE",
"222 235 OFFCURVE",
"210 231 CURVE SMOOTH",
"152 216 LINE",
"244 370 OFFCURVE",
"393 549 OFFCURVE",
"483 549 CURVE SMOOTH",
"508 549 OFFCURVE",
"508 539 OFFCURVE",
"525 530 CURVE",
"528 530 OFFCURVE",
"530 534 OFFCURVE",
"530 537 CURVE SMOOTH",
"530 539 OFFCURVE",
"529 540 OFFCURVE",
"529 541 CURVE SMOOTH",
"527 568 OFFCURVE",
"471 606 OFFCURVE",
"446 606 CURVE SMOOTH",
"349 606 OFFCURVE",
"189 381 OFFCURVE",
"104 204 CURVE",
"79 197 OFFCURVE",
"71 195 OFFCURVE",
"50 190 CURVE SMOOTH",
"20 182 OFFCURVE",
"-13 148 OFFCURVE",
"6 148 CURVE SMOOTH",
"8 148 OFFCURVE",
"11 148 OFFCURVE",
"14 149 CURVE SMOOTH",
"87 168 LINE",
"63 112 OFFCURVE",
"47 62 OFFCURVE",
"47 31 CURVE",
"21 32 OFFCURVE",
"16 20 OFFCURVE",
"16 2 CURVE SMOOTH",
"16 -2 OFFCURVE",
"17 -7 OFFCURVE",
"17 -12 CURVE SMOOTH",
"18 -23 OFFCURVE",
"22 -27 OFFCURVE",
"34 -27 CURVE SMOOTH"
);
}
);
};
layerId = "5B3E1226-E0D0-4C23-AF14-DEF1E2C801D3";
paths = (
{
closed = 1;
nodes = (
"42 -27 OFFCURVE",
"138 -3 OFFCURVE",
"160 0 CURVE SMOOTH",
"260 15 OFFCURVE",
"291 19 OFFCURVE",
"393 19 CURVE SMOOTH",
"398 19 OFFCURVE",
"431 16 OFFCURVE",
"461 16 CURVE SMOOTH",
"485 16 OFFCURVE",
"506 18 OFFCURVE",
"506 25 CURVE SMOOTH",
"503 56 OFFCURVE",
"403 56 OFFCURVE",
"372 56 CURVE SMOOTH",
"273 56 OFFCURVE",
"172 53 OFFCURVE",
"75 38 CURVE",
"79 71 OFFCURVE",
"100 122 OFFCURVE",
"131 179 CURVE",
"185 194 LINE SMOOTH",
"225 203 OFFCURVE",
"276 223 OFFCURVE",
"276 237 CURVE SMOOTH",
"276 240 OFFCURVE",
"273 241 OFFCURVE",
"266 241 CURVE SMOOTH",
"251 241 OFFCURVE",
"222 235 OFFCURVE",
"210 231 CURVE SMOOTH",
"152 216 LINE",
"244 370 OFFCURVE",
"393 549 OFFCURVE",
"483 549 CURVE SMOOTH",
"508 549 OFFCURVE",
"508 539 OFFCURVE",
"525 530 CURVE",
"528 530 OFFCURVE",
"530 534 OFFCURVE",
"530 537 CURVE SMOOTH",
"530 539 OFFCURVE",
"529 540 OFFCURVE",
"529 541 CURVE SMOOTH",
"527 568 OFFCURVE",
"471 606 OFFCURVE",
"446 606 CURVE SMOOTH",
"349 606 OFFCURVE",
"189 381 OFFCURVE",
"104 204 CURVE",
"79 197 OFFCURVE",
"71 195 OFFCURVE",
"50 190 CURVE SMOOTH",
"20 182 OFFCURVE",
"-13 148 OFFCURVE",
"6 148 CURVE SMOOTH",
"8 148 OFFCURVE",
"11 148 OFFCURVE",
"14 149 CURVE SMOOTH",
"87 168 LINE",
"63 112 OFFCURVE",
"47 62 OFFCURVE",
"47 31 CURVE",
"21 32 OFFCURVE",
"16 20 OFFCURVE",
"16 2 CURVE SMOOTH",
"16 -2 OFFCURVE",
"17 -7 OFFCURVE",
"17 -12 CURVE SMOOTH",
"18 -23 OFFCURVE",
"22 -27 OFFCURVE",
"34 -27 CURVE SMOOTH"
);
}
);
width = 515;
}
);
note = Lslash;
unicode = 0141;
},
{
glyphname = M;
lastChange = "2021-09-02 13:45:16 +0000";
layers = (
{
background = {
paths = (
{
closed = 1;
nodes = (
"61 -41 OFFCURVE",
"65 -33 OFFCURVE",
"66 -25 CURVE SMOOTH",
"98 149 OFFCURVE",
"270 377 OFFCURVE",
"391 503 CURVE",
"388 483 OFFCURVE",
"379 431 OFFCURVE",
"377 402 CURVE SMOOTH",
"375 379 OFFCURVE",
"374 354 OFFCURVE",
"374 329 CURVE SMOOTH",
"374 240 OFFCURVE",
"394 153 OFFCURVE",
"486 153 CURVE SMOOTH",
"600 153 OFFCURVE",
"824 414 OFFCURVE",
"874 509 CURVE",
"875 510 OFFCURVE",
"880 520 OFFCURVE",
"880 526 CURVE SMOOTH",
"880 528 OFFCURVE",
"879 530 OFFCURVE",
"877 530 CURVE SMOOTH",
"855 530 OFFCURVE",
"569 183 OFFCURVE",
"463 183 CURVE SMOOTH",
"435 183 OFFCURVE",
"426 224 OFFCURVE",
"426 275 CURVE SMOOTH",
"426 355 OFFCURVE",
"447 462 OFFCURVE",
"451 483 CURVE SMOOTH",
"455 507 OFFCURVE",
"463 536 OFFCURVE",
"463 560 CURVE SMOOTH",
"463 574 OFFCURVE",
"425 599 OFFCURVE",
"412 599 CURVE SMOOTH",
"341 599 OFFCURVE",
"32 86 OFFCURVE",
"32 -2 CURVE SMOOTH",
"32 -13 OFFCURVE",
"35 -41 OFFCURVE",
"51 -41 CURVE SMOOTH"
);
},
{
closed = 1;
nodes = (
"778 -9 OFFCURVE",
"786 3 OFFCURVE",
"786 12 CURVE SMOOTH",
"786 19 OFFCURVE",
"782 24 OFFCURVE",
"774 24 CURVE SMOOTH",
"764 24 OFFCURVE",
"763 35 OFFCURVE",
"763 44 CURVE SMOOTH",
"763 52 LINE SMOOTH",
"763 216 OFFCURVE",
"1013 553 OFFCURVE",
"1013 565 CURVE SMOOTH",
"1013 579 OFFCURVE",
"982 592 OFFCURVE",
"971 592 CURVE SMOOTH",
"895 592 OFFCURVE",
"728 139 OFFCURVE",
"728 50 CURVE SMOOTH",
"728 27 OFFCURVE",
"734 -9 OFFCURVE",
"763 -9 CURVE SMOOTH"
);
}
);
};
layerId = "5B3E1226-E0D0-4C23-AF14-DEF1E2C801D3";
paths = (
{
closed = 1;
nodes = (
"61 -26 OFFCURVE",
"65 -18 OFFCURVE",
"66 -10 CURVE SMOOTH",
"97 162 OFFCURVE",
"270 392 OFFCURVE",
"391 518 CURVE",
"387 494 OFFCURVE",
"379 443 OFFCURVE",
"377 417 CURVE SMOOTH",
"375 394 OFFCURVE",
"374 369 OFFCURVE",
"374 344 CURVE SMOOTH",
"374 255 OFFCURVE",
"394 168 OFFCURVE",
"486 168 CURVE SMOOTH",
"600 168 OFFCURVE",
"824 429 OFFCURVE",
"874 524 CURVE",
"875 525 OFFCURVE",
"880 535 OFFCURVE",
"880 541 CURVE SMOOTH",
"880 543 OFFCURVE",
"879 545 OFFCURVE",
"877 545 CURVE SMOOTH",
"855 545 OFFCURVE",
"569 198 OFFCURVE",
"463 198 CURVE SMOOTH",
"435 198 OFFCURVE",
"426 239 OFFCURVE",
"426 290 CURVE SMOOTH",
"426 370 OFFCURVE",
"447 477 OFFCURVE",
"451 498 CURVE SMOOTH",
"455 522 OFFCURVE",
"463 551 OFFCURVE",
"463 575 CURVE SMOOTH",
"463 589 OFFCURVE",
"425 614 OFFCURVE",
"412 614 CURVE SMOOTH",
"341 614 OFFCURVE",
"32 101 OFFCURVE",
"32 13 CURVE SMOOTH",
"32 2 OFFCURVE",
"35 -26 OFFCURVE",
"51 -26 CURVE SMOOTH"
);
},
{
closed = 1;
nodes = (
"778 6 OFFCURVE",
"786 18 OFFCURVE",
"786 27 CURVE SMOOTH",
"786 34 OFFCURVE",
"782 39 OFFCURVE",
"774 39 CURVE SMOOTH",
"764 39 OFFCURVE",
"763 50 OFFCURVE",
"763 59 CURVE SMOOTH",
"763 67 LINE SMOOTH",
"763 231 OFFCURVE",
"1013 568 OFFCURVE",
"1013 580 CURVE SMOOTH",
"1013 594 OFFCURVE",
"982 607 OFFCURVE",
"971 607 CURVE SMOOTH",
"895 607 OFFCURVE",
"728 154 OFFCURVE",
"728 65 CURVE SMOOTH",
"728 42 OFFCURVE",
"734 6 OFFCURVE",
"763 6 CURVE SMOOTH"
);
}
);
width = 820;
}
);
note = M;
unicode = 004D;
},
{
glyphname = N;
lastChange = "2021-09-02 13:45:16 +0000";
layers = (
{
anchors = (
{
name = bottom;
position = "{289, 0}";
},
{
name = top;
position = "{536, 610}";
}
);
background = {
paths = (
{
closed = 1;
nodes = (
"69 -37 OFFCURVE",
"74 -33 OFFCURVE",
"74 -29 CURVE SMOOTH",
"74 -25 OFFCURVE",
"69 -21 OFFCURVE",
"56 -21 CURVE SMOOTH",
"47 -21 OFFCURVE",
"46 -11 OFFCURVE",
"46 -4 CURVE SMOOTH",
"46 122 OFFCURVE",
"273 399 OFFCURVE",
"357 494 CURVE",
"341 449 OFFCURVE",
"291 277 OFFCURVE",
"291 147 CURVE SMOOTH",
"291 61 OFFCURVE",
"312 -6 OFFCURVE",
"380 -6 CURVE SMOOTH",
"520 -6 OFFCURVE",
"733 371 OFFCURVE",
"733 537 CURVE SMOOTH",
"733 583 OFFCURVE",
"716 613 OFFCURVE",
"676 613 CURVE SMOOTH",
"659 613 OFFCURVE",
"613 596 OFFCURVE",
"613 577 CURVE SMOOTH",
"613 571 OFFCURVE",
"621 570 OFFCURVE",
"625 570 CURVE SMOOTH",
"638 570 OFFCURVE",
"649 577 OFFCURVE",
"660 577 CURVE SMOOTH",
"675 577 OFFCURVE",
"681 562 OFFCURVE",
"681 538 CURVE SMOOTH",
"681 466 OFFCURVE",
"628 316 OFFCURVE",
"604 264 CURVE SMOOTH",
"551 147 OFFCURVE",
"477 39 OFFCURVE",
"410 39 CURVE SMOOTH",
"359 39 OFFCURVE",
"343 99 OFFCURVE",
"343 177 CURVE SMOOTH",
"343 311 OFFCURVE",
"392 500 OFFCURVE",
"401 539 CURVE",
"402 541 OFFCURVE",
"403 545 OFFCURVE",
"403 547 CURVE SMOOTH",
"403 569 OFFCURVE",
"381 590 OFFCURVE",
"360 590 CURVE SMOOTH",
"343 590 OFFCURVE",
"250 502 OFFCURVE",
"250 490 CURVE SMOOTH",
"250 483 OFFCURVE",
"261 481 OFFCURVE",
"265 480 CURVE",
"197 390 OFFCURVE",
"18 109 OFFCURVE",
"18 6 CURVE SMOOTH",
"18 -25 OFFCURVE",
"31 -37 OFFCURVE",
"61 -37 CURVE SMOOTH"
);
}
);
};
layerId = "5B3E1226-E0D0-4C23-AF14-DEF1E2C801D3";
paths = (
{
closed = 1;
nodes = (
"69 -22 OFFCURVE",
"74 -18 OFFCURVE",
"74 -14 CURVE SMOOTH",
"74 -10 OFFCURVE",
"69 -6 OFFCURVE",
"56 -6 CURVE SMOOTH",
"47 -6 OFFCURVE",
"46 4 OFFCURVE",
"46 11 CURVE SMOOTH",
"46 137 OFFCURVE",
"273 414 OFFCURVE",
"357 509 CURVE",
"341 464 OFFCURVE",
"291 292 OFFCURVE",
"291 162 CURVE SMOOTH",
"291 76 OFFCURVE",
"312 9 OFFCURVE",
"380 9 CURVE SMOOTH",
"520 9 OFFCURVE",
"733 386 OFFCURVE",
"733 552 CURVE SMOOTH",
"733 598 OFFCURVE",
"716 628 OFFCURVE",
"676 628 CURVE SMOOTH",
"659 628 OFFCURVE",
"613 611 OFFCURVE",
"613 592 CURVE SMOOTH",
"613 586 OFFCURVE",
"621 585 OFFCURVE",
"625 585 CURVE SMOOTH",
"638 585 OFFCURVE",
"649 592 OFFCURVE",
"660 592 CURVE SMOOTH",
"675 592 OFFCURVE",
"681 577 OFFCURVE",
"681 553 CURVE SMOOTH",
"681 481 OFFCURVE",
"628 331 OFFCURVE",
"604 279 CURVE SMOOTH",
"551 162 OFFCURVE",
"477 54 OFFCURVE",
"410 54 CURVE SMOOTH",
"359 54 OFFCURVE",
"343 114 OFFCURVE",
"343 192 CURVE SMOOTH",
"343 326 OFFCURVE",
"392 515 OFFCURVE",
"401 554 CURVE",
"402 556 OFFCURVE",
"403 560 OFFCURVE",
"403 562 CURVE SMOOTH",
"403 584 OFFCURVE",
"381 605 OFFCURVE",
"360 605 CURVE SMOOTH",
"343 605 OFFCURVE",
"250 517 OFFCURVE",
"250 505 CURVE SMOOTH",
"250 498 OFFCURVE",
"261 496 OFFCURVE",
"265 495 CURVE",
"197 405 OFFCURVE",
"18 124 OFFCURVE",
"18 21 CURVE SMOOTH",
"18 -10 OFFCURVE",
"31 -22 OFFCURVE",
"61 -22 CURVE SMOOTH"
);
}
);
width = 578;
}
);
note = N;
unicode = 004E;
},
{
glyphname = Eng;
lastChange = "2021-09-02 13:45:16 +0000";
layers = (
{
background = {
paths = (
{
closed = 1;
nodes = (
"366 -350 OFFCURVE",
"586 79 OFFCURVE",
"692 368 CURVE SMOOTH",
"717 431 OFFCURVE",
"733 491 OFFCURVE",
"733 536 CURVE SMOOTH",
"733 583 OFFCURVE",
"716 613 OFFCURVE",
"676 613 CURVE SMOOTH",
"659 613 OFFCURVE",
"613 596 OFFCURVE",
"613 577 CURVE SMOOTH",
"613 571 OFFCURVE",
"621 570 OFFCURVE",
"625 570 CURVE SMOOTH",
"638 570 OFFCURVE",
"649 577 OFFCURVE",
"660 577 CURVE SMOOTH",
"675 577 OFFCURVE",
"681 562 OFFCURVE",
"681 538 CURVE SMOOTH",
"681 466 OFFCURVE",
"628 316 OFFCURVE",
"604 264 CURVE SMOOTH",
"579 212 LINE SMOOTH",
"529 117 OFFCURVE",
"467 39 OFFCURVE",
"410 39 CURVE SMOOTH",
"359 39 OFFCURVE",
"343 99 OFFCURVE",
"343 177 CURVE SMOOTH",
"343 311 OFFCURVE",
"392 500 OFFCURVE",
"401 539 CURVE",
"402 541 OFFCURVE",
"403 545 OFFCURVE",
"403 547 CURVE SMOOTH",
"403 569 OFFCURVE",
"381 590 OFFCURVE",
"360 590 CURVE SMOOTH",
"343 590 OFFCURVE",
"250 502 OFFCURVE",
"250 490 CURVE SMOOTH",
"250 483 OFFCURVE",
"261 481 OFFCURVE",
"265 480 CURVE",
"197 390 OFFCURVE",
"18 109 OFFCURVE",
"18 6 CURVE SMOOTH",
"18 -25 OFFCURVE",
"31 -37 OFFCURVE",
"61 -37 CURVE SMOOTH",
"69 -37 OFFCURVE",
"74 -33 OFFCURVE",
"74 -29 CURVE SMOOTH",
"74 -25 OFFCURVE",
"69 -21 OFFCURVE",
"56 -21 CURVE SMOOTH",
"47 -21 OFFCURVE",
"46 -11 OFFCURVE",
"46 -4 CURVE SMOOTH",
"46 122 OFFCURVE",
"273 399 OFFCURVE",
"357 494 CURVE",
"341 449 OFFCURVE",
"291 277 OFFCURVE",
"291 147 CURVE SMOOTH",
"291 61 OFFCURVE",
"312 -6 OFFCURVE",
"380 -6 CURVE SMOOTH",
"419 -6 OFFCURVE",
"463 23 OFFCURVE",
"506 67 CURVE",
"414 -111 OFFCURVE",
"286 -326 OFFCURVE",
"193 -326 CURVE SMOOTH",
"152 -326 OFFCURVE",
"132 -271 OFFCURVE",
"132 -211 CURVE SMOOTH",
"132 -154 OFFCURVE",
"149 -93 OFFCURVE",
"182 -67 CURVE SMOOTH",
"185 -65 OFFCURVE",
"186 -62 OFFCURVE",
"186 -59 CURVE SMOOTH",
"186 -54 OFFCURVE",
"181 -49 OFFCURVE",
"176 -49 CURVE SMOOTH",
"174 -49 OFFCURVE",
"172 -49 OFFCURVE",
"170 -51 CURVE SMOOTH",
"119 -92 OFFCURVE",
"93 -162 OFFCURVE",
"93 -224 CURVE SMOOTH",
"93 -292 OFFCURVE",
"124 -350 OFFCURVE",
"187 -350 CURVE SMOOTH"
);
}
);
};
layerId = "5B3E1226-E0D0-4C23-AF14-DEF1E2C801D3";
paths = (
{
closed = 1;
nodes = (
"361 -335 OFFCURVE",
"576 71 OFFCURVE",
"693 384 CURVE SMOOTH",
"718 451 OFFCURVE",
"733 508 OFFCURVE",
"733 551 CURVE SMOOTH",
"733 598 OFFCURVE",
"716 628 OFFCURVE",
"676 628 CURVE SMOOTH",
"659 628 OFFCURVE",
"613 611 OFFCURVE",
"613 592 CURVE SMOOTH",
"613 586 OFFCURVE",
"621 585 OFFCURVE",
"625 585 CURVE SMOOTH",
"638 585 OFFCURVE",
"649 592 OFFCURVE",
"660 592 CURVE SMOOTH",
"675 592 OFFCURVE",
"681 577 OFFCURVE",
"681 553 CURVE SMOOTH",
"681 483 OFFCURVE",
"630 330 OFFCURVE",
"604 279 CURVE SMOOTH",
"578 227 LINE SMOOTH",
"527 127 OFFCURVE",
"465 54 OFFCURVE",
"410 54 CURVE SMOOTH",
"359 54 OFFCURVE",
"343 114 OFFCURVE",
"343 192 CURVE SMOOTH",
"343 326 OFFCURVE",
"392 515 OFFCURVE",
"401 554 CURVE",
"402 556 OFFCURVE",
"403 560 OFFCURVE",
"403 562 CURVE SMOOTH",
"403 584 OFFCURVE",
"381 605 OFFCURVE",
"360 605 CURVE SMOOTH",
"343 605 OFFCURVE",
"250 517 OFFCURVE",
"250 505 CURVE SMOOTH",
"250 498 OFFCURVE",
"261 496 OFFCURVE",
"265 495 CURVE",
"197 405 OFFCURVE",
"18 124 OFFCURVE",
"18 21 CURVE SMOOTH",
"18 -10 OFFCURVE",
"31 -22 OFFCURVE",
"61 -22 CURVE SMOOTH",
"69 -22 OFFCURVE",
"74 -18 OFFCURVE",
"74 -14 CURVE SMOOTH",
"74 -10 OFFCURVE",
"69 -6 OFFCURVE",
"56 -6 CURVE SMOOTH",
"47 -6 OFFCURVE",
"46 4 OFFCURVE",
"46 11 CURVE SMOOTH",
"46 137 OFFCURVE",
"273 414 OFFCURVE",
"357 509 CURVE",
"341 464 OFFCURVE",
"291 292 OFFCURVE",
"291 162 CURVE SMOOTH",
"291 76 OFFCURVE",
"312 9 OFFCURVE",
"380 9 CURVE SMOOTH",
"419 9 OFFCURVE",
"463 38 OFFCURVE",
"506 82 CURVE",
"414 -96 OFFCURVE",
"286 -311 OFFCURVE",
"193 -311 CURVE SMOOTH",
"152 -311 OFFCURVE",
"132 -256 OFFCURVE",
"132 -196 CURVE SMOOTH",
"132 -139 OFFCURVE",
"149 -78 OFFCURVE",
"182 -52 CURVE SMOOTH",
"185 -50 OFFCURVE",
"186 -47 OFFCURVE",
"186 -44 CURVE SMOOTH",
"186 -39 OFFCURVE",
"181 -34 OFFCURVE",
"176 -34 CURVE SMOOTH",
"174 -34 OFFCURVE",
"172 -34 OFFCURVE",
"170 -36 CURVE SMOOTH",
"119 -77 OFFCURVE",
"93 -147 OFFCURVE",
"93 -209 CURVE SMOOTH",
"93 -277 OFFCURVE",
"124 -335 OFFCURVE",
"187 -335 CURVE SMOOTH"
);
}
);
width = 578;
}
);
unicode = 014A;
},
{
glyphname = O;
lastChange = "2021-09-02 13:45:16 +0000";
layers = (
{
anchors = (
{
name = bottom;
position = "{188, 0}";
},
{
name = center;
position = "{349, 305}";
},
{
name = ogonek;
position = "{228, 10}";
},
{
name = top;
position = "{614, 610}";
},
{
name = topleft;
position = "{20, 610}";
},
{
name = topright;
position = "{721, 538}";
}
);
background = {
paths = (
{
closed = 1;
nodes = (
"451 -25 OFFCURVE",
"802 161 OFFCURVE",
"802 377 CURVE SMOOTH",
"802 530 OFFCURVE",
"666 591 OFFCURVE",
"532 591 CURVE SMOOTH",
"396 591 OFFCURVE",
"228 527 OFFCURVE",
"145 416 CURVE SMOOTH",
"141 410 OFFCURVE",
"139 405 OFFCURVE",
"139 401 CURVE SMOOTH",
"139 397 OFFCURVE",
"141 394 OFFCURVE",
"145 394 CURVE SMOOTH",
"149 394 OFFCURVE",
"154 396 OFFCURVE",
"161 402 CURVE SMOOTH",
"213 449 OFFCURVE",
"274 488 OFFCURVE",
"340 511 CURVE",
"235 421 OFFCURVE",
"100 284 OFFCURVE",
"100 136 CURVE SMOOTH",
"100 30 OFFCURVE",
"155 -25 OFFCURVE",
"260 -25 CURVE SMOOTH"
);
},
{
closed = 1;
nodes = (
"175 8 OFFCURVE",
"135 48 OFFCURVE",
"135 126 CURVE SMOOTH",
"135 264 OFFCURVE",
"329 447 OFFCURVE",
"453 486 CURVE SMOOTH",
"459 488 OFFCURVE",
"464 492 OFFCURVE",
"464 499 CURVE SMOOTH",
"464 523 OFFCURVE",
"427 535 OFFCURVE",
"409 538 CURVE",
"455 553 OFFCURVE",
"503 560 OFFCURVE",
"551 560 CURVE SMOOTH",
"640 560 OFFCURVE",
"755 531 OFFCURVE",
"755 421 CURVE SMOOTH",
"755 218 OFFCURVE",
"439 8 OFFCURVE",
"252 8 CURVE SMOOTH"
);
}
);
};
layerId = "5B3E1226-E0D0-4C23-AF14-DEF1E2C801D3";
paths = (
{
closed = 1;
nodes = (
"451 -10 OFFCURVE",
"802 176 OFFCURVE",
"802 392 CURVE SMOOTH",
"802 545 OFFCURVE",
"666 606 OFFCURVE",
"532 606 CURVE SMOOTH",
"396 606 OFFCURVE",
"228 542 OFFCURVE",
"145 431 CURVE SMOOTH",
"142 427 OFFCURVE",
"139 420 OFFCURVE",
"139 416 CURVE SMOOTH",
"139 412 OFFCURVE",
"141 409 OFFCURVE",
"145 409 CURVE SMOOTH",
"149 409 OFFCURVE",
"154 411 OFFCURVE",
"161 417 CURVE SMOOTH",
"213 464 OFFCURVE",
"274 503 OFFCURVE",
"340 526 CURVE",
"235 436 OFFCURVE",
"100 299 OFFCURVE",
"100 151 CURVE SMOOTH",
"100 45 OFFCURVE",
"155 -10 OFFCURVE",
"260 -10 CURVE SMOOTH"
);
},
{
closed = 1;
nodes = (
"175 23 OFFCURVE",
"135 63 OFFCURVE",
"135 141 CURVE SMOOTH",
"135 279 OFFCURVE",
"329 462 OFFCURVE",
"453 501 CURVE SMOOTH",
"459 503 OFFCURVE",
"464 507 OFFCURVE",
"464 514 CURVE SMOOTH",
"464 538 OFFCURVE",
"427 550 OFFCURVE",
"409 553 CURVE",
"455 568 OFFCURVE",
"503 575 OFFCURVE",
"551 575 CURVE SMOOTH",
"640 575 OFFCURVE",
"755 546 OFFCURVE",
"755 436 CURVE SMOOTH",
"755 233 OFFCURVE",
"439 23 OFFCURVE",
"252 23 CURVE SMOOTH"
);
}
);
width = 698;
}
);
note = O;
unicode = 004F;
},
{
glyphname = Oslash;
lastChange = "2021-09-02 13:45:16 +0000";
layers = (
{
anchors = (
{
name = bottom;
position = "{329, 0}";
},
{
name = top;
position = "{605, 655}";
}
);
background = {
paths = (
{
closed = 1;
nodes = (
"25 -109 OFFCURVE",
"42 -105 OFFCURVE",
"48 -98 CURVE SMOOTH",
"132 -7 LINE",
"155 -19 OFFCURVE",
"184 -25 OFFCURVE",
"219 -25 CURVE SMOOTH",
"410 -25 OFFCURVE",
"761 161 OFFCURVE",
"761 377 CURVE SMOOTH",
"761 464 OFFCURVE",
"717 521 OFFCURVE",
"654 554 CURVE",
"724 629 LINE SMOOTH",
"729 634 OFFCURVE",
"731 638 OFFCURVE",
"731 642 CURVE SMOOTH",
"731 651 OFFCURVE",
"718 655 OFFCURVE",
"702 655 CURVE SMOOTH",
"684 655 OFFCURVE",
"663 649 OFFCURVE",
"654 639 CURVE SMOOTH",
"596 577 LINE",
"562 587 OFFCURVE",
"527 591 OFFCURVE",
"491 591 CURVE SMOOTH",
"355 591 OFFCURVE",
"187 527 OFFCURVE",
"104 416 CURVE SMOOTH",
"100 410 OFFCURVE",
"98 405 OFFCURVE",
"98 401 CURVE SMOOTH",
"98 397 OFFCURVE",
"100 394 OFFCURVE",
"104 394 CURVE SMOOTH",
"108 394 OFFCURVE",
"113 396 OFFCURVE",
"120 402 CURVE SMOOTH",
"172 449 OFFCURVE",
"233 488 OFFCURVE",
"299 511 CURVE",
"194 421 OFFCURVE",
"59 284 OFFCURVE",
"59 136 CURVE SMOOTH",
"59 80 OFFCURVE",
"74 38 OFFCURVE",
"104 11 CURVE",
"4 -96 LINE SMOOTH",
"1 -99 OFFCURVE",
"0 -102 OFFCURVE",
"0 -104 CURVE SMOOTH",
"0 -108 OFFCURVE",
"6 -109 OFFCURVE",
"13 -109 CURVE SMOOTH"
);
},
{
closed = 1;
nodes = (
"104 55 OFFCURVE",
"94 85 OFFCURVE",
"94 126 CURVE SMOOTH",
"94 264 OFFCURVE",
"288 447 OFFCURVE",
"412 486 CURVE SMOOTH",
"418 488 OFFCURVE",
"423 492 OFFCURVE",
"423 499 CURVE SMOOTH",
"423 523 OFFCURVE",
"386 535 OFFCURVE",
"368 538 CURVE",
"414 553 OFFCURVE",
"462 560 OFFCURVE",
"510 560 CURVE SMOOTH",
"531 560 OFFCURVE",
"553 558 OFFCURVE",
"575 554 CURVE",
"425 390 OFFCURVE",
"287 215 OFFCURVE",
"126 35 CURVE"
);
},
{
closed = 1;
nodes = (
"189 8 OFFCURVE",
"170 11 OFFCURVE",
"155 17 CURVE",
"637 536 LINE",
"681 515 OFFCURVE",
"714 479 OFFCURVE",
"714 421 CURVE SMOOTH",
"714 218 OFFCURVE",
"398 8 OFFCURVE",
"211 8 CURVE SMOOTH"
);
}
);
};
layerId = "5B3E1226-E0D0-4C23-AF14-DEF1E2C801D3";
paths = (
{
closed = 1;
nodes = (
"25 -94 OFFCURVE",
"42 -90 OFFCURVE",
"48 -83 CURVE SMOOTH",
"132 8 LINE",
"155 -4 OFFCURVE",
"184 -10 OFFCURVE",
"219 -10 CURVE SMOOTH",
"410 -10 OFFCURVE",
"761 176 OFFCURVE",
"761 392 CURVE SMOOTH",
"761 479 OFFCURVE",
"717 536 OFFCURVE",
"654 569 CURVE",
"724 644 LINE SMOOTH",
"729 649 OFFCURVE",
"731 653 OFFCURVE",
"731 657 CURVE SMOOTH",
"731 666 OFFCURVE",
"718 670 OFFCURVE",
"702 670 CURVE SMOOTH",
"684 670 OFFCURVE",
"663 664 OFFCURVE",
"654 654 CURVE SMOOTH",
"596 592 LINE",
"562 602 OFFCURVE",
"527 606 OFFCURVE",
"491 606 CURVE SMOOTH",
"355 606 OFFCURVE",
"187 542 OFFCURVE",
"104 431 CURVE SMOOTH",
"100 425 OFFCURVE",
"98 420 OFFCURVE",
"98 416 CURVE SMOOTH",
"98 412 OFFCURVE",
"100 409 OFFCURVE",
"104 409 CURVE SMOOTH",
"108 409 OFFCURVE",
"113 411 OFFCURVE",
"120 417 CURVE SMOOTH",
"172 464 OFFCURVE",
"233 503 OFFCURVE",
"299 526 CURVE",
"194 436 OFFCURVE",
"59 299 OFFCURVE",
"59 151 CURVE SMOOTH",
"59 95 OFFCURVE",
"74 53 OFFCURVE",
"104 26 CURVE",
"4 -81 LINE SMOOTH",
"1 -84 OFFCURVE",
"0 -87 OFFCURVE",
"0 -89 CURVE SMOOTH",
"0 -93 OFFCURVE",
"6 -94 OFFCURVE",
"13 -94 CURVE SMOOTH"
);
},
{
closed = 1;
nodes = (
"104 70 OFFCURVE",
"94 100 OFFCURVE",
"94 141 CURVE SMOOTH",
"94 279 OFFCURVE",
"288 462 OFFCURVE",
"412 501 CURVE SMOOTH",
"418 503 OFFCURVE",
"423 507 OFFCURVE",
"423 514 CURVE SMOOTH",
"423 538 OFFCURVE",
"386 550 OFFCURVE",
"368 553 CURVE",
"414 568 OFFCURVE",
"462 575 OFFCURVE",
"510 575 CURVE SMOOTH",
"531 575 OFFCURVE",
"553 573 OFFCURVE",
"575 569 CURVE",
"425 405 OFFCURVE",
"287 230 OFFCURVE",
"126 50 CURVE"
);
},
{
closed = 1;
nodes = (
"189 23 OFFCURVE",
"170 26 OFFCURVE",
"155 32 CURVE",
"637 551 LINE",
"681 530 OFFCURVE",
"714 494 OFFCURVE",
"714 436 CURVE SMOOTH",
"714 233 OFFCURVE",
"398 23 OFFCURVE",
"211 23 CURVE SMOOTH"
);
}
);
width = 657;
}
);
note = Oslash;
unicode = 00D8;
},
{
glyphname = OE;
lastChange = "2021-09-02 13:45:16 +0000";
layers = (
{
background = {
paths = (
{
closed = 1;
nodes = (
"801 -26 OFFCURVE",
"1073 65 OFFCURVE",
"1126 142 CURVE SMOOTH",
"1129 146 OFFCURVE",
"1130 150 OFFCURVE",
"1130 152 CURVE SMOOTH",
"1130 155 OFFCURVE",
"1129 156 OFFCURVE",
"1127 156 CURVE SMOOTH",
"1125 156 OFFCURVE",
"1123 155 OFFCURVE",
"1119 153 CURVE SMOOTH",
"1020 98 OFFCURVE",
"828 25 OFFCURVE",
"707 25 CURVE SMOOTH",
"634 25 OFFCURVE",
"611 59 OFFCURVE",
"611 104 CURVE SMOOTH",
"611 176 OFFCURVE",
"673 276 OFFCURVE",
"684 300 CURVE",
"792 345 OFFCURVE",
"925 324 OFFCURVE",
"1040 343 CURVE SMOOTH",
"1047 344 OFFCURVE",
"1077 354 OFFCURVE",
"1077 361 CURVE SMOOTH",
"1077 363 OFFCURVE",
"1074 365 OFFCURVE",
"1065 366 CURVE SMOOTH",
"1041 369 OFFCURVE",
"1016 369 OFFCURVE",
"992 369 CURVE SMOOTH",
"955 369 LINE SMOOTH",
"878 369 OFFCURVE",
"802 358 OFFCURVE",
"725 360 CURVE",
"748 391 OFFCURVE",
"839 506 OFFCURVE",
"865 523 CURVE SMOOTH",
"894 543 OFFCURVE",
"1027 549 OFFCURVE",
"1067 549 CURVE SMOOTH",
"1088 549 OFFCURVE",
"1125 550 OFFCURVE",
"1146 541 CURVE",
"1151 531 OFFCURVE",
"1158 527 OFFCURVE",
"1163 527 CURVE SMOOTH",
"1171 527 OFFCURVE",
"1178 536 OFFCURVE",
"1178 545 CURVE SMOOTH",
"1178 556 OFFCURVE",
"1170 569 OFFCURVE",
"1149 575 CURVE",
"1097 584 OFFCURVE",
"1044 584 OFFCURVE",
"994 584 CURVE SMOOTH",
"930 584 OFFCURVE",
"737 582 OFFCURVE",
"743 529 CURVE SMOOTH",
"746 505 OFFCURVE",
"759 517 OFFCURVE",
"766 504 CURVE",
"758 494 OFFCURVE",
"750 481 OFFCURVE",
"741 467 CURVE",
"699 555 OFFCURVE",
"595 591 OFFCURVE",
"491 591 CURVE SMOOTH",
"355 591 OFFCURVE",
"187 527 OFFCURVE",
"104 416 CURVE SMOOTH",
"100 410 OFFCURVE",
"98 405 OFFCURVE",
"98 401 CURVE SMOOTH",
"98 397 OFFCURVE",
"100 394 OFFCURVE",
"104 394 CURVE SMOOTH",
"108 394 OFFCURVE",
"113 396 OFFCURVE",
"120 402 CURVE SMOOTH",
"172 449 OFFCURVE",
"233 488 OFFCURVE",
"299 511 CURVE",
"194 421 OFFCURVE",
"59 284 OFFCURVE",
"59 136 CURVE SMOOTH",
"59 30 OFFCURVE",
"114 -25 OFFCURVE",
"219 -25 CURVE SMOOTH",
"313 -25 OFFCURVE",
"445 20 OFFCURVE",
"555 91 CURVE",
"555 89 OFFCURVE",
"556 87 OFFCURVE",
"556 85 CURVE SMOOTH",
"566 4 OFFCURVE",
"623 -26 OFFCURVE",
"697 -26 CURVE SMOOTH"
);
},
{
closed = 1;
nodes = (
"134 8 OFFCURVE",
"94 48 OFFCURVE",
"94 126 CURVE SMOOTH",
"94 264 OFFCURVE",
"288 447 OFFCURVE",
"412 486 CURVE SMOOTH",
"418 488 OFFCURVE",
"423 492 OFFCURVE",
"423 499 CURVE SMOOTH",
"423 523 OFFCURVE",
"386 535 OFFCURVE",
"368 538 CURVE",
"414 553 OFFCURVE",
"462 560 OFFCURVE",
"510 560 CURVE SMOOTH",
"597 560 OFFCURVE",
"710 532 OFFCURVE",
"714 426 CURVE",
"684 382 OFFCURVE",
"647 339 OFFCURVE",
"602 339 CURVE SMOOTH",
"598 339 OFFCURVE",
"589 341 OFFCURVE",
"581 341 CURVE SMOOTH",
"574 341 OFFCURVE",
"567 339 OFFCURVE",
"567 332 CURVE SMOOTH",
"567 303 OFFCURVE",
"610 303 OFFCURVE",
"628 302 CURVE",
"609 263 OFFCURVE",
"582 215 OFFCURVE",
"566 166 CURVE",
"459 73 OFFCURVE",
"315 8 OFFCURVE",
"211 8 CURVE SMOOTH"
);
}
);
};
layerId = "5B3E1226-E0D0-4C23-AF14-DEF1E2C801D3";
paths = (
{
closed = 1;
nodes = (
"801 -11 OFFCURVE",
"1073 80 OFFCURVE",
"1126 157 CURVE SMOOTH",
"1129 161 OFFCURVE",
"1130 165 OFFCURVE",
"1130 167 CURVE SMOOTH",
"1130 170 OFFCURVE",
"1129 171 OFFCURVE",
"1127 171 CURVE SMOOTH",
"1125 171 OFFCURVE",
"1123 170 OFFCURVE",
"1119 168 CURVE SMOOTH",
"1020 113 OFFCURVE",
"828 40 OFFCURVE",
"707 40 CURVE SMOOTH",
"634 40 OFFCURVE",
"611 74 OFFCURVE",
"611 119 CURVE SMOOTH",
"611 191 OFFCURVE",
"673 291 OFFCURVE",
"684 315 CURVE",
"792 360 OFFCURVE",
"925 339 OFFCURVE",
"1040 358 CURVE SMOOTH",
"1047 359 OFFCURVE",
"1077 369 OFFCURVE",
"1077 376 CURVE SMOOTH",
"1077 378 OFFCURVE",
"1074 380 OFFCURVE",
"1065 381 CURVE SMOOTH",
"1041 384 OFFCURVE",
"1016 384 OFFCURVE",
"992 384 CURVE SMOOTH",
"955 384 LINE SMOOTH",
"878 384 OFFCURVE",
"802 373 OFFCURVE",
"725 375 CURVE",
"748 406 OFFCURVE",
"839 521 OFFCURVE",
"865 538 CURVE SMOOTH",
"894 558 OFFCURVE",
"1027 564 OFFCURVE",
"1067 564 CURVE SMOOTH",
"1088 564 OFFCURVE",
"1125 565 OFFCURVE",
"1146 556 CURVE",
"1151 546 OFFCURVE",
"1158 542 OFFCURVE",
"1163 542 CURVE SMOOTH",
"1171 542 OFFCURVE",
"1178 551 OFFCURVE",
"1178 560 CURVE SMOOTH",
"1178 571 OFFCURVE",
"1170 584 OFFCURVE",
"1149 590 CURVE",
"1097 599 OFFCURVE",
"1044 599 OFFCURVE",
"994 599 CURVE SMOOTH",
"930 599 OFFCURVE",
"737 597 OFFCURVE",
"743 544 CURVE SMOOTH",
"746 520 OFFCURVE",
"759 532 OFFCURVE",
"766 519 CURVE",
"758 509 OFFCURVE",
"750 496 OFFCURVE",
"741 482 CURVE",
"699 570 OFFCURVE",
"595 606 OFFCURVE",
"491 606 CURVE SMOOTH",
"355 606 OFFCURVE",
"187 542 OFFCURVE",
"104 431 CURVE SMOOTH",
"100 425 OFFCURVE",
"98 420 OFFCURVE",
"98 416 CURVE SMOOTH",
"98 412 OFFCURVE",
"100 409 OFFCURVE",
"104 409 CURVE SMOOTH",
"108 409 OFFCURVE",
"113 411 OFFCURVE",
"120 417 CURVE SMOOTH",
"172 464 OFFCURVE",
"233 503 OFFCURVE",
"299 526 CURVE",
"194 436 OFFCURVE",
"59 299 OFFCURVE",
"59 151 CURVE SMOOTH",
"59 45 OFFCURVE",
"114 -10 OFFCURVE",
"219 -10 CURVE SMOOTH",
"313 -10 OFFCURVE",
"445 35 OFFCURVE",
"555 106 CURVE",
"555 104 OFFCURVE",
"556 102 OFFCURVE",
"556 100 CURVE SMOOTH",
"566 19 OFFCURVE",
"623 -11 OFFCURVE",
"697 -11 CURVE SMOOTH"
);
},
{
closed = 1;
nodes = (
"134 23 OFFCURVE",
"94 63 OFFCURVE",
"94 141 CURVE SMOOTH",
"94 279 OFFCURVE",
"288 462 OFFCURVE",
"412 501 CURVE SMOOTH",
"418 503 OFFCURVE",
"423 507 OFFCURVE",
"423 514 CURVE SMOOTH",
"423 538 OFFCURVE",
"386 550 OFFCURVE",
"368 553 CURVE",
"414 568 OFFCURVE",
"462 575 OFFCURVE",
"510 575 CURVE SMOOTH",
"597 575 OFFCURVE",
"710 547 OFFCURVE",
"714 441 CURVE",
"684 397 OFFCURVE",
"647 354 OFFCURVE",
"602 354 CURVE SMOOTH",
"598 354 OFFCURVE",
"589 356 OFFCURVE",
"581 356 CURVE SMOOTH",
"574 356 OFFCURVE",
"567 354 OFFCURVE",
"567 347 CURVE SMOOTH",
"567 318 OFFCURVE",
"610 318 OFFCURVE",
"628 317 CURVE",
"609 278 OFFCURVE",
"582 230 OFFCURVE",
"566 181 CURVE",
"459 88 OFFCURVE",
"315 23 OFFCURVE",
"211 23 CURVE SMOOTH"
);
}
);
width = 1058;
}
);
note = OE;
unicode = 0152;
},
{
glyphname = P;
lastChange = "2021-09-02 13:45:16 +0000";
layers = (
{
background = {
paths = (
{
closed = 1;
nodes = (
"383 225 OFFCURVE",
"643 286 OFFCURVE",
"630 449 CURVE SMOOTH",
"621 574 OFFCURVE",
"434 596 OFFCURVE",
"344 596 CURVE SMOOTH",
"293 596 OFFCURVE",
"-5 569 OFFCURVE",
"-5 489 CURVE SMOOTH",
"-5 477 OFFCURVE",
"4 482 OFFCURVE",
"9 484 CURVE SMOOTH",
"100 529 OFFCURVE",
"246 569 OFFCURVE",
"351 569 CURVE SMOOTH",
"420 569 OFFCURVE",
"591 553 OFFCURVE",
"591 450 CURVE SMOOTH",
"591 322 OFFCURVE",
"335 263 OFFCURVE",
"224 248 CURVE SMOOTH",
"215 247 OFFCURVE",
"205 244 OFFCURVE",
"205 239 CURVE SMOOTH",
"205 236 OFFCURVE",
"209 233 OFFCURVE",
"221 229 CURVE SMOOTH",
"234 225 OFFCURVE",
"252 225 OFFCURVE",
"260 225 CURVE SMOOTH"
);
},
{
closed = 1;
nodes = (
"80 -24 OFFCURVE",
"81 -18 OFFCURVE",
"81 -13 CURVE SMOOTH",
"81 -10 LINE SMOOTH",
"64 206 OFFCURVE",
"369 502 OFFCURVE",
"368 524 CURVE SMOOTH",
"367 536 OFFCURVE",
"356 547 OFFCURVE",
"344 554 CURVE SMOOTH",
"340 557 OFFCURVE",
"336 558 OFFCURVE",
"332 558 CURVE SMOOTH",
"308 558 OFFCURVE",
"289 516 OFFCURVE",
"276 499 CURVE SMOOTH",
"178 370 OFFCURVE",
"39 140 OFFCURVE",
"48 26 CURVE SMOOTH",
"49 14 OFFCURVE",
"58 -24 OFFCURVE",
"75 -24 CURVE SMOOTH"
);
}
);
};
layerId = "5B3E1226-E0D0-4C23-AF14-DEF1E2C801D3";
paths = (
{
closed = 1;
nodes = (
"382 240 OFFCURVE",
"630 298 OFFCURVE",
"630 453 CURVE SMOOTH",
"630 591 OFFCURVE",
"429 611 OFFCURVE",
"344 611 CURVE SMOOTH",
"293 611 OFFCURVE",
"-5 584 OFFCURVE",
"-5 504 CURVE SMOOTH",
"-5 498 OFFCURVE",
"-3 496 OFFCURVE",
"0 496 CURVE SMOOTH",
"3 496 OFFCURVE",
"6 498 OFFCURVE",
"9 499 CURVE SMOOTH",
"100 544 OFFCURVE",
"246 584 OFFCURVE",
"351 584 CURVE SMOOTH",
"420 584 OFFCURVE",
"591 568 OFFCURVE",
"591 465 CURVE SMOOTH",
"591 337 OFFCURVE",
"335 278 OFFCURVE",
"224 263 CURVE SMOOTH",
"215 262 OFFCURVE",
"205 259 OFFCURVE",
"205 254 CURVE SMOOTH",
"205 251 OFFCURVE",
"209 248 OFFCURVE",
"221 244 CURVE SMOOTH",
"233 240 OFFCURVE",
"253 240 OFFCURVE",
"260 240 CURVE SMOOTH"
);
},
{
closed = 1;
nodes = (
"80 -9 OFFCURVE",
"81 -3 OFFCURVE",
"81 2 CURVE SMOOTH",
"81 5 LINE SMOOTH",
"64 221 OFFCURVE",
"370 511 OFFCURVE",
"368 539 CURVE SMOOTH",
"367 550 OFFCURVE",
"359 560 OFFCURVE",
"344 569 CURVE SMOOTH",
"340 572 OFFCURVE",
"336 573 OFFCURVE",
"332 573 CURVE SMOOTH",
"308 573 OFFCURVE",
"289 531 OFFCURVE",
"276 514 CURVE SMOOTH",
"178 385 OFFCURVE",
"39 155 OFFCURVE",
"48 41 CURVE SMOOTH",
"49 29 OFFCURVE",
"58 -9 OFFCURVE",
"75 -9 CURVE SMOOTH"
);
}
);
width = 461;
}
);
note = P;
unicode = 0050;
},
{
glyphname = Thorn;
lastChange = "2021-09-02 13:45:16 +0000";
layers = (
{
background = {
paths = (
{
closed = 1;
nodes = (
"80 -24 OFFCURVE",
"81 -18 OFFCURVE",
"81 -13 CURVE SMOOTH",
"81 -10 LINE SMOOTH",
"70 130 OFFCURVE",
"243 383 OFFCURVE",
"366 549 CURVE",
"444 542 OFFCURVE",
"551 514 OFFCURVE",
"551 433 CURVE SMOOTH",
"551 305 OFFCURVE",
"295 246 OFFCURVE",
"184 231 CURVE SMOOTH",
"175 230 OFFCURVE",
"165 227 OFFCURVE",
"165 222 CURVE SMOOTH",
"165 219 OFFCURVE",
"169 216 OFFCURVE",
"181 212 CURVE SMOOTH",
"194 208 OFFCURVE",
"212 208 OFFCURVE",
"220 208 CURVE SMOOTH",
"340 208 OFFCURVE",
"590 266 OFFCURVE",
"590 420 CURVE SMOOTH",
"590 523 OFFCURVE",
"479 560 OFFCURVE",
"384 573 CURVE",
"441 650 OFFCURVE",
"484 705 OFFCURVE",
"484 712 CURVE SMOOTH",
"483 724 OFFCURVE",
"472 735 OFFCURVE",
"460 742 CURVE SMOOTH",
"456 745 OFFCURVE",
"452 746 OFFCURVE",
"448 746 CURVE SMOOTH",
"424 746 OFFCURVE",
"405 704 OFFCURVE",
"392 687 CURVE SMOOTH",
"372 661 OFFCURVE",
"346 623 OFFCURVE",
"317 579 CURVE",
"304 579 LINE SMOOTH",
"254 579 OFFCURVE",
"151 558 OFFCURVE",
"151 516 CURVE SMOOTH",
"151 509 OFFCURVE",
"156 511 OFFCURVE",
"159 512 CURVE SMOOTH",
"203 534 OFFCURVE",
"261 549 OFFCURVE",
"299 551 CURVE",
"186 374 OFFCURVE",
"41 112 OFFCURVE",
"48 26 CURVE SMOOTH",
"49 14 OFFCURVE",
"58 -24 OFFCURVE",
"75 -24 CURVE SMOOTH"
);
}
);
};
layerId = "5B3E1226-E0D0-4C23-AF14-DEF1E2C801D3";
paths = (
{
closed = 1;
nodes = (
"80 -9 OFFCURVE",
"81 -3 OFFCURVE",
"81 2 CURVE SMOOTH",
"81 5 LINE SMOOTH",
"70 145 OFFCURVE",
"243 398 OFFCURVE",
"366 564 CURVE",
"444 557 OFFCURVE",
"551 529 OFFCURVE",
"551 448 CURVE SMOOTH",
"551 320 OFFCURVE",
"295 261 OFFCURVE",
"184 246 CURVE SMOOTH",
"175 245 OFFCURVE",
"165 242 OFFCURVE",
"165 237 CURVE SMOOTH",
"165 234 OFFCURVE",
"169 231 OFFCURVE",
"181 227 CURVE SMOOTH",
"194 223 OFFCURVE",
"212 223 OFFCURVE",
"220 223 CURVE SMOOTH",
"340 223 OFFCURVE",
"590 281 OFFCURVE",
"590 435 CURVE SMOOTH",
"590 538 OFFCURVE",
"479 575 OFFCURVE",
"384 588 CURVE",
"441 665 OFFCURVE",
"484 720 OFFCURVE",
"484 727 CURVE SMOOTH",
"483 739 OFFCURVE",
"472 750 OFFCURVE",
"460 757 CURVE SMOOTH",
"456 760 OFFCURVE",
"452 761 OFFCURVE",
"448 761 CURVE SMOOTH",
"424 761 OFFCURVE",
"405 719 OFFCURVE",
"392 702 CURVE SMOOTH",
"372 676 OFFCURVE",
"346 638 OFFCURVE",
"317 594 CURVE",
"304 594 LINE SMOOTH",
"254 594 OFFCURVE",
"151 573 OFFCURVE",
"151 531 CURVE SMOOTH",
"151 524 OFFCURVE",
"156 526 OFFCURVE",
"159 527 CURVE SMOOTH",
"203 549 OFFCURVE",
"261 564 OFFCURVE",
"299 566 CURVE",
"186 389 OFFCURVE",
"41 127 OFFCURVE",
"48 41 CURVE SMOOTH",
"49 29 OFFCURVE",
"58 -9 OFFCURVE",
"75 -9 CURVE SMOOTH"
);
}
);
width = 461;
}
);
note = Thorn;
unicode = 00DE;
},
{
glyphname = Q;
lastChange = "2021-09-02 13:45:16 +0000";
layers = (
{
background = {
paths = (
{
closed = 1;
nodes = (
"680 -110 OFFCURVE",
"709 -89 OFFCURVE",
"709 -51 CURVE SMOOTH",
"709 -35 OFFCURVE",
"697 -14 OFFCURVE",
"688 -14 CURVE SMOOTH",
"683 -14 OFFCURVE",
"679 -21 OFFCURVE",
"679 -40 CURVE SMOOTH",
"679 -68 OFFCURVE",
"664 -75 OFFCURVE",
"639 -75 CURVE SMOOTH",
"575 -75 OFFCURVE",
"489 -13 OFFCURVE",
"444 29 CURVE",
"564 72 OFFCURVE",
"755 218 OFFCURVE",
"755 359 CURVE SMOOTH",
"755 511 OFFCURVE",
"613 592 OFFCURVE",
"475 592 CURVE SMOOTH",
"411 592 OFFCURVE",
"171 530 OFFCURVE",
"171 446 CURVE SMOOTH",
"171 440 OFFCURVE",
"173 435 OFFCURVE",
"176 431 CURVE",
"104 353 OFFCURVE",
"24 235 OFFCURVE",
"24 125 CURVE SMOOTH",
"24 19 OFFCURVE",
"98 -30 OFFCURVE",
"197 -30 CURVE SMOOTH",
"245 -30 OFFCURVE",
"294 -21 OFFCURVE",
"340 -8 CURVE SMOOTH",
"395 7 LINE",
"401 7 OFFCURVE",
"556 -110 OFFCURVE",
"644 -110 CURVE SMOOTH"
);
},
{
closed = 1;
nodes = (
"124 7 OFFCURVE",
"56 31 OFFCURVE",
"56 112 CURVE SMOOTH",
"56 219 OFFCURVE",
"139 345 OFFCURVE",
"221 410 CURVE SMOOTH",
"281 457 OFFCURVE",
"352 489 OFFCURVE",
"423 516 CURVE SMOOTH",
"429 518 OFFCURVE",
"443 522 OFFCURVE",
"443 532 CURVE SMOOTH",
"443 541 OFFCURVE",
"427 549 OFFCURVE",
"418 552 CURVE",
"435 554 OFFCURVE",
"454 558 OFFCURVE",
"472 558 CURVE SMOOTH",
"576 558 OFFCURVE",
"718 505 OFFCURVE",
"718 381 CURVE SMOOTH",
"718 269 OFFCURVE",
"513 91 OFFCURVE",
"414 55 CURVE",
"380 84 OFFCURVE",
"276 182 OFFCURVE",
"236 182 CURVE SMOOTH",
"211 182 OFFCURVE",
"200 161 OFFCURVE",
"200 139 CURVE SMOOTH",
"200 115 OFFCURVE",
"204 107 OFFCURVE",
"213 107 CURVE SMOOTH",
"219 107 OFFCURVE",
"226 111 OFFCURVE",
"236 117 CURVE",
"281 104 OFFCURVE",
"320 64 OFFCURVE",
"357 36 CURVE",
"301 23 OFFCURVE",
"251 7 OFFCURVE",
"193 7 CURVE SMOOTH"
);
}
);
};
layerId = "5B3E1226-E0D0-4C23-AF14-DEF1E2C801D3";
paths = (
{
closed = 1;
nodes = (
"680 -95 OFFCURVE",
"709 -74 OFFCURVE",
"709 -36 CURVE SMOOTH",
"709 -20 OFFCURVE",
"697 1 OFFCURVE",
"688 1 CURVE SMOOTH",
"683 1 OFFCURVE",
"679 -6 OFFCURVE",
"679 -25 CURVE SMOOTH",
"679 -53 OFFCURVE",
"664 -60 OFFCURVE",
"639 -60 CURVE SMOOTH",
"575 -60 OFFCURVE",
"489 2 OFFCURVE",
"444 44 CURVE",
"564 87 OFFCURVE",
"755 233 OFFCURVE",
"755 374 CURVE SMOOTH",
"755 526 OFFCURVE",
"613 607 OFFCURVE",
"475 607 CURVE SMOOTH",
"411 607 OFFCURVE",
"171 545 OFFCURVE",
"171 461 CURVE SMOOTH",
"171 455 OFFCURVE",
"173 450 OFFCURVE",
"176 446 CURVE",
"104 368 OFFCURVE",
"24 250 OFFCURVE",
"24 140 CURVE SMOOTH",
"24 34 OFFCURVE",
"98 -15 OFFCURVE",
"197 -15 CURVE SMOOTH",
"241 -15 OFFCURVE",
"294 -6 OFFCURVE",
"340 7 CURVE SMOOTH",
"395 22 LINE",
"401 22 OFFCURVE",
"556 -95 OFFCURVE",
"644 -95 CURVE SMOOTH"
);
},
{
closed = 1;
nodes = (
"124 22 OFFCURVE",
"56 46 OFFCURVE",
"56 127 CURVE SMOOTH",
"56 234 OFFCURVE",
"139 360 OFFCURVE",
"221 425 CURVE SMOOTH",
"278 470 OFFCURVE",
"352 504 OFFCURVE",
"423 531 CURVE SMOOTH",
"428 533 OFFCURVE",
"443 536 OFFCURVE",
"443 547 CURVE SMOOTH",
"443 556 OFFCURVE",
"427 564 OFFCURVE",
"418 567 CURVE",
"435 569 OFFCURVE",
"454 573 OFFCURVE",
"472 573 CURVE SMOOTH",
"576 573 OFFCURVE",
"718 520 OFFCURVE",
"718 396 CURVE SMOOTH",
"718 284 OFFCURVE",
"513 106 OFFCURVE",
"414 70 CURVE",
"380 99 OFFCURVE",
"276 197 OFFCURVE",
"236 197 CURVE SMOOTH",
"211 197 OFFCURVE",
"200 176 OFFCURVE",
"200 154 CURVE SMOOTH",
"200 130 OFFCURVE",
"204 122 OFFCURVE",
"213 122 CURVE SMOOTH",
"219 122 OFFCURVE",
"226 126 OFFCURVE",
"236 132 CURVE",
"281 119 OFFCURVE",
"320 79 OFFCURVE",
"357 51 CURVE",
"301 38 OFFCURVE",
"251 22 OFFCURVE",
"193 22 CURVE SMOOTH"
);
}
);
width = 694;
}
);
note = Q;
unicode = 0051;
},
{
glyphname = R;
lastChange = "2021-09-02 13:45:16 +0000";
layers = (
{
anchors = (
{
name = bottom;
position = "{277, 0}";
},
{
name = top;
position = "{541, 610}";
}
);
background = {
paths = (
{
closed = 1;
nodes = (
"537 -27 OFFCURVE",
"580 22 OFFCURVE",
"576 72 CURVE SMOOTH",
"575 86 OFFCURVE",
"563 127 OFFCURVE",
"545 127 CURVE SMOOTH",
"541 127 OFFCURVE",
"540 123 OFFCURVE",
"540 118 CURVE SMOOTH",
"540 112 LINE SMOOTH",
"543 80 OFFCURVE",
"539 0 OFFCURVE",
"494 0 CURVE SMOOTH",
"442 0 OFFCURVE",
"357 154 OFFCURVE",
"328 229 CURVE",
"457 244 OFFCURVE",
"640 305 OFFCURVE",
"640 438 CURVE SMOOTH",
"640 573 OFFCURVE",
"446 596 OFFCURVE",
"354 596 CURVE SMOOTH",
"303 596 OFFCURVE",
"4 569 OFFCURVE",
"4 489 CURVE SMOOTH",
"4 477 OFFCURVE",
"14 482 OFFCURVE",
"18 484 CURVE SMOOTH",
"109 529 OFFCURVE",
"256 569 OFFCURVE",
"360 569 CURVE SMOOTH",
"430 569 OFFCURVE",
"601 553 OFFCURVE",
"601 450 CURVE SMOOTH",
"601 321 OFFCURVE",
"344 263 OFFCURVE",
"234 248 CURVE SMOOTH",
"224 247 OFFCURVE",
"215 244 OFFCURVE",
"215 239 CURVE SMOOTH",
"215 236 OFFCURVE",
"219 233 OFFCURVE",
"230 229 CURVE SMOOTH",
"240 226 OFFCURVE",
"254 225 OFFCURVE",
"263 225 CURVE",
"300 160 OFFCURVE",
"380 46 OFFCURVE",
"427 0 CURVE SMOOTH",
"444 -16 OFFCURVE",
"463 -27 OFFCURVE",
"487 -27 CURVE SMOOTH"
);
},
{
closed = 1;
nodes = (
"106 -59 OFFCURVE",
"109 -52 OFFCURVE",
"109 -45 CURVE SMOOTH",
"109 -40 OFFCURVE",
"108 -36 OFFCURVE",
"104 -36 CURVE SMOOTH",
"95 -36 OFFCURVE",
"92 -26 OFFCURVE",
"92 -19 CURVE SMOOTH",
"87 47 OFFCURVE",
"165 174 OFFCURVE",
"188 218 CURVE SMOOTH",
"240 320 OFFCURVE",
"301 405 OFFCURVE",
"361 502 CURVE",
"367 509 OFFCURVE",
"372 519 OFFCURVE",
"372 528 CURVE SMOOTH",
"372 530 LINE SMOOTH",
"371 545 OFFCURVE",
"354 548 OFFCURVE",
"344 548 CURVE SMOOTH",
"334 548 OFFCURVE",
"314 546 OFFCURVE",
"308 537 CURVE SMOOTH",
"288 512 OFFCURVE",
"271 476 OFFCURVE",
"255 448 CURVE SMOOTH",
"202 357 OFFCURVE",
"59 105 OFFCURVE",
"59 -6 CURVE SMOOTH",
"59 -35 OFFCURVE",
"69 -59 OFFCURVE",
"99 -59 CURVE SMOOTH"
);
}
);
};
layerId = "5B3E1226-E0D0-4C23-AF14-DEF1E2C801D3";
paths = (
{
closed = 1;
nodes = (
"537 -12 OFFCURVE",
"580 37 OFFCURVE",
"576 87 CURVE SMOOTH",
"575 101 OFFCURVE",
"563 142 OFFCURVE",
"545 142 CURVE SMOOTH",
"541 142 OFFCURVE",
"540 138 OFFCURVE",
"540 133 CURVE SMOOTH",
"540 127 LINE SMOOTH",
"540 86 OFFCURVE",
"536 15 OFFCURVE",
"494 15 CURVE SMOOTH",
"442 15 OFFCURVE",
"357 169 OFFCURVE",
"328 244 CURVE",
"457 259 OFFCURVE",
"640 320 OFFCURVE",
"640 453 CURVE SMOOTH",
"640 588 OFFCURVE",
"446 611 OFFCURVE",
"354 611 CURVE SMOOTH",
"303 611 OFFCURVE",
"4 584 OFFCURVE",
"4 504 CURVE SMOOTH",
"4 498 OFFCURVE",
"7 496 OFFCURVE",
"10 496 CURVE SMOOTH",
"13 496 OFFCURVE",
"16 498 OFFCURVE",
"18 499 CURVE SMOOTH",
"109 544 OFFCURVE",
"256 584 OFFCURVE",
"360 584 CURVE SMOOTH",
"430 584 OFFCURVE",
"601 568 OFFCURVE",
"601 465 CURVE SMOOTH",
"601 336 OFFCURVE",
"344 278 OFFCURVE",
"234 263 CURVE SMOOTH",
"224 262 OFFCURVE",
"215 259 OFFCURVE",
"215 254 CURVE SMOOTH",
"215 251 OFFCURVE",
"219 248 OFFCURVE",
"230 244 CURVE SMOOTH",
"240 241 OFFCURVE",
"254 240 OFFCURVE",
"263 240 CURVE",
"300 175 OFFCURVE",
"380 61 OFFCURVE",
"427 15 CURVE SMOOTH",
"444 -1 OFFCURVE",
"463 -12 OFFCURVE",
"487 -12 CURVE SMOOTH"
);
},
{
closed = 1;
nodes = (
"106 -44 OFFCURVE",
"109 -37 OFFCURVE",
"109 -30 CURVE SMOOTH",
"109 -25 OFFCURVE",
"108 -21 OFFCURVE",
"104 -21 CURVE SMOOTH",
"95 -21 OFFCURVE",
"92 -11 OFFCURVE",
"92 -4 CURVE SMOOTH",
"87 62 OFFCURVE",
"165 189 OFFCURVE",
"188 233 CURVE SMOOTH",
"240 335 OFFCURVE",
"301 420 OFFCURVE",
"361 517 CURVE",
"367 524 OFFCURVE",
"372 534 OFFCURVE",
"372 543 CURVE SMOOTH",
"372 545 LINE SMOOTH",
"372 560 OFFCURVE",
"354 563 OFFCURVE",
"344 563 CURVE SMOOTH",
"327 563 OFFCURVE",
"313 559 OFFCURVE",
"308 552 CURVE SMOOTH",
"286 524 OFFCURVE",
"270 489 OFFCURVE",
"255 463 CURVE SMOOTH",
"202 372 OFFCURVE",
"59 120 OFFCURVE",
"59 9 CURVE SMOOTH",
"59 -20 OFFCURVE",
"69 -44 OFFCURVE",
"99 -44 CURVE SMOOTH"
);
}
);
width = 554;
}
);
note = R;
unicode = 0052;
},
{
glyphname = S;
lastChange = "2021-09-02 13:45:16 +0000";
layers = (
{
anchors = (
{
name = bottom;
position = "{224, -18}";
},
{
name = top;
position = "{459, 596}";
}
);
background = {
paths = (
{
closed = 1;
nodes = (
"307 -44 OFFCURVE",
"385 -31 OFFCURVE",
"385 20 CURVE SMOOTH",
"385 108 OFFCURVE",
"185 235 OFFCURVE",
"185 329 CURVE SMOOTH",
"185 453 OFFCURVE",
"364 540 OFFCURVE",
"483 540 CURVE SMOOTH",
"492 540 OFFCURVE",
"500 540 OFFCURVE",
"508 539 CURVE SMOOTH",
"534 535 OFFCURVE",
"582 525 OFFCURVE",
"582 490 CURVE SMOOTH",
"582 417 OFFCURVE",
"469 340 OFFCURVE",
"456 310 CURVE",
"456 307 OFFCURVE",
"458 306 OFFCURVE",
"461 305 CURVE",
"465 305 OFFCURVE",
"469 306 OFFCURVE",
"473 308 CURVE SMOOTH",
"536 333 OFFCURVE",
"619 402 OFFCURVE",
"619 477 CURVE SMOOTH",
"619 547 OFFCURVE",
"536 573 OFFCURVE",
"483 579 CURVE SMOOTH",
"469 581 OFFCURVE",
"454 582 OFFCURVE",
"438 582 CURVE SMOOTH",
"309 582 OFFCURVE",
"154 517 OFFCURVE",
"154 372 CURVE SMOOTH",
"154 227 OFFCURVE",
"337 111 OFFCURVE",
"336 66 CURVE SMOOTH",
"334 21 OFFCURVE",
"268 11 OFFCURVE",
"218 11 CURVE SMOOTH",
"202 11 OFFCURVE",
"189 12 OFFCURVE",
"179 13 CURVE SMOOTH",
"153 16 OFFCURVE",
"131 33 OFFCURVE",
"108 33 CURVE SMOOTH",
"104 33 OFFCURVE",
"101 32 OFFCURVE",
"101 27 CURVE SMOOTH",
"100 -10 OFFCURVE",
"203 -40 OFFCURVE",
"228 -43 CURVE SMOOTH",
"235 -44 OFFCURVE",
"245 -44 OFFCURVE",
"255 -44 CURVE SMOOTH"
);
}
);
};
layerId = "5B3E1226-E0D0-4C23-AF14-DEF1E2C801D3";
paths = (
{
closed = 1;
nodes = (
"307 -29 OFFCURVE",
"385 -16 OFFCURVE",
"385 35 CURVE SMOOTH",
"385 123 OFFCURVE",
"185 250 OFFCURVE",
"185 344 CURVE SMOOTH",
"185 468 OFFCURVE",
"364 555 OFFCURVE",
"483 555 CURVE SMOOTH",
"491 555 OFFCURVE",
"501 555 OFFCURVE",
"508 554 CURVE SMOOTH",
"534 550 OFFCURVE",
"582 540 OFFCURVE",
"582 505 CURVE SMOOTH",
"582 432 OFFCURVE",
"469 355 OFFCURVE",
"456 325 CURVE",
"456 322 OFFCURVE",
"458 321 OFFCURVE",
"461 320 CURVE",
"465 320 OFFCURVE",
"469 321 OFFCURVE",
"473 323 CURVE SMOOTH",
"536 348 OFFCURVE",
"619 417 OFFCURVE",
"619 492 CURVE SMOOTH",
"619 562 OFFCURVE",
"536 588 OFFCURVE",
"484 594 CURVE SMOOTH",
"469 596 OFFCURVE",
"452 597 OFFCURVE",
"438 597 CURVE SMOOTH",
"309 597 OFFCURVE",
"154 532 OFFCURVE",
"154 387 CURVE SMOOTH",
"154 242 OFFCURVE",
"337 120 OFFCURVE",
"336 81 CURVE SMOOTH",
"334 36 OFFCURVE",
"268 26 OFFCURVE",
"218 26 CURVE SMOOTH",
"202 26 OFFCURVE",
"189 27 OFFCURVE",
"179 28 CURVE SMOOTH",
"152 31 OFFCURVE",
"131 48 OFFCURVE",
"108 48 CURVE SMOOTH",
"104 48 OFFCURVE",
"101 47 OFFCURVE",
"101 42 CURVE SMOOTH",
"101 5 OFFCURVE",
"203 -25 OFFCURVE",
"228 -28 CURVE SMOOTH",
"236 -29 OFFCURVE",
"244 -29 OFFCURVE",
"255 -29 CURVE SMOOTH"
);
}
);
width = 448;
}
);
note = S;
unicode = 0053;
},
{
glyphname = Germandbls;
lastChange = "2021-09-02 13:45:16 +0000";
layers = (
{
background = {
paths = (
{
closed = 1;
nodes = (
"39 -114 OFFCURVE",
"51 -101 OFFCURVE",
"58 -85 CURVE",
"186 152 OFFCURVE",
"291 380 OFFCURVE",
"416 521 CURVE SMOOTH",
"448 557 OFFCURVE",
"480 570 OFFCURVE",
"514 570 CURVE SMOOTH",
"552 570 OFFCURVE",
"569 551 OFFCURVE",
"569 525 CURVE SMOOTH",
"569 484 OFFCURVE",
"527 424 OFFCURVE",
"451 387 CURVE SMOOTH",
"392 358 OFFCURVE",
"338 346 OFFCURVE",
"338 291 CURVE SMOOTH",
"338 207 OFFCURVE",
"418 181 OFFCURVE",
"418 92 CURVE SMOOTH",
"418 31 OFFCURVE",
"329 -8 OFFCURVE",
"262 -8 CURVE SMOOTH",
"222 -8 OFFCURVE",
"190 6 OFFCURVE",
"190 38 CURVE SMOOTH",
"190 68 OFFCURVE",
"238 95 OFFCURVE",
"256 109 CURVE SMOOTH",
"264 115 OFFCURVE",
"268 119 OFFCURVE",
"268 121 CURVE SMOOTH",
"268 122 OFFCURVE",
"267 122 OFFCURVE",
"265 122 CURVE SMOOTH",
"261 122 OFFCURVE",
"253 120 OFFCURVE",
"244 117 CURVE SMOOTH",
"218 107 OFFCURVE",
"160 78 OFFCURVE",
"160 43 CURVE SMOOTH",
"160 6 OFFCURVE",
"190 -18 OFFCURVE",
"226 -25 CURVE SMOOTH",
"252 -30 OFFCURVE",
"277 -32 OFFCURVE",
"301 -32 CURVE SMOOTH",
"404 -32 OFFCURVE",
"480 13 OFFCURVE",
"480 91 CURVE SMOOTH",
"480 108 OFFCURVE",
"477 127 OFFCURVE",
"469 147 CURVE SMOOTH",
"451 193 OFFCURVE",
"434 206 OFFCURVE",
"402 263 CURVE SMOOTH",
"394 277 OFFCURVE",
"390 290 OFFCURVE",
"390 301 CURVE SMOOTH",
"390 335 OFFCURVE",
"424 354 OFFCURVE",
"460 370 CURVE SMOOTH",
"557 414 OFFCURVE",
"624 481 OFFCURVE",
"624 525 CURVE SMOOTH",
"624 569 OFFCURVE",
"556 595 OFFCURVE",
"492 595 CURVE SMOOTH",
"459 595 OFFCURVE",
"427 588 OFFCURVE",
"405 574 CURVE SMOOTH",
"358 544 OFFCURVE",
"133 160 OFFCURVE",
"48 -29 CURVE SMOOTH",
"31 -67 OFFCURVE",
"24 -90 OFFCURVE",
"24 -102 CURVE SMOOTH",
"24 -111 OFFCURVE",
"27 -114 OFFCURVE",
"31 -114 CURVE SMOOTH"
);
}
);
};
layerId = "5B3E1226-E0D0-4C23-AF14-DEF1E2C801D3";
paths = (
{
closed = 1;
nodes = (
"39 -99 OFFCURVE",
"51 -86 OFFCURVE",
"58 -70 CURVE",
"186 167 OFFCURVE",
"291 395 OFFCURVE",
"416 536 CURVE SMOOTH",
"448 572 OFFCURVE",
"480 585 OFFCURVE",
"514 585 CURVE SMOOTH",
"552 585 OFFCURVE",
"569 566 OFFCURVE",
"569 540 CURVE SMOOTH",
"569 499 OFFCURVE",
"527 439 OFFCURVE",
"451 402 CURVE SMOOTH",
"392 373 OFFCURVE",
"338 361 OFFCURVE",
"338 306 CURVE SMOOTH",
"338 222 OFFCURVE",
"418 196 OFFCURVE",
"418 107 CURVE SMOOTH",
"418 46 OFFCURVE",
"329 7 OFFCURVE",
"262 7 CURVE SMOOTH",
"222 7 OFFCURVE",
"190 21 OFFCURVE",
"190 53 CURVE SMOOTH",
"190 83 OFFCURVE",
"238 110 OFFCURVE",
"256 124 CURVE SMOOTH",
"264 130 OFFCURVE",
"268 134 OFFCURVE",
"268 136 CURVE SMOOTH",
"268 137 OFFCURVE",
"267 137 OFFCURVE",
"265 137 CURVE SMOOTH",
"261 137 OFFCURVE",
"253 135 OFFCURVE",
"244 132 CURVE SMOOTH",
"218 122 OFFCURVE",
"160 93 OFFCURVE",
"160 58 CURVE SMOOTH",
"160 21 OFFCURVE",
"190 -3 OFFCURVE",
"226 -10 CURVE SMOOTH",
"252 -15 OFFCURVE",
"277 -17 OFFCURVE",
"301 -17 CURVE SMOOTH",
"404 -17 OFFCURVE",
"480 28 OFFCURVE",
"480 106 CURVE SMOOTH",
"480 123 OFFCURVE",
"477 142 OFFCURVE",
"469 162 CURVE SMOOTH",
"451 209 OFFCURVE",
"434 222 OFFCURVE",
"402 278 CURVE SMOOTH",
"394 292 OFFCURVE",
"390 305 OFFCURVE",
"390 316 CURVE SMOOTH",
"390 350 OFFCURVE",
"424 369 OFFCURVE",
"460 385 CURVE SMOOTH",
"557 429 OFFCURVE",
"624 496 OFFCURVE",
"624 540 CURVE SMOOTH",
"624 584 OFFCURVE",
"556 610 OFFCURVE",
"492 610 CURVE SMOOTH",
"459 610 OFFCURVE",
"427 603 OFFCURVE",
"405 589 CURVE SMOOTH",
"358 559 OFFCURVE",
"133 175 OFFCURVE",
"48 -14 CURVE SMOOTH",
"31 -52 OFFCURVE",
"24 -75 OFFCURVE",
"24 -87 CURVE SMOOTH",
"24 -96 OFFCURVE",
"27 -99 OFFCURVE",
"31 -99 CURVE SMOOTH"
);
}
);
width = 518;
}
);
unicode = 1E9E;
},
{
glyphname = Schwa;
lastChange = "2021-09-02 22:20:13 +0000";
layers = (
{
hints = (
{
horizontal = 1;
place = "{607, -29}";
type = Stem;
},
{
horizontal = 1;
place = "{10, -24}";
type = Stem;
},
{
place = "{509, -56}";
type = Stem;
},
{
place = "{11, -40}";
type = Stem;
}
);
layerId = "5B3E1226-E0D0-4C23-AF14-DEF1E2C801D3";
paths = (
{
closed = 1;
nodes = (
"308 610 OFFCURVE",
"127 504 OFFCURVE",
"41 416 CURVE SMOOTH",
"29 404 OFFCURVE",
"31 388 OFFCURVE",
"37 393 CURVE SMOOTH",
"85 430 OFFCURVE",
"295 581 OFFCURVE",
"451 579 CURVE SMOOTH",
"505 578 OFFCURVE",
"559 549 OFFCURVE",
"565 490 CURVE SMOOTH",
"580 324 OFFCURVE",
"335 6 OFFCURVE",
"165 10 CURVE SMOOTH",
"143 10 OFFCURVE",
"125 20 OFFCURVE",
"123 43 CURVE SMOOTH",
"117 104 OFFCURVE",
"229 317 OFFCURVE",
"549 340 CURVE",
"548 347 OFFCURVE",
"570 362 OFFCURVE",
"565 362 CURVE SMOOTH",
"173 362 OFFCURVE",
"79 109 OFFCURVE",
"83 64 CURVE SMOOTH",
"87 17 OFFCURVE",
"127 -13 OFFCURVE",
"172 -14 CURVE SMOOTH",
"351 -17 OFFCURVE",
"637 276 OFFCURVE",
"621 458 CURVE SMOOTH",
"612 560 OFFCURVE",
"534 606 OFFCURVE",
"440 607 CURVE SMOOTH"
);
}
);
width = 554;
}
);
unicode = 018F;
},
{
glyphname = T;
lastChange = "2021-09-02 13:50:30 +0000";
layers = (
{
anchors = (
{
name = bottom;
position = "{99, -51}";
},
{
name = center;
position = "{246, 319}";
},
{
name = top;
position = "{413, 610}";
}
);
background = {
paths = (
{
closed = 1;
nodes = (
"140 -75 OFFCURVE",
"143 -68 OFFCURVE",
"143 -61 CURVE SMOOTH",
"143 -56 OFFCURVE",
"142 -52 OFFCURVE",
"138 -52 CURVE SMOOTH",
"126 -52 OFFCURVE",
"126 -35 OFFCURVE",
"126 -30 CURVE SMOOTH",
"126 37 OFFCURVE",
"200 159 OFFCURVE",
"222 202 CURVE SMOOTH",
"274 304 OFFCURVE",
"336 389 OFFCURVE",
"396 486 CURVE SMOOTH",
"401 494 OFFCURVE",
"407 504 OFFCURVE",
"407 515 CURVE SMOOTH",
"406 529 OFFCURVE",
"389 532 OFFCURVE",
"378 532 CURVE SMOOTH",
"368 532 OFFCURVE",
"349 530 OFFCURVE",
"342 521 CURVE SMOOTH",
"322 496 OFFCURVE",
"305 460 OFFCURVE",
"289 432 CURVE SMOOTH",
"237 342 OFFCURVE",
"93 89 OFFCURVE",
"93 -23 CURVE SMOOTH",
"93 -51 OFFCURVE",
"103 -75 OFFCURVE",
"133 -75 CURVE SMOOTH"
);
},
{
closed = 1;
nodes = (
"74 495 OFFCURVE",
"191 516 OFFCURVE",
"196 538 CURVE",
"297 550 OFFCURVE",
"401 552 OFFCURVE",
"502 552 CURVE SMOOTH",
"559 552 OFFCURVE",
"618 552 OFFCURVE",
"673 543 CURVE SMOOTH",
"691 540 OFFCURVE",
"710 537 OFFCURVE",
"728 537 CURVE SMOOTH",
"736 537 OFFCURVE",
"751 538 OFFCURVE",
"751 545 CURVE SMOOTH",
"751 558 OFFCURVE",
"715 565 OFFCURVE",
"707 567 CURVE SMOOTH",
"610 586 OFFCURVE",
"501 587 OFFCURVE",
"399 587 CURVE SMOOTH",
"344 587 LINE SMOOTH",
"306 587 OFFCURVE",
"15 587 OFFCURVE",
"15 531 CURVE SMOOTH",
"15 506 OFFCURVE",
"26 495 OFFCURVE",
"52 495 CURVE SMOOTH"
);
}
);
};
layerId = "5B3E1226-E0D0-4C23-AF14-DEF1E2C801D3";
paths = (
{
closed = 1;
nodes = (
"140 -60 OFFCURVE",
"143 -53 OFFCURVE",
"143 -46 CURVE SMOOTH",
"143 -41 OFFCURVE",
"142 -37 OFFCURVE",
"138 -37 CURVE SMOOTH",
"126 -37 OFFCURVE",
"126 -20 OFFCURVE",
"126 -15 CURVE SMOOTH",
"126 52 OFFCURVE",
"200 174 OFFCURVE",
"222 217 CURVE SMOOTH",
"274 319 OFFCURVE",
"336 404 OFFCURVE",
"396 501 CURVE SMOOTH",
"401 509 OFFCURVE",
"407 519 OFFCURVE",
"407 530 CURVE SMOOTH",
"407 544 OFFCURVE",
"389 547 OFFCURVE",
"378 547 CURVE SMOOTH",
"368 547 OFFCURVE",
"349 545 OFFCURVE",
"342 536 CURVE SMOOTH",
"322 511 OFFCURVE",
"305 475 OFFCURVE",
"289 447 CURVE SMOOTH",
"237 357 OFFCURVE",
"93 104 OFFCURVE",
"93 -8 CURVE SMOOTH",
"93 -36 OFFCURVE",
"103 -60 OFFCURVE",
"133 -60 CURVE SMOOTH"
);
},
{
closed = 1;
nodes = (
"74 510 OFFCURVE",
"191 531 OFFCURVE",
"196 553 CURVE",
"297 565 OFFCURVE",
"401 567 OFFCURVE",
"502 567 CURVE SMOOTH",
"559 567 OFFCURVE",
"618 567 OFFCURVE",
"673 558 CURVE SMOOTH",
"691 555 OFFCURVE",
"710 552 OFFCURVE",
"728 552 CURVE SMOOTH",
"736 552 OFFCURVE",
"751 553 OFFCURVE",
"751 560 CURVE SMOOTH",
"751 571 OFFCURVE",
"727 578 OFFCURVE",
"706 582 CURVE SMOOTH",
"606 602 OFFCURVE",
"491 602 OFFCURVE",
"399 602 CURVE SMOOTH",
"344 602 LINE SMOOTH",
"306 602 OFFCURVE",
"15 602 OFFCURVE",
"15 546 CURVE SMOOTH",
"15 521 OFFCURVE",
"26 510 OFFCURVE",
"52 510 CURVE SMOOTH"
);
}
);
width = 390;
}
);
note = T;
unicode = 0054;
},
{
glyphname = U;
lastChange = "2021-09-02 13:45:16 +0000";
layers = (
{
anchors = (
{
name = bottom;
position = "{246, 0}";
},
{
name = ogonek;
position = "{443, 10}";
},
{
name = top;
position = "{435, 610}";
},
{
name = topright;
position = "{606, 610}";
}
);
background = {
paths = (
{
closed = 1;
nodes = (
"473 -65 OFFCURVE",
"478 -63 OFFCURVE",
"478 -59 CURVE SMOOTH",
"478 -57 LINE",
"461 -25 OFFCURVE",
"452 15 OFFCURVE",
"452 62 CURVE SMOOTH",
"452 157 OFFCURVE",
"488 279 OFFCURVE",
"558 415 CURVE SMOOTH",
"605 506 OFFCURVE",
"651 569 OFFCURVE",
"651 576 CURVE SMOOTH",
"651 592 OFFCURVE",
"619 596 OFFCURVE",
"609 596 CURVE SMOOTH",
"592 596 OFFCURVE",
"578 592 OFFCURVE",
"568 577 CURVE SMOOTH",
"546 544 OFFCURVE",
"530 499 OFFCURVE",
"512 463 CURVE SMOOTH",
"445 329 OFFCURVE",
"273 28 OFFCURVE",
"101 28 CURVE SMOOTH",
"68 28 OFFCURVE",
"61 58 OFFCURVE",
"61 84 CURVE SMOOTH",
"61 215 OFFCURVE",
"206 423 OFFCURVE",
"273 518 CURVE SMOOTH",
"284 534 OFFCURVE",
"306 555 OFFCURVE",
"306 569 CURVE SMOOTH",
"306 577 OFFCURVE",
"298 583 OFFCURVE",
"275 583 CURVE SMOOTH",
"225 583 OFFCURVE",
"210 540 OFFCURVE",
"183 500 CURVE SMOOTH",
"133 419 OFFCURVE",
"22 184 OFFCURVE",
"22 95 CURVE SMOOTH",
"22 41 OFFCURVE",
"51 -3 OFFCURVE",
"108 -3 CURVE SMOOTH",
"204 -3 OFFCURVE",
"352 148 OFFCURVE",
"413 217 CURVE",
"408 179 OFFCURVE",
"404 141 OFFCURVE",
"404 102 CURVE SMOOTH",
"404 65 OFFCURVE",
"414 -65 OFFCURVE",
"469 -65 CURVE SMOOTH"
);
}
);
};
layerId = "5B3E1226-E0D0-4C23-AF14-DEF1E2C801D3";
paths = (
{
closed = 1;
nodes = (
"473 -50 OFFCURVE",
"478 -48 OFFCURVE",
"478 -44 CURVE SMOOTH",
"478 -42 LINE",
"461 -10 OFFCURVE",
"452 30 OFFCURVE",
"452 77 CURVE SMOOTH",
"452 172 OFFCURVE",
"488 294 OFFCURVE",
"558 430 CURVE SMOOTH",
"605 521 OFFCURVE",
"651 584 OFFCURVE",
"651 591 CURVE SMOOTH",
"651 607 OFFCURVE",
"619 611 OFFCURVE",
"609 611 CURVE SMOOTH",
"592 611 OFFCURVE",
"578 607 OFFCURVE",
"568 592 CURVE SMOOTH",
"546 559 OFFCURVE",
"530 514 OFFCURVE",
"512 478 CURVE SMOOTH",
"445 344 OFFCURVE",
"273 43 OFFCURVE",
"101 43 CURVE SMOOTH",
"68 43 OFFCURVE",
"61 73 OFFCURVE",
"61 99 CURVE SMOOTH",
"61 230 OFFCURVE",
"206 438 OFFCURVE",
"273 533 CURVE SMOOTH",
"284 549 OFFCURVE",
"306 570 OFFCURVE",
"306 584 CURVE SMOOTH",
"306 592 OFFCURVE",
"298 598 OFFCURVE",
"275 598 CURVE SMOOTH",
"224 598 OFFCURVE",
"207 551 OFFCURVE",
"183 514 CURVE SMOOTH",
"130 430 OFFCURVE",
"22 197 OFFCURVE",
"22 110 CURVE SMOOTH",
"22 56 OFFCURVE",
"51 12 OFFCURVE",
"108 12 CURVE SMOOTH",
"204 12 OFFCURVE",
"352 163 OFFCURVE",
"413 232 CURVE",
"408 194 OFFCURVE",
"404 156 OFFCURVE",
"404 117 CURVE SMOOTH",
"404 80 OFFCURVE",
"414 -50 OFFCURVE",
"469 -50 CURVE SMOOTH"
);
}
);
width = 492;
}
);
note = U;
unicode = 0055;
},
{
glyphname = V;
lastChange = "2021-09-02 13:45:16 +0000";
layers = (
{
background = {
paths = (
{
closed = 1;
nodes = (
"119 -10 OFFCURVE",
"159 16 OFFCURVE",
"165 33 CURVE SMOOTH",
"197 126 OFFCURVE",
"336 323 OFFCURVE",
"458 457 CURVE SMOOTH",
"473 472 OFFCURVE",
"597 579 OFFCURVE",
"597 608 CURVE SMOOTH",
"597 696 OFFCURVE",
"211 205 OFFCURVE",
"159 129 CURVE",
"169 179 OFFCURVE",
"170 234 OFFCURVE",
"170 285 CURVE SMOOTH",
"170 330 OFFCURVE",
"154 591 OFFCURVE",
"97 596 CURVE SMOOTH",
"85 597 OFFCURVE",
"44 570 OFFCURVE",
"51 560 CURVE SMOOTH",
"104 487 OFFCURVE",
"121 386 OFFCURVE",
"121 287 CURVE SMOOTH",
"121 223 OFFCURVE",
"114 159 OFFCURVE",
"106 104 CURVE SMOOTH",
"102 73 OFFCURVE",
"90 32 OFFCURVE",
"90 3 CURVE SMOOTH",
"90 -4 OFFCURVE",
"91 -10 OFFCURVE",
"100 -10 CURVE SMOOTH"
);
}
);
};
layerId = "5B3E1226-E0D0-4C23-AF14-DEF1E2C801D3";
paths = (
{
closed = 1;
nodes = (
"119 5 OFFCURVE",
"159 31 OFFCURVE",
"165 48 CURVE SMOOTH",
"197 141 OFFCURVE",
"336 338 OFFCURVE",
"458 472 CURVE SMOOTH",
"473 488 OFFCURVE",
"597 594 OFFCURVE",
"597 623 CURVE SMOOTH",
"597 630 OFFCURVE",
"594 634 OFFCURVE",
"590 634 CURVE SMOOTH",
"536 634 OFFCURVE",
"207 214 OFFCURVE",
"159 144 CURVE",
"169 194 OFFCURVE",
"170 249 OFFCURVE",
"170 300 CURVE SMOOTH",
"170 345 OFFCURVE",
"154 606 OFFCURVE",
"97 611 CURVE SMOOTH",
"85 612 OFFCURVE",
"44 585 OFFCURVE",
"51 575 CURVE SMOOTH",
"104 502 OFFCURVE",
"121 401 OFFCURVE",
"121 302 CURVE SMOOTH",
"121 238 OFFCURVE",
"114 174 OFFCURVE",
"106 119 CURVE SMOOTH",
"102 90 OFFCURVE",
"90 47 OFFCURVE",
"90 18 CURVE SMOOTH",
"90 11 OFFCURVE",
"91 5 OFFCURVE",
"100 5 CURVE SMOOTH"
);
}
);
width = 336;
}
);
note = V;
unicode = 0056;
},
{
glyphname = W;
lastChange = "2021-09-02 13:45:16 +0000";
layers = (
{
anchors = (
{
name = bottom;
position = "{434, 0}";
},
{
name = top;
position = "{619, 610}";
}
);
background = {
paths = (
{
closed = 1;
nodes = (
"162 -9 OFFCURVE",
"264 87 OFFCURVE",
"352 180 CURVE SMOOTH",
"406 237 OFFCURVE",
"456 293 OFFCURVE",
"490 325 CURVE",
"487 275 OFFCURVE",
"480 226 OFFCURVE",
"480 176 CURVE SMOOTH",
"480 95 OFFCURVE",
"496 0 OFFCURVE",
"597 0 CURVE SMOOTH",
"714 0 OFFCURVE",
"865 176 OFFCURVE",
"935 327 CURVE SMOOTH",
"951 362 OFFCURVE",
"971 428 OFFCURVE",
"971 486 CURVE SMOOTH",
"971 546 OFFCURVE",
"950 597 OFFCURVE",
"882 597 CURVE SMOOTH",
"874 597 OFFCURVE",
"857 597 OFFCURVE",
"857 585 CURVE SMOOTH",
"857 573 OFFCURVE",
"871 574 OFFCURVE",
"878 573 CURVE SMOOTH",
"906 567 OFFCURVE",
"916 539 OFFCURVE",
"916 504 CURVE SMOOTH",
"916 445 OFFCURVE",
"889 369 OFFCURVE",
"880 346 CURVE SMOOTH",
"821 201 OFFCURVE",
"698 28 OFFCURVE",
"593 28 CURVE SMOOTH",
"537 28 OFFCURVE",
"528 89 OFFCURVE",
"528 132 CURVE SMOOTH",
"528 237 OFFCURVE",
"563 326 OFFCURVE",
"592 421 CURVE SMOOTH",
"596 433 OFFCURVE",
"606 455 OFFCURVE",
"606 472 CURVE SMOOTH",
"606 478 OFFCURVE",
"604 484 OFFCURVE",
"601 488 CURVE SMOOTH",
"592 500 OFFCURVE",
"572 504 OFFCURVE",
"559 504 CURVE SMOOTH",
"530 504 OFFCURVE",
"514 447 OFFCURVE",
"500 425 CURVE SMOOTH",
"454 349 OFFCURVE",
"393 273 OFFCURVE",
"328 205 CURVE SMOOTH",
"283 158 OFFCURVE",
"156 30 OFFCURVE",
"94 30 CURVE SMOOTH",
"67 30 OFFCURVE",
"60 57 OFFCURVE",
"60 79 CURVE SMOOTH",
"60 160 OFFCURVE",
"105 250 OFFCURVE",
"160 332 CURVE SMOOTH",
"251 467 OFFCURVE",
"329 542 OFFCURVE",
"372 578 CURVE SMOOTH",
"378 583 OFFCURVE",
"381 587 OFFCURVE",
"381 589 CURVE SMOOTH",
"381 592 OFFCURVE",
"377 593 OFFCURVE",
"372 593 CURVE SMOOTH",
"357 593 OFFCURVE",
"325 583 OFFCURVE",
"315 577 CURVE SMOOTH",
"184 506 OFFCURVE",
"22 226 OFFCURVE",
"22 94 CURVE SMOOTH",
"22 51 OFFCURVE",
"34 -9 OFFCURVE",
"89 -9 CURVE SMOOTH"
);
}
);
};
layerId = "5B3E1226-E0D0-4C23-AF14-DEF1E2C801D3";
paths = (
{
closed = 1;
nodes = (
"162 6 OFFCURVE",
"264 102 OFFCURVE",
"352 195 CURVE SMOOTH",
"412 259 OFFCURVE",
"454 302 OFFCURVE",
"490 340 CURVE",
"487 290 OFFCURVE",
"480 241 OFFCURVE",
"480 191 CURVE SMOOTH",
"480 110 OFFCURVE",
"496 15 OFFCURVE",
"597 15 CURVE SMOOTH",
"714 15 OFFCURVE",
"865 191 OFFCURVE",
"935 342 CURVE SMOOTH",
"951 377 OFFCURVE",
"971 443 OFFCURVE",
"971 501 CURVE SMOOTH",
"971 561 OFFCURVE",
"950 612 OFFCURVE",
"882 612 CURVE SMOOTH",
"874 612 OFFCURVE",
"857 612 OFFCURVE",
"857 600 CURVE SMOOTH",
"857 588 OFFCURVE",
"871 589 OFFCURVE",
"878 588 CURVE SMOOTH",
"906 582 OFFCURVE",
"916 554 OFFCURVE",
"916 519 CURVE SMOOTH",
"916 460 OFFCURVE",
"889 384 OFFCURVE",
"880 361 CURVE SMOOTH",
"821 216 OFFCURVE",
"698 43 OFFCURVE",
"593 43 CURVE SMOOTH",
"537 43 OFFCURVE",
"528 104 OFFCURVE",
"528 147 CURVE SMOOTH",
"528 252 OFFCURVE",
"563 341 OFFCURVE",
"592 436 CURVE SMOOTH",
"596 448 OFFCURVE",
"606 470 OFFCURVE",
"606 487 CURVE SMOOTH",
"606 493 OFFCURVE",
"604 499 OFFCURVE",
"601 503 CURVE SMOOTH",
"592 515 OFFCURVE",
"572 519 OFFCURVE",
"559 519 CURVE SMOOTH",
"530 519 OFFCURVE",
"514 462 OFFCURVE",
"500 440 CURVE SMOOTH",
"454 364 OFFCURVE",
"393 288 OFFCURVE",
"328 220 CURVE SMOOTH",
"283 173 OFFCURVE",
"156 45 OFFCURVE",
"94 45 CURVE SMOOTH",
"67 45 OFFCURVE",
"60 72 OFFCURVE",
"60 94 CURVE SMOOTH",
"60 175 OFFCURVE",
"105 265 OFFCURVE",
"160 347 CURVE SMOOTH",
"251 482 OFFCURVE",
"329 557 OFFCURVE",
"372 593 CURVE SMOOTH",
"378 598 OFFCURVE",
"381 602 OFFCURVE",
"381 604 CURVE SMOOTH",
"381 607 OFFCURVE",
"377 608 OFFCURVE",
"372 608 CURVE SMOOTH",
"357 608 OFFCURVE",
"325 598 OFFCURVE",
"315 592 CURVE SMOOTH",
"184 521 OFFCURVE",
"22 241 OFFCURVE",
"22 109 CURVE SMOOTH",
"22 66 OFFCURVE",
"34 6 OFFCURVE",
"89 6 CURVE SMOOTH"
);
}
);
width = 867;
}
);
note = W;
unicode = 0057;
},
{
glyphname = X;
lastChange = "2021-09-02 13:45:16 +0000";
layers = (
{
background = {
paths = (
{
closed = 1;
nodes = (
"37 -18 OFFCURVE",
"48 -7 OFFCURVE",
"50 -4 CURVE",
"47 2 OFFCURVE",
"45 10 OFFCURVE",
"45 17 CURVE SMOOTH",
"45 91 OFFCURVE",
"182 216 OFFCURVE",
"235 268 CURVE",
"252 195 OFFCURVE",
"296 -6 OFFCURVE",
"397 -6 CURVE SMOOTH",
"449 -6 OFFCURVE",
"565 101 OFFCURVE",
"565 148 CURVE SMOOTH",
"565 151 OFFCURVE",
"563 155 OFFCURVE",
"559 155 CURVE SMOOTH",
"543 155 OFFCURVE",
"514 93 OFFCURVE",
"474 64 CURVE SMOOTH",
"462 55 OFFCURVE",
"443 40 OFFCURVE",
"429 40 CURVE SMOOTH",
"344 40 OFFCURVE",
"297 251 OFFCURVE",
"283 314 CURVE",
"359 384 OFFCURVE",
"439 451 OFFCURVE",
"522 513 CURVE SMOOTH",
"552 536 OFFCURVE",
"585 556 OFFCURVE",
"615 579 CURVE SMOOTH",
"620 583 OFFCURVE",
"624 587 OFFCURVE",
"624 591 CURVE SMOOTH",
"624 594 OFFCURVE",
"621 596 OFFCURVE",
"613 596 CURVE SMOOTH",
"601 596 OFFCURVE",
"571 587 OFFCURVE",
"543 569 CURVE SMOOTH",
"451 509 OFFCURVE",
"309 374 OFFCURVE",
"276 345 CURVE",
"263 415 OFFCURVE",
"250 495 OFFCURVE",
"234 562 CURVE SMOOTH",
"231 575 OFFCURVE",
"226 581 OFFCURVE",
"212 581 CURVE SMOOTH",
"191 581 OFFCURVE",
"175 575 OFFCURVE",
"175 551 CURVE SMOOTH",
"175 525 OFFCURVE",
"219 337 OFFCURVE",
"228 301 CURVE",
"173 251 OFFCURVE",
"4 96 OFFCURVE",
"4 19 CURVE SMOOTH",
"4 0 OFFCURVE",
"10 -18 OFFCURVE",
"32 -18 CURVE SMOOTH"
);
}
);
};
layerId = "5B3E1226-E0D0-4C23-AF14-DEF1E2C801D3";
paths = (
{
closed = 1;
nodes = (
"37 -3 OFFCURVE",
"48 8 OFFCURVE",
"50 11 CURVE",
"47 17 OFFCURVE",
"45 25 OFFCURVE",
"45 32 CURVE SMOOTH",
"45 106 OFFCURVE",
"182 231 OFFCURVE",
"235 283 CURVE",
"252 210 OFFCURVE",
"296 9 OFFCURVE",
"397 9 CURVE SMOOTH",
"449 9 OFFCURVE",
"565 116 OFFCURVE",
"565 163 CURVE SMOOTH",
"565 166 OFFCURVE",
"563 170 OFFCURVE",
"559 170 CURVE SMOOTH",
"543 170 OFFCURVE",
"514 108 OFFCURVE",
"474 79 CURVE SMOOTH",
"463 71 OFFCURVE",
"444 55 OFFCURVE",
"429 55 CURVE SMOOTH",
"344 55 OFFCURVE",
"297 266 OFFCURVE",
"283 329 CURVE",
"359 399 OFFCURVE",
"439 466 OFFCURVE",
"522 528 CURVE SMOOTH",
"547 547 OFFCURVE",
"590 575 OFFCURVE",
"615 594 CURVE SMOOTH",
"620 598 OFFCURVE",
"624 602 OFFCURVE",
"624 606 CURVE SMOOTH",
"624 609 OFFCURVE",
"621 611 OFFCURVE",
"613 611 CURVE SMOOTH",
"601 611 OFFCURVE",
"571 602 OFFCURVE",
"543 584 CURVE SMOOTH",
"451 524 OFFCURVE",
"309 389 OFFCURVE",
"276 360 CURVE",
"263 430 OFFCURVE",
"250 510 OFFCURVE",
"234 577 CURVE SMOOTH",
"231 590 OFFCURVE",
"226 596 OFFCURVE",
"212 596 CURVE SMOOTH",
"191 596 OFFCURVE",
"175 590 OFFCURVE",
"175 566 CURVE SMOOTH",
"175 540 OFFCURVE",
"219 352 OFFCURVE",
"228 316 CURVE",
"173 266 OFFCURVE",
"4 111 OFFCURVE",
"4 34 CURVE SMOOTH",
"4 15 OFFCURVE",
"10 -3 OFFCURVE",
"32 -3 CURVE SMOOTH"
);
}
);
width = 531;
}
);
note = X;
unicode = 0058;
},
{
glyphname = Y;
lastChange = "2021-09-02 13:45:16 +0000";
layers = (
{
anchors = (
{
name = bottom;
position = "{172, -35}";
},
{
name = top;
position = "{352, 610}";
},
{
name = topleft;
position = "{20, 610}";
}
);
background = {
paths = (
{
closed = 1;
nodes = (
"191 -58 OFFCURVE",
"202 -48 OFFCURVE",
"202 -40 CURVE SMOOTH",
"202 -36 OFFCURVE",
"199 -33 OFFCURVE",
"192 -33 CURVE SMOOTH",
"171 -33 OFFCURVE",
"171 -34 OFFCURVE",
"171 -7 CURVE SMOOTH",
"171 143 OFFCURVE",
"487 458 OFFCURVE",
"611 544 CURVE SMOOTH",
"617 548 OFFCURVE",
"621 553 OFFCURVE",
"621 561 CURVE SMOOTH",
"621 579 OFFCURVE",
"601 600 OFFCURVE",
"583 600 CURVE SMOOTH",
"560 600 OFFCURVE",
"505 554 OFFCURVE",
"502 529 CURVE",
"420 453 OFFCURVE",
"352 362 OFFCURVE",
"280 277 CURVE",
"275 348 OFFCURVE",
"186 591 OFFCURVE",
"102 591 CURVE SMOOTH",
"85 591 OFFCURVE",
"61 580 OFFCURVE",
"61 560 CURVE SMOOTH",
"61 554 OFFCURVE",
"65 550 OFFCURVE",
"70 546 CURVE SMOOTH",
"133 501 OFFCURVE",
"154 426 OFFCURVE",
"164 426 CURVE SMOOTH",
"167 426 OFFCURVE",
"170 434 OFFCURVE",
"172 455 CURVE",
"206 407 OFFCURVE",
"244 342 OFFCURVE",
"244 281 CURVE SMOOTH",
"244 266 OFFCURVE",
"231 247 OFFCURVE",
"231 241 CURVE SMOOTH",
"231 233 OFFCURVE",
"235 228 OFFCURVE",
"235 220 CURVE SMOOTH",
"235 214 OFFCURVE",
"137 58 OFFCURVE",
"137 -11 CURVE SMOOTH",
"137 -39 OFFCURVE",
"149 -54 OFFCURVE",
"178 -57 CURVE SMOOTH"
);
}
);
};
layerId = "5B3E1226-E0D0-4C23-AF14-DEF1E2C801D3";
paths = (
{
closed = 1;
nodes = (
"191 -43 OFFCURVE",
"202 -33 OFFCURVE",
"202 -25 CURVE SMOOTH",
"202 -20 OFFCURVE",
"198 -18 OFFCURVE",
"188 -18 CURVE SMOOTH",
"171 -18 OFFCURVE",
"171 -17 OFFCURVE",
"171 8 CURVE SMOOTH",
"171 158 OFFCURVE",
"487 473 OFFCURVE",
"611 559 CURVE SMOOTH",
"617 563 OFFCURVE",
"621 568 OFFCURVE",
"621 576 CURVE SMOOTH",
"621 594 OFFCURVE",
"601 615 OFFCURVE",
"583 615 CURVE SMOOTH",
"560 615 OFFCURVE",
"505 569 OFFCURVE",
"502 544 CURVE",
"420 468 OFFCURVE",
"352 377 OFFCURVE",
"280 292 CURVE",
"275 363 OFFCURVE",
"186 606 OFFCURVE",
"102 606 CURVE SMOOTH",
"85 606 OFFCURVE",
"61 595 OFFCURVE",
"61 575 CURVE SMOOTH",
"61 569 OFFCURVE",
"65 565 OFFCURVE",
"70 561 CURVE SMOOTH",
"132 516 OFFCURVE",
"154 441 OFFCURVE",
"164 441 CURVE SMOOTH",
"167 441 OFFCURVE",
"170 449 OFFCURVE",
"172 470 CURVE",
"206 422 OFFCURVE",
"244 357 OFFCURVE",
"244 296 CURVE SMOOTH",
"244 281 OFFCURVE",
"231 262 OFFCURVE",
"231 256 CURVE SMOOTH",
"231 248 OFFCURVE",
"235 243 OFFCURVE",
"235 235 CURVE SMOOTH",
"235 229 OFFCURVE",
"137 73 OFFCURVE",
"137 4 CURVE SMOOTH",
"137 -24 OFFCURVE",
"149 -39 OFFCURVE",
"178 -42 CURVE SMOOTH"
);
}
);
width = 336;
}
);
note = Y;
unicode = 0059;
},
{
glyphname = Z;
lastChange = "2021-09-02 13:45:16 +0000";
layers = (
{
anchors = (
{
name = bottom;
position = "{325, 0}";
},
{
name = center;
position = "{325, 305}";
},
{
name = top;
position = "{442, 610}";
}
);
background = {
paths = (
{
closed = 1;
nodes = (
"594 -4 OFFCURVE",
"660 24 OFFCURVE",
"660 94 CURVE SMOOTH",
"660 157 OFFCURVE",
"597 210 OFFCURVE",
"536 210 CURVE SMOOTH",
"532 210 OFFCURVE",
"524 209 OFFCURVE",
"524 203 CURVE SMOOTH",
"524 189 OFFCURVE",
"618 146 OFFCURVE",
"618 82 CURVE SMOOTH",
"618 33 OFFCURVE",
"556 24 OFFCURVE",
"518 24 CURVE SMOOTH",
"392 24 OFFCURVE",
"255 78 OFFCURVE",
"129 73 CURVE SMOOTH",
"116 72 LINE",
"236 166 OFFCURVE",
"360 280 OFFCURVE",
"480 373 CURVE SMOOTH",
"538 419 OFFCURVE",
"599 457 OFFCURVE",
"660 499 CURVE SMOOTH",
"665 502 OFFCURVE",
"666 510 OFFCURVE",
"666 515 CURVE SMOOTH",
"666 541 OFFCURVE",
"650 561 OFFCURVE",
"627 571 CURVE SMOOTH",
"583 588 OFFCURVE",
"423 594 OFFCURVE",
"373 594 CURVE SMOOTH",
"305 594 OFFCURVE",
"157 575 OFFCURVE",
"117 509 CURVE SMOOTH",
"113 501 OFFCURVE",
"111 496 OFFCURVE",
"111 493 CURVE SMOOTH",
"111 489 OFFCURVE",
"113 488 OFFCURVE",
"117 488 CURVE SMOOTH",
"125 488 OFFCURVE",
"139 494 OFFCURVE",
"148 499 CURVE SMOOTH",
"211 533 OFFCURVE",
"285 539 OFFCURVE",
"356 539 CURVE SMOOTH",
"391 539 OFFCURVE",
"561 530 OFFCURVE",
"586 507 CURVE",
"438 384 OFFCURVE",
"292 257 OFFCURVE",
"137 142 CURVE SMOOTH",
"102 116 OFFCURVE",
"8 56 OFFCURVE",
"8 24 CURVE SMOOTH",
"8 21 OFFCURVE",
"9 18 OFFCURVE",
"11 15 CURVE SMOOTH",
"18 5 OFFCURVE",
"28 -3 OFFCURVE",
"40 -3 CURVE SMOOTH",
"53 -3 OFFCURVE",
"63 4 OFFCURVE",
"74 9 CURVE SMOOTH",
"89 16 OFFCURVE",
"121 17 OFFCURVE",
"142 17 CURVE SMOOTH",
"274 17 OFFCURVE",
"405 -4 OFFCURVE",
"534 -4 CURVE SMOOTH"
);
}
);
};
layerId = "5B3E1226-E0D0-4C23-AF14-DEF1E2C801D3";
paths = (
{
closed = 1;
nodes = (
"594 11 OFFCURVE",
"660 39 OFFCURVE",
"660 109 CURVE SMOOTH",
"660 172 OFFCURVE",
"597 225 OFFCURVE",
"536 225 CURVE SMOOTH",
"532 225 OFFCURVE",
"524 224 OFFCURVE",
"524 218 CURVE SMOOTH",
"524 204 OFFCURVE",
"618 161 OFFCURVE",
"618 97 CURVE SMOOTH",
"618 48 OFFCURVE",
"556 39 OFFCURVE",
"518 39 CURVE SMOOTH",
"402 39 OFFCURVE",
"276 89 OFFCURVE",
"159 89 CURVE SMOOTH",
"149 89 OFFCURVE",
"139 89 OFFCURVE",
"129 88 CURVE SMOOTH",
"116 87 LINE",
"236 181 OFFCURVE",
"356 291 OFFCURVE",
"481 389 CURVE SMOOTH",
"529 427 OFFCURVE",
"594 469 OFFCURVE",
"660 514 CURVE SMOOTH",
"665 517 OFFCURVE",
"666 525 OFFCURVE",
"666 530 CURVE SMOOTH",
"666 556 OFFCURVE",
"649 577 OFFCURVE",
"627 586 CURVE SMOOTH",
"584 603 OFFCURVE",
"421 609 OFFCURVE",
"373 609 CURVE SMOOTH",
"304 609 OFFCURVE",
"155 589 OFFCURVE",
"117 524 CURVE SMOOTH",
"114 519 OFFCURVE",
"111 510 OFFCURVE",
"111 508 CURVE SMOOTH",
"111 504 OFFCURVE",
"113 503 OFFCURVE",
"117 503 CURVE SMOOTH",
"125 503 OFFCURVE",
"139 509 OFFCURVE",
"148 514 CURVE SMOOTH",
"211 548 OFFCURVE",
"285 554 OFFCURVE",
"356 554 CURVE SMOOTH",
"391 554 OFFCURVE",
"561 545 OFFCURVE",
"586 522 CURVE",
"438 399 OFFCURVE",
"292 272 OFFCURVE",
"137 157 CURVE SMOOTH",
"102 131 OFFCURVE",
"8 71 OFFCURVE",
"8 39 CURVE SMOOTH",
"8 36 OFFCURVE",
"9 33 OFFCURVE",
"11 30 CURVE SMOOTH",
"18 20 OFFCURVE",
"28 12 OFFCURVE",
"40 12 CURVE SMOOTH",
"53 12 OFFCURVE",
"63 19 OFFCURVE",
"74 24 CURVE SMOOTH",
"89 31 OFFCURVE",
"121 32 OFFCURVE",
"142 32 CURVE SMOOTH",
"274 32 OFFCURVE",
"405 11 OFFCURVE",
"534 11 CURVE SMOOTH"
);
}
);
width = 649;
}
);
note = Z;
unicode = 005A;
},
{
glyphname = A.ornm;
lastChange = "2021-09-02 13:46:44 +0000";
layers = (
{
background = {
paths = (
{
closed = 1;
nodes = (
"79 -393 LINE",
"79 596 LINE",
"385 596 LINE",
"385 606 LINE",
"79 606 LINE",
"79 675 LINE",
"0 675 LINE",
"0 596 LINE",
"69 596 LINE",
"69 -393 LINE"
);
},
{
closed = 1;
nodes = (
"115 -393 LINE",
"125 -393 LINE",
"125 550 LINE",
"385 550 LINE",
"385 560 LINE",
"115 560 LINE"
);
},
{
closed = 1;
nodes = (
"10 606 LINE",
"10 665 LINE",
"69 665 LINE",
"69 606 LINE"
);
}
);
};
layerId = "5B3E1226-E0D0-4C23-AF14-DEF1E2C801D3";
paths = (
{
closed = 1;
nodes = (
"79 -393 LINE",
"79 596 LINE",
"385 596 LINE",
"385 606 LINE",
"79 606 LINE",
"79 675 LINE",
"0 675 LINE",
"0 596 LINE",
"69 596 LINE",
"69 -393 LINE"
);
},
{
closed = 1;
nodes = (
"125 -393 LINE",
"125 550 LINE",
"385 550 LINE",
"385 560 LINE",
"115 560 LINE",
"115 -393 LINE"
);
},
{
closed = 1;
nodes = (
"10 665 LINE",
"69 665 LINE",
"69 606 LINE",
"10 606 LINE"
);
}
);
width = 384;
}
);
note = A;
},
{
glyphname = B.ornm;
lastChange = "2021-09-02 13:46:44 +0000";
layers = (
{
background = {
paths = (
{
closed = 1;
nodes = (
"385 596 LINE",
"385 606 LINE",
"-1 606 LINE",
"-1 596 LINE"
);
},
{
closed = 1;
nodes = (
"385 550 LINE",
"385 560 LINE",
"-1 560 LINE",
"-1 550 LINE"
);
}
);
};
layerId = "5B3E1226-E0D0-4C23-AF14-DEF1E2C801D3";
paths = (
{
closed = 1;
nodes = (
"385 596 LINE",
"385 606 LINE",
"-1 606 LINE",
"-1 596 LINE"
);
},
{
closed = 1;
nodes = (
"385 550 LINE",
"385 560 LINE",
"-1 560 LINE",
"-1 550 LINE"
);
}
);
width = 384;
}
);
note = B;
},
{
glyphname = C.ornm;
lastChange = "2021-09-02 13:46:44 +0000";
layers = (
{
background = {
paths = (
{
closed = 1;
nodes = (
"315 -393 LINE",
"315 596 LINE",
"384 596 LINE",
"384 675 LINE",
"305 675 LINE",
"305 606 LINE",
"-1 606 LINE",
"-1 596 LINE",
"305 596 LINE",
"305 -393 LINE"
);
},
{
closed = 1;
nodes = (
"259 -393 LINE",
"269 -393 LINE",
"269 560 LINE",
"-1 560 LINE",
"-1 550 LINE",
"259 550 LINE"
);
},
{
closed = 1;
nodes = (
"315 606 LINE",
"315 665 LINE",
"374 665 LINE",
"374 606 LINE"
);
}
);
};
layerId = "5B3E1226-E0D0-4C23-AF14-DEF1E2C801D3";
paths = (
{
closed = 1;
nodes = (
"315 -393 LINE",
"315 596 LINE",
"384 596 LINE",
"384 675 LINE",
"305 675 LINE",
"305 606 LINE",
"-1 606 LINE",
"-1 596 LINE",
"305 596 LINE",
"305 -393 LINE"
);
},
{
closed = 1;
nodes = (
"269 -393 LINE",
"269 560 LINE",
"-1 560 LINE",
"-1 550 LINE",
"259 550 LINE",
"259 -393 LINE"
);
},
{
closed = 1;
nodes = (
"315 665 LINE",
"374 665 LINE",
"374 606 LINE",
"315 606 LINE"
);
}
);
width = 384;
}
);
note = C;
},
{
glyphname = D.ornm;
lastChange = "2021-09-02 13:46:44 +0000";
layers = (
{
background = {
paths = (
{
closed = 1;
nodes = (
"79 -277 LINE",
"79 -208 LINE",
"385 -208 LINE",
"385 -198 LINE",
"79 -198 LINE",
"79 783 LINE",
"69 783 LINE",
"69 -198 LINE",
"0 -198 LINE",
"0 -277 LINE"
);
},
{
closed = 1;
nodes = (
"10 -267 LINE",
"10 -208 LINE",
"69 -208 LINE",
"69 -267 LINE"
);
},
{
closed = 1;
nodes = (
"385 -162 LINE",
"385 -152 LINE",
"125 -152 LINE",
"125 783 LINE",
"115 783 LINE",
"115 -162 LINE"
);
}
);
};
layerId = "5B3E1226-E0D0-4C23-AF14-DEF1E2C801D3";
paths = (
{
closed = 1;
nodes = (
"79 -277 LINE",
"79 -208 LINE",
"385 -208 LINE",
"385 -198 LINE",
"79 -198 LINE",
"79 783 LINE",
"69 783 LINE",
"69 -198 LINE",
"0 -198 LINE",
"0 -277 LINE"
);
},
{
closed = 1;
nodes = (
"10 -208 LINE",
"69 -208 LINE",
"69 -267 LINE",
"10 -267 LINE"
);
},
{
closed = 1;
nodes = (
"385 -162 LINE",
"385 -152 LINE",
"125 -152 LINE",
"125 783 LINE",
"115 783 LINE",
"115 -162 LINE"
);
}
);
width = 384;
}
);
note = D;
},
{
glyphname = E.ornm;
lastChange = "2021-09-02 13:46:44 +0000";
layers = (
{
background = {
paths = (
{
closed = 1;
nodes = (
"385 -162 LINE",
"385 -152 LINE",
"-1 -152 LINE",
"-1 -162 LINE"
);
},
{
closed = 1;
nodes = (
"385 -208 LINE",
"385 -198 LINE",
"-1 -198 LINE",
"-1 -208 LINE"
);
}
);
};
layerId = "5B3E1226-E0D0-4C23-AF14-DEF1E2C801D3";
paths = (
{
closed = 1;
nodes = (
"385 -162 LINE",
"385 -152 LINE",
"-1 -152 LINE",
"-1 -162 LINE"
);
},
{
closed = 1;
nodes = (
"385 -208 LINE",
"385 -198 LINE",
"-1 -198 LINE",
"-1 -208 LINE"
);
}
);
width = 384;
}
);
note = E;
},
{
glyphname = F.ornm;
lastChange = "2021-09-02 13:46:44 +0000";
layers = (
{
background = {
paths = (
{
closed = 1;
nodes = (
"384 -277 LINE",
"384 -198 LINE",
"315 -198 LINE",
"315 783 LINE",
"305 783 LINE",
"305 -198 LINE",
"-1 -198 LINE",
"-1 -208 LINE",
"305 -208 LINE",
"305 -277 LINE"
);
},
{
closed = 1;
nodes = (
"315 -267 LINE",
"315 -208 LINE",
"374 -208 LINE",
"374 -267 LINE"
);
},
{
closed = 1;
nodes = (
"269 -162 LINE",
"269 783 LINE",
"259 783 LINE",
"259 -152 LINE",
"-1 -152 LINE",
"-1 -162 LINE"
);
}
);
};
layerId = "5B3E1226-E0D0-4C23-AF14-DEF1E2C801D3";
paths = (
{
closed = 1;
nodes = (
"384 -277 LINE",
"384 -198 LINE",
"315 -198 LINE",
"315 783 LINE",
"305 783 LINE",
"305 -198 LINE",
"-1 -198 LINE",
"-1 -208 LINE",
"305 -208 LINE",
"305 -277 LINE"
);
},
{
closed = 1;
nodes = (
"315 -208 LINE",
"374 -208 LINE",
"374 -267 LINE",
"315 -267 LINE"
);
},
{
closed = 1;
nodes = (
"269 -162 LINE",
"269 783 LINE",
"259 783 LINE",
"259 -152 LINE",
"-1 -152 LINE",
"-1 -162 LINE"
);
}
);
width = 384;
}
);
note = F;
},
{
glyphname = G.ornm;
lastChange = "2021-09-02 13:46:44 +0000";
layers = (
{
background = {
paths = (
{
closed = 1;
nodes = (
"7 583 OFFCURVE",
"14 589 OFFCURVE",
"16 596 CURVE",
"385 596 LINE",
"385 606 LINE",
"16 606 LINE",
"13 612 OFFCURVE",
"7 616 OFFCURVE",
"0 616 CURVE SMOOTH",
"-9 616 OFFCURVE",
"-16 609 OFFCURVE",
"-16 600 CURVE SMOOTH",
"-16 591 OFFCURVE",
"-9 583 OFFCURVE",
"0 583 CURVE SMOOTH"
);
},
{
closed = 1;
nodes = (
"7 537 OFFCURVE",
"14 543 OFFCURVE",
"16 550 CURVE",
"385 550 LINE",
"385 560 LINE",
"16 560 LINE",
"13 566 OFFCURVE",
"7 570 OFFCURVE",
"0 570 CURVE SMOOTH",
"-9 570 OFFCURVE",
"-16 563 OFFCURVE",
"-16 554 CURVE SMOOTH",
"-16 545 OFFCURVE",
"-9 537 OFFCURVE",
"0 537 CURVE SMOOTH"
);
}
);
};
layerId = "5B3E1226-E0D0-4C23-AF14-DEF1E2C801D3";
paths = (
{
closed = 1;
nodes = (
"7 583 OFFCURVE",
"14 589 OFFCURVE",
"16 596 CURVE",
"385 596 LINE",
"385 606 LINE",
"16 606 LINE",
"13 612 OFFCURVE",
"7 616 OFFCURVE",
"0 616 CURVE SMOOTH",
"-9 616 OFFCURVE",
"-16 609 OFFCURVE",
"-16 600 CURVE SMOOTH",
"-16 591 OFFCURVE",
"-9 583 OFFCURVE",
"0 583 CURVE SMOOTH"
);
},
{
closed = 1;
nodes = (
"7 537 OFFCURVE",
"14 543 OFFCURVE",
"16 550 CURVE",
"385 550 LINE",
"385 560 LINE",
"16 560 LINE",
"13 566 OFFCURVE",
"7 570 OFFCURVE",
"0 570 CURVE SMOOTH",
"-9 570 OFFCURVE",
"-16 563 OFFCURVE",
"-16 554 CURVE SMOOTH",
"-16 545 OFFCURVE",
"-9 537 OFFCURVE",
"0 537 CURVE SMOOTH"
);
}
);
width = 384;
}
);
note = G;
},
{
glyphname = H.ornm;
lastChange = "2021-09-02 13:46:44 +0000";
layers = (
{
background = {
paths = (
{
closed = 1;
nodes = (
"393 583 OFFCURVE",
"400 591 OFFCURVE",
"400 600 CURVE SMOOTH",
"400 609 OFFCURVE",
"393 616 OFFCURVE",
"384 616 CURVE SMOOTH",
"377 616 OFFCURVE",
"370 612 OFFCURVE",
"368 606 CURVE",
"-1 606 LINE",
"-1 596 LINE",
"367 596 LINE",
"369 589 OFFCURVE",
"376 583 OFFCURVE",
"384 583 CURVE SMOOTH"
);
},
{
closed = 1;
nodes = (
"393 537 OFFCURVE",
"400 545 OFFCURVE",
"400 554 CURVE SMOOTH",
"400 563 OFFCURVE",
"393 570 OFFCURVE",
"384 570 CURVE SMOOTH",
"377 570 OFFCURVE",
"370 566 OFFCURVE",
"368 560 CURVE",
"-1 560 LINE",
"-1 550 LINE",
"367 550 LINE",
"369 543 OFFCURVE",
"376 537 OFFCURVE",
"384 537 CURVE SMOOTH"
);
}
);
};
layerId = "5B3E1226-E0D0-4C23-AF14-DEF1E2C801D3";
paths = (
{
closed = 1;
nodes = (
"393 583 OFFCURVE",
"400 591 OFFCURVE",
"400 600 CURVE SMOOTH",
"400 609 OFFCURVE",
"393 616 OFFCURVE",
"384 616 CURVE SMOOTH",
"377 616 OFFCURVE",
"370 612 OFFCURVE",
"368 606 CURVE",
"-1 606 LINE",
"-1 596 LINE",
"367 596 LINE",
"369 589 OFFCURVE",
"376 583 OFFCURVE",
"384 583 CURVE SMOOTH"
);
},
{
closed = 1;
nodes = (
"393 537 OFFCURVE",
"400 545 OFFCURVE",
"400 554 CURVE SMOOTH",
"400 563 OFFCURVE",
"393 570 OFFCURVE",
"384 570 CURVE SMOOTH",
"377 570 OFFCURVE",
"370 566 OFFCURVE",
"368 560 CURVE",
"-1 560 LINE",
"-1 550 LINE",
"367 550 LINE",
"369 543 OFFCURVE",
"376 537 OFFCURVE",
"384 537 CURVE SMOOTH"
);
}
);
width = 384;
}
);
note = H;
},
{
glyphname = I.ornm;
lastChange = "2021-09-02 13:46:44 +0000";
layers = (
{
background = {
paths = (
{
closed = 1;
nodes = (
"7 -172 OFFCURVE",
"13 -168 OFFCURVE",
"16 -162 CURVE",
"385 -162 LINE",
"385 -152 LINE",
"16 -152 LINE",
"14 -145 OFFCURVE",
"7 -139 OFFCURVE",
"0 -139 CURVE SMOOTH",
"-9 -139 OFFCURVE",
"-16 -147 OFFCURVE",
"-16 -156 CURVE SMOOTH",
"-16 -165 OFFCURVE",
"-9 -172 OFFCURVE",
"0 -172 CURVE SMOOTH"
);
},
{
closed = 1;
nodes = (
"7 -218 OFFCURVE",
"13 -214 OFFCURVE",
"16 -208 CURVE",
"385 -208 LINE",
"385 -198 LINE",
"16 -198 LINE",
"14 -191 OFFCURVE",
"7 -185 OFFCURVE",
"0 -185 CURVE SMOOTH",
"-9 -185 OFFCURVE",
"-16 -193 OFFCURVE",
"-16 -202 CURVE SMOOTH",
"-16 -211 OFFCURVE",
"-9 -218 OFFCURVE",
"0 -218 CURVE SMOOTH"
);
}
);
};
layerId = "5B3E1226-E0D0-4C23-AF14-DEF1E2C801D3";
paths = (
{
closed = 1;
nodes = (
"7 -172 OFFCURVE",
"13 -168 OFFCURVE",
"16 -162 CURVE",
"385 -162 LINE",
"385 -152 LINE",
"16 -152 LINE",
"14 -145 OFFCURVE",
"7 -139 OFFCURVE",
"0 -139 CURVE SMOOTH",
"-9 -139 OFFCURVE",
"-16 -147 OFFCURVE",
"-16 -156 CURVE SMOOTH",
"-16 -165 OFFCURVE",
"-9 -172 OFFCURVE",
"0 -172 CURVE SMOOTH"
);
},
{
closed = 1;
nodes = (
"7 -218 OFFCURVE",
"13 -214 OFFCURVE",
"16 -208 CURVE",
"385 -208 LINE",
"385 -198 LINE",
"16 -198 LINE",
"14 -191 OFFCURVE",
"7 -185 OFFCURVE",
"0 -185 CURVE SMOOTH",
"-9 -185 OFFCURVE",
"-16 -193 OFFCURVE",
"-16 -202 CURVE SMOOTH",
"-16 -211 OFFCURVE",
"-9 -218 OFFCURVE",
"0 -218 CURVE SMOOTH"
);
}
);
width = 384;
}
);
note = I;
},
{
glyphname = J.ornm;
lastChange = "2021-09-02 13:46:44 +0000";
layers = (
{
background = {
paths = (
{
closed = 1;
nodes = (
"393 -172 OFFCURVE",
"400 -165 OFFCURVE",
"400 -156 CURVE SMOOTH",
"400 -147 OFFCURVE",
"393 -139 OFFCURVE",
"384 -139 CURVE SMOOTH",
"376 -139 OFFCURVE",
"369 -145 OFFCURVE",
"367 -152 CURVE",
"-1 -152 LINE",
"-1 -162 LINE",
"368 -162 LINE",
"370 -168 OFFCURVE",
"377 -172 OFFCURVE",
"384 -172 CURVE SMOOTH"
);
},
{
closed = 1;
nodes = (
"393 -218 OFFCURVE",
"400 -211 OFFCURVE",
"400 -202 CURVE SMOOTH",
"400 -193 OFFCURVE",
"393 -185 OFFCURVE",
"384 -185 CURVE SMOOTH",
"376 -185 OFFCURVE",
"369 -191 OFFCURVE",
"367 -198 CURVE",
"-1 -198 LINE",
"-1 -208 LINE",
"368 -208 LINE",
"370 -214 OFFCURVE",
"377 -218 OFFCURVE",
"384 -218 CURVE SMOOTH"
);
}
);
};
layerId = "5B3E1226-E0D0-4C23-AF14-DEF1E2C801D3";
paths = (
{
closed = 1;
nodes = (
"393 -172 OFFCURVE",
"400 -165 OFFCURVE",
"400 -156 CURVE SMOOTH",
"400 -147 OFFCURVE",
"393 -139 OFFCURVE",
"384 -139 CURVE SMOOTH",
"376 -139 OFFCURVE",
"369 -145 OFFCURVE",
"367 -152 CURVE",
"-1 -152 LINE",
"-1 -162 LINE",
"368 -162 LINE",
"370 -168 OFFCURVE",
"377 -172 OFFCURVE",
"384 -172 CURVE SMOOTH"
);
},
{
closed = 1;
nodes = (
"393 -218 OFFCURVE",
"400 -211 OFFCURVE",
"400 -202 CURVE SMOOTH",
"400 -193 OFFCURVE",
"393 -185 OFFCURVE",
"384 -185 CURVE SMOOTH",
"376 -185 OFFCURVE",
"369 -191 OFFCURVE",
"367 -198 CURVE",
"-1 -198 LINE",
"-1 -208 LINE",
"368 -208 LINE",
"370 -214 OFFCURVE",
"377 -218 OFFCURVE",
"384 -218 CURVE SMOOTH"
);
}
);
width = 384;
}
);
note = J;
},
{
glyphname = K.ornm;
lastChange = "2021-09-02 13:46:44 +0000";
layers = (
{
background = {
paths = (
{
closed = 1;
nodes = (
"115 -393 LINE",
"125 -393 LINE",
"125 135 LINE",
"116 135 LINE SMOOTH",
"91 137 OFFCURVE",
"71 158 OFFCURVE",
"71 184 CURVE SMOOTH",
"71 209 OFFCURVE",
"91 231 OFFCURVE",
"116 233 CURVE SMOOTH",
"125 233 LINE",
"125 783 LINE",
"115 783 LINE",
"115 243 LINE",
"84 240 OFFCURVE",
"61 215 OFFCURVE",
"61 184 CURVE SMOOTH",
"61 152 OFFCURVE",
"84 127 OFFCURVE",
"115 125 CURVE"
);
},
{
closed = 1;
nodes = (
"69 -393 LINE",
"79 -393 LINE",
"79 100 LINE",
"79 100 OFFCURVE",
"73 102 OFFCURVE",
"69 105 CURVE SMOOTH",
"44 122 OFFCURVE",
"27 150 OFFCURVE",
"27 183 CURVE SMOOTH",
"27 215 OFFCURVE",
"44 244 OFFCURVE",
"69 260 CURVE SMOOTH",
"79 266 LINE",
"79 783 LINE",
"69 783 LINE",
"69 272 LINE",
"38 255 OFFCURVE",
"17 221 OFFCURVE",
"17 183 CURVE SMOOTH",
"17 145 OFFCURVE",
"38 111 OFFCURVE",
"69 93 CURVE"
);
},
{
closed = 1;
nodes = (
"129 168 OFFCURVE",
"136 175 OFFCURVE",
"136 184 CURVE SMOOTH",
"136 193 OFFCURVE",
"129 200 OFFCURVE",
"120 200 CURVE SMOOTH",
"111 200 OFFCURVE",
"104 193 OFFCURVE",
"104 184 CURVE SMOOTH",
"104 175 OFFCURVE",
"111 168 OFFCURVE",
"120 168 CURVE SMOOTH"
);
}
);
};
layerId = "5B3E1226-E0D0-4C23-AF14-DEF1E2C801D3";
paths = (
{
closed = 1;
nodes = (
"125 -393 LINE",
"125 135 LINE",
"116 135 LINE SMOOTH",
"91 137 OFFCURVE",
"71 158 OFFCURVE",
"71 184 CURVE SMOOTH",
"71 209 OFFCURVE",
"91 231 OFFCURVE",
"116 233 CURVE SMOOTH",
"125 233 LINE",
"125 783 LINE",
"115 783 LINE",
"115 243 LINE",
"84 240 OFFCURVE",
"61 215 OFFCURVE",
"61 184 CURVE SMOOTH",
"61 152 OFFCURVE",
"84 127 OFFCURVE",
"115 125 CURVE",
"115 -393 LINE"
);
},
{
closed = 1;
nodes = (
"79 -393 LINE",
"79 100 LINE",
"79 100 OFFCURVE",
"73 102 OFFCURVE",
"69 105 CURVE SMOOTH",
"44 122 OFFCURVE",
"27 150 OFFCURVE",
"27 183 CURVE SMOOTH",
"27 215 OFFCURVE",
"44 244 OFFCURVE",
"69 260 CURVE SMOOTH",
"79 266 LINE",
"79 783 LINE",
"69 783 LINE",
"69 272 LINE",
"38 255 OFFCURVE",
"17 221 OFFCURVE",
"17 183 CURVE SMOOTH",
"17 145 OFFCURVE",
"38 111 OFFCURVE",
"69 93 CURVE",
"69 -393 LINE"
);
},
{
closed = 1;
nodes = (
"129 168 OFFCURVE",
"136 175 OFFCURVE",
"136 184 CURVE SMOOTH",
"136 193 OFFCURVE",
"129 200 OFFCURVE",
"120 200 CURVE SMOOTH",
"111 200 OFFCURVE",
"104 193 OFFCURVE",
"104 184 CURVE SMOOTH",
"104 175 OFFCURVE",
"111 168 OFFCURVE",
"120 168 CURVE SMOOTH"
);
}
);
width = 384;
}
);
note = K;
},
{
glyphname = L.ornm;
lastChange = "2021-09-02 13:46:44 +0000";
layers = (
{
background = {
paths = (
{
closed = 1;
nodes = (
"259 -393 LINE",
"269 -393 LINE",
"269 125 LINE",
"300 127 OFFCURVE",
"323 152 OFFCURVE",
"323 184 CURVE SMOOTH",
"323 215 OFFCURVE",
"300 240 OFFCURVE",
"269 243 CURVE",
"269 783 LINE",
"259 783 LINE",
"259 233 LINE",
"268 233 LINE SMOOTH",
"293 231 OFFCURVE",
"313 209 OFFCURVE",
"313 184 CURVE SMOOTH",
"313 158 OFFCURVE",
"293 137 OFFCURVE",
"268 135 CURVE SMOOTH",
"259 135 LINE"
);
},
{
closed = 1;
nodes = (
"273 168 OFFCURVE",
"280 175 OFFCURVE",
"280 184 CURVE SMOOTH",
"280 193 OFFCURVE",
"273 200 OFFCURVE",
"264 200 CURVE SMOOTH",
"255 200 OFFCURVE",
"248 193 OFFCURVE",
"248 184 CURVE SMOOTH",
"248 175 OFFCURVE",
"255 168 OFFCURVE",
"264 168 CURVE SMOOTH"
);
},
{
closed = 1;
nodes = (
"305 -393 LINE",
"315 -393 LINE",
"315 93 LINE",
"346 111 OFFCURVE",
"367 145 OFFCURVE",
"367 183 CURVE SMOOTH",
"367 221 OFFCURVE",
"346 255 OFFCURVE",
"315 272 CURVE",
"315 783 LINE",
"305 783 LINE",
"305 266 LINE",
"315 260 LINE SMOOTH",
"340 244 OFFCURVE",
"357 215 OFFCURVE",
"357 183 CURVE SMOOTH",
"357 150 OFFCURVE",
"340 122 OFFCURVE",
"315 105 CURVE SMOOTH",
"311 102 OFFCURVE",
"305 100 OFFCURVE",
"305 100 CURVE"
);
}
);
};
layerId = "5B3E1226-E0D0-4C23-AF14-DEF1E2C801D3";
paths = (
{
closed = 1;
nodes = (
"269 -393 LINE",
"269 125 LINE",
"300 127 OFFCURVE",
"323 152 OFFCURVE",
"323 184 CURVE SMOOTH",
"323 215 OFFCURVE",
"300 240 OFFCURVE",
"269 243 CURVE",
"269 783 LINE",
"259 783 LINE",
"259 233 LINE",
"268 233 LINE SMOOTH",
"293 231 OFFCURVE",
"313 209 OFFCURVE",
"313 184 CURVE SMOOTH",
"313 158 OFFCURVE",
"293 137 OFFCURVE",
"268 135 CURVE SMOOTH",
"259 135 LINE",
"259 -393 LINE"
);
},
{
closed = 1;
nodes = (
"273 168 OFFCURVE",
"280 175 OFFCURVE",
"280 184 CURVE SMOOTH",
"280 193 OFFCURVE",
"273 200 OFFCURVE",
"264 200 CURVE SMOOTH",
"255 200 OFFCURVE",
"248 193 OFFCURVE",
"248 184 CURVE SMOOTH",
"248 175 OFFCURVE",
"255 168 OFFCURVE",
"264 168 CURVE SMOOTH"
);
},
{
closed = 1;
nodes = (
"315 -393 LINE",
"315 93 LINE",
"346 111 OFFCURVE",
"367 145 OFFCURVE",
"367 183 CURVE SMOOTH",
"367 221 OFFCURVE",
"346 255 OFFCURVE",
"315 272 CURVE",
"315 783 LINE",
"305 783 LINE",
"305 266 LINE",
"315 260 LINE SMOOTH",
"340 244 OFFCURVE",
"357 215 OFFCURVE",
"357 183 CURVE SMOOTH",
"357 150 OFFCURVE",
"340 122 OFFCURVE",
"315 105 CURVE SMOOTH",
"311 102 OFFCURVE",
"305 100 OFFCURVE",
"305 100 CURVE",
"305 -393 LINE"
);
}
);
width = 384;
}
);
note = L;
},
{
glyphname = M.ornm;
lastChange = "2021-09-02 13:46:44 +0000";
layers = (
{
background = {
paths = (
{
closed = 1;
nodes = (
"69 -393 LINE",
"79 -393 LINE",
"79 135 LINE",
"74 135 LINE SMOOTH",
"47 135 OFFCURVE",
"25 157 OFFCURVE",
"25 184 CURVE SMOOTH",
"25 211 OFFCURVE",
"47 233 OFFCURVE",
"74 233 CURVE SMOOTH",
"79 233 LINE",
"79 783 LINE",
"69 783 LINE",
"69 243 LINE",
"38 240 OFFCURVE",
"15 215 OFFCURVE",
"15 184 CURVE SMOOTH",
"15 152 OFFCURVE",
"38 127 OFFCURVE",
"69 125 CURVE"
);
},
{
closed = 1;
nodes = (
"115 -393 LINE",
"125 -393 LINE",
"125 135 LINE",
"115 135 LINE"
);
},
{
closed = 1;
nodes = (
"129 168 OFFCURVE",
"136 175 OFFCURVE",
"136 184 CURVE SMOOTH",
"136 193 OFFCURVE",
"129 200 OFFCURVE",
"120 200 CURVE SMOOTH",
"111 200 OFFCURVE",
"104 193 OFFCURVE",
"104 184 CURVE SMOOTH",
"104 175 OFFCURVE",
"111 168 OFFCURVE",
"120 168 CURVE SMOOTH"
);
},
{
closed = 1;
nodes = (
"115 233 LINE",
"125 233 LINE",
"125 783 LINE",
"115 783 LINE"
);
}
);
};
layerId = "5B3E1226-E0D0-4C23-AF14-DEF1E2C801D3";
paths = (
{
closed = 1;
nodes = (
"79 -393 LINE",
"79 135 LINE",
"74 135 LINE SMOOTH",
"47 135 OFFCURVE",
"25 157 OFFCURVE",
"25 184 CURVE SMOOTH",
"25 211 OFFCURVE",
"47 233 OFFCURVE",
"74 233 CURVE SMOOTH",
"79 233 LINE",
"79 783 LINE",
"69 783 LINE",
"69 243 LINE",
"38 240 OFFCURVE",
"15 215 OFFCURVE",
"15 184 CURVE SMOOTH",
"15 152 OFFCURVE",
"38 127 OFFCURVE",
"69 125 CURVE",
"69 -393 LINE"
);
},
{
closed = 1;
nodes = (
"125 -393 LINE",
"125 135 LINE",
"115 135 LINE",
"115 -393 LINE"
);
},
{
closed = 1;
nodes = (
"129 168 OFFCURVE",
"136 175 OFFCURVE",
"136 184 CURVE SMOOTH",
"136 193 OFFCURVE",
"129 200 OFFCURVE",
"120 200 CURVE SMOOTH",
"111 200 OFFCURVE",
"104 193 OFFCURVE",
"104 184 CURVE SMOOTH",
"104 175 OFFCURVE",
"111 168 OFFCURVE",
"120 168 CURVE SMOOTH"
);
},
{
closed = 1;
nodes = (
"125 233 LINE",
"125 783 LINE",
"115 783 LINE",
"115 233 LINE"
);
}
);
width = 384;
}
);
note = M;
},
{
glyphname = N.ornm;
lastChange = "2021-09-02 13:46:44 +0000";
layers = (
{
background = {
paths = (
{
closed = 1;
nodes = (
"305 -393 LINE",
"315 -393 LINE",
"315 125 LINE",
"345 127 OFFCURVE",
"369 152 OFFCURVE",
"369 184 CURVE SMOOTH",
"369 215 OFFCURVE",
"345 240 OFFCURVE",
"315 243 CURVE",
"315 783 LINE",
"305 783 LINE",
"305 233 LINE",
"315 233 LINE",
"339 230 OFFCURVE",
"359 209 OFFCURVE",
"359 184 CURVE SMOOTH",
"359 157 OFFCURVE",
"337 135 OFFCURVE",
"310 135 CURVE SMOOTH",
"305 135 LINE"
);
},
{
closed = 1;
nodes = (
"259 -393 LINE",
"269 -393 LINE",
"269 135 LINE",
"259 135 LINE"
);
},
{
closed = 1;
nodes = (
"273 168 OFFCURVE",
"280 175 OFFCURVE",
"280 184 CURVE SMOOTH",
"280 193 OFFCURVE",
"273 200 OFFCURVE",
"264 200 CURVE SMOOTH",
"255 200 OFFCURVE",
"248 193 OFFCURVE",
"248 184 CURVE SMOOTH",
"248 175 OFFCURVE",
"255 168 OFFCURVE",
"264 168 CURVE SMOOTH"
);
},
{
closed = 1;
nodes = (
"259 233 LINE",
"269 233 LINE",
"269 783 LINE",
"259 783 LINE"
);
}
);
};
layerId = "5B3E1226-E0D0-4C23-AF14-DEF1E2C801D3";
paths = (
{
closed = 1;
nodes = (
"315 -393 LINE",
"315 125 LINE",
"345 127 OFFCURVE",
"369 152 OFFCURVE",
"369 184 CURVE SMOOTH",
"369 215 OFFCURVE",
"345 240 OFFCURVE",
"315 243 CURVE",
"315 783 LINE",
"305 783 LINE",
"305 233 LINE",
"315 233 LINE",
"339 230 OFFCURVE",
"359 209 OFFCURVE",
"359 184 CURVE SMOOTH",
"359 157 OFFCURVE",
"337 135 OFFCURVE",
"310 135 CURVE SMOOTH",
"305 135 LINE",
"305 -393 LINE"
);
},
{
closed = 1;
nodes = (
"269 -393 LINE",
"269 135 LINE",
"259 135 LINE",
"259 -393 LINE"
);
},
{
closed = 1;
nodes = (
"273 168 OFFCURVE",
"280 175 OFFCURVE",
"280 184 CURVE SMOOTH",
"280 193 OFFCURVE",
"273 200 OFFCURVE",
"264 200 CURVE SMOOTH",
"255 200 OFFCURVE",
"248 193 OFFCURVE",
"248 184 CURVE SMOOTH",
"248 175 OFFCURVE",
"255 168 OFFCURVE",
"264 168 CURVE SMOOTH"
);
},
{
closed = 1;
nodes = (
"269 233 LINE",
"269 783 LINE",
"259 783 LINE",
"259 233 LINE"
);
}
);
width = 384;
}
);
note = N;
},
{
glyphname = O.ornm;
lastChange = "2021-09-02 13:46:44 +0000";
layers = (
{
background = {
paths = (
{
closed = 1;
nodes = (
"157 -393 LINE",
"157 625 LINE",
"385 625 LINE",
"385 645 LINE",
"157 645 LINE",
"157 783 LINE",
"0 783 LINE",
"0 625 LINE",
"137 625 LINE",
"137 -393 LINE"
);
},
{
closed = 1;
nodes = (
"20 645 LINE",
"20 763 LINE",
"137 763 LINE",
"137 645 LINE"
);
},
{
closed = 1;
nodes = (
"230 544 OFFCURVE",
"242 556 OFFCURVE",
"242 571 CURVE SMOOTH",
"242 585 OFFCURVE",
"230 596 OFFCURVE",
"216 596 CURVE SMOOTH",
"202 596 OFFCURVE",
"190 585 OFFCURVE",
"190 571 CURVE SMOOTH",
"190 556 OFFCURVE",
"202 544 OFFCURVE",
"216 544 CURVE SMOOTH"
);
}
);
};
layerId = "5B3E1226-E0D0-4C23-AF14-DEF1E2C801D3";
paths = (
{
closed = 1;
nodes = (
"157 -393 LINE",
"157 625 LINE",
"385 625 LINE",
"385 645 LINE",
"157 645 LINE",
"157 783 LINE",
"0 783 LINE",
"0 625 LINE",
"137 625 LINE",
"137 -393 LINE"
);
},
{
closed = 1;
nodes = (
"20 763 LINE",
"137 763 LINE",
"137 645 LINE",
"20 645 LINE"
);
},
{
closed = 1;
nodes = (
"230 544 OFFCURVE",
"242 556 OFFCURVE",
"242 571 CURVE SMOOTH",
"242 585 OFFCURVE",
"230 596 OFFCURVE",
"216 596 CURVE SMOOTH",
"202 596 OFFCURVE",
"190 585 OFFCURVE",
"190 571 CURVE SMOOTH",
"190 556 OFFCURVE",
"202 544 OFFCURVE",
"216 544 CURVE SMOOTH"
);
}
);
width = 384;
}
);
note = O;
},
{
glyphname = P.ornm;
lastChange = "2021-09-02 13:46:44 +0000";
layers = (
{
background = {
paths = (
{
closed = 1;
nodes = (
"385 625 LINE",
"385 645 LINE",
"-1 645 LINE",
"-1 625 LINE"
);
}
);
};
layerId = "5B3E1226-E0D0-4C23-AF14-DEF1E2C801D3";
paths = (
{
closed = 1;
nodes = (
"385 625 LINE",
"385 645 LINE",
"-1 645 LINE",
"-1 625 LINE"
);
}
);
width = 384;
}
);
note = P;
},
{
glyphname = Q.ornm;
lastChange = "2021-09-02 13:46:44 +0000";
layers = (
{
background = {
paths = (
{
closed = 1;
nodes = (
"247 -393 LINE",
"247 625 LINE",
"384 625 LINE",
"384 783 LINE",
"227 783 LINE",
"227 645 LINE",
"-1 645 LINE",
"-1 625 LINE",
"227 625 LINE",
"227 -393 LINE"
);
},
{
closed = 1;
nodes = (
"182 544 OFFCURVE",
"193 556 OFFCURVE",
"193 571 CURVE SMOOTH",
"193 585 OFFCURVE",
"182 596 OFFCURVE",
"168 596 CURVE SMOOTH",
"153 596 OFFCURVE",
"141 585 OFFCURVE",
"141 571 CURVE SMOOTH",
"141 556 OFFCURVE",
"153 544 OFFCURVE",
"168 544 CURVE SMOOTH"
);
},
{
closed = 1;
nodes = (
"247 645 LINE",
"247 763 LINE",
"364 763 LINE",
"364 645 LINE"
);
}
);
};
layerId = "5B3E1226-E0D0-4C23-AF14-DEF1E2C801D3";
paths = (
{
closed = 1;
nodes = (
"247 -393 LINE",
"247 625 LINE",
"384 625 LINE",
"384 783 LINE",
"227 783 LINE",
"227 645 LINE",
"-1 645 LINE",
"-1 625 LINE",
"227 625 LINE",
"227 -393 LINE"
);
},
{
closed = 1;
nodes = (
"182 544 OFFCURVE",
"193 556 OFFCURVE",
"193 571 CURVE SMOOTH",
"193 585 OFFCURVE",
"182 596 OFFCURVE",
"168 596 CURVE SMOOTH",
"153 596 OFFCURVE",
"141 585 OFFCURVE",
"141 571 CURVE SMOOTH",
"141 556 OFFCURVE",
"153 544 OFFCURVE",
"168 544 CURVE SMOOTH"
);
},
{
closed = 1;
nodes = (
"247 763 LINE",
"364 763 LINE",
"364 645 LINE",
"247 645 LINE"
);
}
);
width = 384;
}
);
note = Q;
},
{
glyphname = R.ornm;
lastChange = "2021-09-02 13:46:44 +0000";
layers = (
{
background = {
paths = (
{
closed = 1;
nodes = (
"157 -393 LINE",
"157 -255 LINE",
"385 -255 LINE",
"385 -235 LINE",
"157 -235 LINE",
"157 783 LINE",
"137 783 LINE",
"137 -235 LINE",
"0 -235 LINE",
"0 -393 LINE"
);
},
{
closed = 1;
nodes = (
"20 -373 LINE",
"20 -255 LINE",
"137 -255 LINE",
"137 -373 LINE"
);
},
{
closed = 1;
nodes = (
"231 -207 OFFCURVE",
"242 -195 OFFCURVE",
"242 -181 CURVE SMOOTH",
"242 -167 OFFCURVE",
"231 -155 OFFCURVE",
"217 -155 CURVE SMOOTH",
"202 -155 OFFCURVE",
"190 -167 OFFCURVE",
"190 -181 CURVE SMOOTH",
"190 -195 OFFCURVE",
"202 -207 OFFCURVE",
"217 -207 CURVE SMOOTH"
);
}
);
};
layerId = "5B3E1226-E0D0-4C23-AF14-DEF1E2C801D3";
paths = (
{
closed = 1;
nodes = (
"157 -393 LINE",
"157 -255 LINE",
"385 -255 LINE",
"385 -235 LINE",
"157 -235 LINE",
"157 783 LINE",
"137 783 LINE",
"137 -235 LINE",
"0 -235 LINE",
"0 -393 LINE"
);
},
{
closed = 1;
nodes = (
"20 -255 LINE",
"137 -255 LINE",
"137 -373 LINE",
"20 -373 LINE"
);
},
{
closed = 1;
nodes = (
"231 -207 OFFCURVE",
"242 -195 OFFCURVE",
"242 -181 CURVE SMOOTH",
"242 -167 OFFCURVE",
"231 -155 OFFCURVE",
"217 -155 CURVE SMOOTH",
"202 -155 OFFCURVE",
"190 -167 OFFCURVE",
"190 -181 CURVE SMOOTH",
"190 -195 OFFCURVE",
"202 -207 OFFCURVE",
"217 -207 CURVE SMOOTH"
);
}
);
width = 384;
}
);
note = R;
},
{
glyphname = S.ornm;
lastChange = "2021-09-02 13:46:44 +0000";
layers = (
{
background = {
paths = (
{
closed = 1;
nodes = (
"385 -255 LINE",
"385 -235 LINE",
"-1 -235 LINE",
"-1 -255 LINE"
);
}
);
};
layerId = "5B3E1226-E0D0-4C23-AF14-DEF1E2C801D3";
paths = (
{
closed = 1;
nodes = (
"385 -255 LINE",
"385 -235 LINE",
"-1 -235 LINE",
"-1 -255 LINE"
);
}
);
width = 384;
}
);
note = S;
},
{
glyphname = T.ornm;
lastChange = "2021-09-02 13:46:44 +0000";
layers = (
{
background = {
paths = (
{
closed = 1;
nodes = (
"384 -393 LINE",
"384 -235 LINE",
"247 -235 LINE",
"247 783 LINE",
"227 783 LINE",
"227 -235 LINE",
"-1 -235 LINE",
"-1 -255 LINE",
"227 -255 LINE",
"227 -393 LINE"
);
},
{
closed = 1;
nodes = (
"182 -207 OFFCURVE",
"193 -195 OFFCURVE",
"193 -181 CURVE SMOOTH",
"193 -167 OFFCURVE",
"182 -155 OFFCURVE",
"168 -155 CURVE SMOOTH",
"153 -155 OFFCURVE",
"141 -167 OFFCURVE",
"141 -181 CURVE SMOOTH",
"141 -195 OFFCURVE",
"153 -207 OFFCURVE",
"168 -207 CURVE SMOOTH"
);
},
{
closed = 1;
nodes = (
"247 -373 LINE",
"247 -255 LINE",
"364 -255 LINE",
"364 -373 LINE"
);
}
);
};
layerId = "5B3E1226-E0D0-4C23-AF14-DEF1E2C801D3";
paths = (
{
closed = 1;
nodes = (
"384 -393 LINE",
"384 -235 LINE",
"247 -235 LINE",
"247 783 LINE",
"227 783 LINE",
"227 -235 LINE",
"-1 -235 LINE",
"-1 -255 LINE",
"227 -255 LINE",
"227 -393 LINE"
);
},
{
closed = 1;
nodes = (
"182 -207 OFFCURVE",
"193 -195 OFFCURVE",
"193 -181 CURVE SMOOTH",
"193 -167 OFFCURVE",
"182 -155 OFFCURVE",
"168 -155 CURVE SMOOTH",
"153 -155 OFFCURVE",
"141 -167 OFFCURVE",
"141 -181 CURVE SMOOTH",
"141 -195 OFFCURVE",
"153 -207 OFFCURVE",
"168 -207 CURVE SMOOTH"
);
},
{
closed = 1;
nodes = (
"247 -255 LINE",
"364 -255 LINE",
"364 -373 LINE",
"247 -373 LINE"
);
}
);
width = 384;
}
);
note = T;
},
{
glyphname = U.ornm;
lastChange = "2021-09-02 13:46:44 +0000";
layers = (
{
background = {
paths = (
{
closed = 1;
nodes = (
"157 -394 LINE",
"157 106 LINE",
"20 106 LINE",
"20 264 LINE",
"157 264 LINE",
"157 784 LINE",
"137 784 LINE",
"137 284 LINE",
"0 284 LINE",
"0 86 LINE",
"137 86 LINE",
"137 -394 LINE"
);
},
{
closed = 1;
nodes = (
"119 158 OFFCURVE",
"130 170 OFFCURVE",
"130 185 CURVE SMOOTH",
"130 199 OFFCURVE",
"119 210 OFFCURVE",
"105 210 CURVE SMOOTH",
"90 210 OFFCURVE",
"78 199 OFFCURVE",
"78 185 CURVE SMOOTH",
"78 170 OFFCURVE",
"90 158 OFFCURVE",
"105 158 CURVE SMOOTH"
);
}
);
};
layerId = "5B3E1226-E0D0-4C23-AF14-DEF1E2C801D3";
paths = (
{
closed = 1;
nodes = (
"157 -394 LINE",
"157 106 LINE",
"20 106 LINE",
"20 264 LINE",
"157 264 LINE",
"157 784 LINE",
"137 784 LINE",
"137 284 LINE",
"0 284 LINE",
"0 86 LINE",
"137 86 LINE",
"137 -394 LINE"
);
},
{
closed = 1;
nodes = (
"119 158 OFFCURVE",
"130 170 OFFCURVE",
"130 185 CURVE SMOOTH",
"130 199 OFFCURVE",
"119 210 OFFCURVE",
"105 210 CURVE SMOOTH",
"90 210 OFFCURVE",
"78 199 OFFCURVE",
"78 185 CURVE SMOOTH",
"78 170 OFFCURVE",
"90 158 OFFCURVE",
"105 158 CURVE SMOOTH"
);
}
);
width = 384;
}
);
note = U;
},
{
glyphname = V.ornm;
lastChange = "2021-09-02 13:46:44 +0000";
layers = (
{
background = {
paths = (
{
closed = 1;
nodes = (
"247 -394 LINE",
"247 86 LINE",
"384 86 LINE",
"384 284 LINE",
"247 284 LINE",
"247 784 LINE",
"227 784 LINE",
"227 264 LINE",
"364 264 LINE",
"364 106 LINE",
"227 106 LINE",
"227 -394 LINE"
);
},
{
closed = 1;
nodes = (
"293 158 OFFCURVE",
"305 170 OFFCURVE",
"305 185 CURVE SMOOTH",
"305 199 OFFCURVE",
"293 210 OFFCURVE",
"279 210 CURVE SMOOTH",
"265 210 OFFCURVE",
"253 199 OFFCURVE",
"253 185 CURVE SMOOTH",
"253 170 OFFCURVE",
"265 158 OFFCURVE",
"279 158 CURVE SMOOTH"
);
}
);
};
layerId = "5B3E1226-E0D0-4C23-AF14-DEF1E2C801D3";
paths = (
{
closed = 1;
nodes = (
"247 -394 LINE",
"247 86 LINE",
"384 86 LINE",
"384 284 LINE",
"247 284 LINE",
"247 784 LINE",
"227 784 LINE",
"227 264 LINE",
"364 264 LINE",
"364 106 LINE",
"227 106 LINE",
"227 -394 LINE"
);
},
{
closed = 1;
nodes = (
"293 158 OFFCURVE",
"305 170 OFFCURVE",
"305 185 CURVE SMOOTH",
"305 199 OFFCURVE",
"293 210 OFFCURVE",
"279 210 CURVE SMOOTH",
"265 210 OFFCURVE",
"253 199 OFFCURVE",
"253 185 CURVE SMOOTH",
"253 170 OFFCURVE",
"265 158 OFFCURVE",
"279 158 CURVE SMOOTH"
);
}
);
width = 384;
}
);
note = V;
},
{
glyphname = W.ornm;
lastChange = "2021-09-02 13:46:44 +0000";
layers = (
{
background = {
paths = (
{
closed = 1;
nodes = (
"137 -394 LINE",
"157 -394 LINE",
"157 86 LINE",
"147 86 LINE SMOOTH",
"93 86 OFFCURVE",
"49 130 OFFCURVE",
"49 184 CURVE SMOOTH",
"49 238 OFFCURVE",
"93 282 OFFCURVE",
"147 282 CURVE SMOOTH",
"157 282 LINE",
"157 784 LINE",
"137 784 LINE",
"137 301 LINE",
"75 296 OFFCURVE",
"29 246 OFFCURVE",
"29 184 CURVE SMOOTH",
"29 121 OFFCURVE",
"75 71 OFFCURVE",
"137 66 CURVE"
);
},
{
closed = 1;
nodes = (
"161 158 OFFCURVE",
"172 170 OFFCURVE",
"172 185 CURVE SMOOTH",
"172 199 OFFCURVE",
"161 210 OFFCURVE",
"147 210 CURVE SMOOTH",
"132 210 OFFCURVE",
"120 199 OFFCURVE",
"120 185 CURVE SMOOTH",
"120 170 OFFCURVE",
"132 158 OFFCURVE",
"147 158 CURVE SMOOTH"
);
}
);
};
layerId = "5B3E1226-E0D0-4C23-AF14-DEF1E2C801D3";
paths = (
{
closed = 1;
nodes = (
"157 -394 LINE",
"157 86 LINE",
"147 86 LINE SMOOTH",
"93 86 OFFCURVE",
"49 130 OFFCURVE",
"49 184 CURVE SMOOTH",
"49 238 OFFCURVE",
"93 282 OFFCURVE",
"147 282 CURVE SMOOTH",
"157 282 LINE",
"157 784 LINE",
"137 784 LINE",
"137 301 LINE",
"75 296 OFFCURVE",
"29 246 OFFCURVE",
"29 184 CURVE SMOOTH",
"29 121 OFFCURVE",
"75 71 OFFCURVE",
"137 66 CURVE",
"137 -394 LINE"
);
},
{
closed = 1;
nodes = (
"161 158 OFFCURVE",
"172 170 OFFCURVE",
"172 185 CURVE SMOOTH",
"172 199 OFFCURVE",
"161 210 OFFCURVE",
"147 210 CURVE SMOOTH",
"132 210 OFFCURVE",
"120 199 OFFCURVE",
"120 185 CURVE SMOOTH",
"120 170 OFFCURVE",
"132 158 OFFCURVE",
"147 158 CURVE SMOOTH"
);
}
);
width = 384;
}
);
note = W;
},
{
glyphname = X.ornm;
lastChange = "2021-09-02 13:46:44 +0000";
layers = (
{
background = {
paths = (
{
closed = 1;
nodes = (
"227 -394 LINE",
"247 -394 LINE",
"247 66 LINE",
"308 71 OFFCURVE",
"355 121 OFFCURVE",
"355 184 CURVE SMOOTH",
"355 246 OFFCURVE",
"308 296 OFFCURVE",
"247 301 CURVE",
"247 784 LINE",
"227 784 LINE",
"227 282 LINE",
"237 282 LINE SMOOTH",
"291 282 OFFCURVE",
"335 238 OFFCURVE",
"335 184 CURVE SMOOTH",
"335 130 OFFCURVE",
"291 86 OFFCURVE",
"237 86 CURVE SMOOTH",
"227 86 LINE"
);
},
{
closed = 1;
nodes = (
"251 158 OFFCURVE",
"263 170 OFFCURVE",
"263 185 CURVE SMOOTH",
"263 199 OFFCURVE",
"251 210 OFFCURVE",
"237 210 CURVE SMOOTH",
"223 210 OFFCURVE",
"211 199 OFFCURVE",
"211 185 CURVE SMOOTH",
"211 170 OFFCURVE",
"223 158 OFFCURVE",
"237 158 CURVE SMOOTH"
);
}
);
};
layerId = "5B3E1226-E0D0-4C23-AF14-DEF1E2C801D3";
paths = (
{
closed = 1;
nodes = (
"247 -394 LINE",
"247 66 LINE",
"308 71 OFFCURVE",
"355 121 OFFCURVE",
"355 184 CURVE SMOOTH",
"355 246 OFFCURVE",
"308 296 OFFCURVE",
"247 301 CURVE",
"247 784 LINE",
"227 784 LINE",
"227 282 LINE",
"237 282 LINE SMOOTH",
"291 282 OFFCURVE",
"335 238 OFFCURVE",
"335 184 CURVE SMOOTH",
"335 130 OFFCURVE",
"291 86 OFFCURVE",
"237 86 CURVE SMOOTH",
"227 86 LINE",
"227 -394 LINE"
);
},
{
closed = 1;
nodes = (
"251 158 OFFCURVE",
"263 170 OFFCURVE",
"263 185 CURVE SMOOTH",
"263 199 OFFCURVE",
"251 210 OFFCURVE",
"237 210 CURVE SMOOTH",
"223 210 OFFCURVE",
"211 199 OFFCURVE",
"211 185 CURVE SMOOTH",
"211 170 OFFCURVE",
"223 158 OFFCURVE",
"237 158 CURVE SMOOTH"
);
}
);
width = 384;
}
);
note = X;
},
{
glyphname = Y.ornm;
lastChange = "2021-09-02 13:46:44 +0000";
layers = (
{
background = {
paths = (
{
closed = 1;
nodes = (
"137 -394 LINE",
"157 -394 LINE",
"157 66 LINE",
"218 71 OFFCURVE",
"265 121 OFFCURVE",
"265 184 CURVE SMOOTH",
"265 246 OFFCURVE",
"218 296 OFFCURVE",
"157 301 CURVE",
"157 784 LINE",
"137 784 LINE",
"137 282 LINE",
"147 282 LINE SMOOTH",
"201 282 OFFCURVE",
"245 238 OFFCURVE",
"245 184 CURVE SMOOTH",
"245 130 OFFCURVE",
"201 86 OFFCURVE",
"147 86 CURVE SMOOTH",
"137 86 LINE"
);
},
{
closed = 1;
nodes = (
"161 158 OFFCURVE",
"173 170 OFFCURVE",
"173 185 CURVE SMOOTH",
"173 199 OFFCURVE",
"161 210 OFFCURVE",
"147 210 CURVE SMOOTH",
"133 210 OFFCURVE",
"121 199 OFFCURVE",
"121 185 CURVE SMOOTH",
"121 170 OFFCURVE",
"133 158 OFFCURVE",
"147 158 CURVE SMOOTH"
);
}
);
};
layerId = "5B3E1226-E0D0-4C23-AF14-DEF1E2C801D3";
paths = (
{
closed = 1;
nodes = (
"157 -394 LINE",
"157 66 LINE",
"218 71 OFFCURVE",
"265 121 OFFCURVE",
"265 184 CURVE SMOOTH",
"265 246 OFFCURVE",
"218 296 OFFCURVE",
"157 301 CURVE",
"157 784 LINE",
"137 784 LINE",
"137 282 LINE",
"147 282 LINE SMOOTH",
"201 282 OFFCURVE",
"245 238 OFFCURVE",
"245 184 CURVE SMOOTH",
"245 130 OFFCURVE",
"201 86 OFFCURVE",
"147 86 CURVE SMOOTH",
"137 86 LINE",
"137 -394 LINE"
);
},
{
closed = 1;
nodes = (
"161 158 OFFCURVE",
"173 170 OFFCURVE",
"173 185 CURVE SMOOTH",
"173 199 OFFCURVE",
"161 210 OFFCURVE",
"147 210 CURVE SMOOTH",
"133 210 OFFCURVE",
"121 199 OFFCURVE",
"121 185 CURVE SMOOTH",
"121 170 OFFCURVE",
"133 158 OFFCURVE",
"147 158 CURVE SMOOTH"
);
}
);
width = 384;
}
);
note = Y;
},
{
glyphname = Z.ornm;
lastChange = "2021-09-02 13:46:44 +0000";
layers = (
{
background = {
paths = (
{
closed = 1;
nodes = (
"227 -394 LINE",
"247 -394 LINE",
"247 86 LINE",
"237 86 LINE SMOOTH",
"183 86 OFFCURVE",
"139 130 OFFCURVE",
"139 184 CURVE SMOOTH",
"139 238 OFFCURVE",
"183 282 OFFCURVE",
"237 282 CURVE SMOOTH",
"247 282 LINE",
"247 784 LINE",
"227 784 LINE",
"227 301 LINE",
"165 296 OFFCURVE",
"119 246 OFFCURVE",
"119 184 CURVE SMOOTH",
"119 121 OFFCURVE",
"165 71 OFFCURVE",
"227 66 CURVE"
);
},
{
closed = 1;
nodes = (
"251 158 OFFCURVE",
"262 170 OFFCURVE",
"262 185 CURVE SMOOTH",
"262 199 OFFCURVE",
"251 210 OFFCURVE",
"237 210 CURVE SMOOTH",
"222 210 OFFCURVE",
"210 199 OFFCURVE",
"210 185 CURVE SMOOTH",
"210 170 OFFCURVE",
"222 158 OFFCURVE",
"237 158 CURVE SMOOTH"
);
}
);
};
layerId = "5B3E1226-E0D0-4C23-AF14-DEF1E2C801D3";
paths = (
{
closed = 1;
nodes = (
"247 -394 LINE",
"247 86 LINE",
"237 86 LINE SMOOTH",
"183 86 OFFCURVE",
"139 130 OFFCURVE",
"139 184 CURVE SMOOTH",
"139 238 OFFCURVE",
"183 282 OFFCURVE",
"237 282 CURVE SMOOTH",
"247 282 LINE",
"247 784 LINE",
"227 784 LINE",
"227 301 LINE",
"165 296 OFFCURVE",
"119 246 OFFCURVE",
"119 184 CURVE SMOOTH",
"119 121 OFFCURVE",
"165 71 OFFCURVE",
"227 66 CURVE",
"227 -394 LINE"
);
},
{
closed = 1;
nodes = (
"251 158 OFFCURVE",
"262 170 OFFCURVE",
"262 185 CURVE SMOOTH",
"262 199 OFFCURVE",
"251 210 OFFCURVE",
"237 210 CURVE SMOOTH",
"222 210 OFFCURVE",
"210 199 OFFCURVE",
"210 185 CURVE SMOOTH",
"210 170 OFFCURVE",
"222 158 OFFCURVE",
"237 158 CURVE SMOOTH"
);
}
);
width = 384;
}
);
note = Z;
},
{
glyphname = A.ss01;
lastChange = "2021-09-02 13:46:44 +0000";
layers = (
{
anchors = (
{
name = bottom;
position = "{549, 0}";
},
{
name = ogonek;
position = "{773, -59}";
},
{
name = top;
position = "{1087, 610}";
}
);
background = {
paths = (
{
closed = 1;
nodes = (
"290 -111 OFFCURVE",
"487 59 OFFCURVE",
"621 191 CURVE",
"773 148 LINE",
"764 125 OFFCURVE",
"751 100 OFFCURVE",
"745 80 CURVE SMOOTH",
"696 -61 OFFCURVE",
"736 -110 OFFCURVE",
"797 -110 CURVE SMOOTH",
"836 -110 OFFCURVE",
"846 -68 OFFCURVE",
"832 -76 CURVE SMOOTH",
"811 -88 OFFCURVE",
"792 -86 OFFCURVE",
"782 -81 CURVE",
"752 -58 OFFCURVE",
"775 26 OFFCURVE",
"822 135 CURVE",
"886 120 OFFCURVE",
"995 99 OFFCURVE",
"995 180 CURVE SMOOTH",
"995 202 OFFCURVE",
"961 227 OFFCURVE",
"942 236 CURVE SMOOTH",
"926 242 OFFCURVE",
"931 233 OFFCURVE",
"938 226 CURVE SMOOTH",
"944 220 OFFCURVE",
"972 190 OFFCURVE",
"969 175 CURVE SMOOTH",
"963 146 OFFCURVE",
"905 151 OFFCURVE",
"834 167 CURVE",
"842 185 OFFCURVE",
"852 205 OFFCURVE",
"862 224 CURVE SMOOTH",
"914 319 OFFCURVE",
"983 428 OFFCURVE",
"1052 511 CURVE SMOOTH",
"1069 531 OFFCURVE",
"1087 550 OFFCURVE",
"1105 570 CURVE SMOOTH",
"1112 577 OFFCURVE",
"1121 587 OFFCURVE",
"1121 598 CURVE SMOOTH",
"1121 611 OFFCURVE",
"1108 615 OFFCURVE",
"1098 615 CURVE SMOOTH",
"1089 615 OFFCURVE",
"1080 612 OFFCURVE",
"1072 609 CURVE SMOOTH",
"918 550 OFFCURVE",
"742 339 OFFCURVE",
"612 220 CURVE",
"564 232 OFFCURVE",
"511 246 OFFCURVE",
"458 257 CURVE",
"471 278 LINE SMOOTH",
"516 352 OFFCURVE",
"507 442 OFFCURVE",
"403 442 CURVE SMOOTH",
"275 442 OFFCURVE",
"124 302 OFFCURVE",
"59 201 CURVE SMOOTH",
"28 153 OFFCURVE",
"7 88 OFFCURVE",
"7 31 CURVE SMOOTH",
"7 -57 OFFCURVE",
"56 -111 OFFCURVE",
"145 -111 CURVE SMOOTH"
);
},
{
closed = 1;
nodes = (
"84 -87 OFFCURVE",
"44 -29 OFFCURVE",
"44 37 CURVE SMOOTH",
"44 84 OFFCURVE",
"62 136 OFFCURVE",
"84 178 CURVE SMOOTH",
"101 211 OFFCURVE",
"121 242 OFFCURVE",
"145 271 CURVE SMOOTH",
"198 336 OFFCURVE",
"295 413 OFFCURVE",
"383 413 CURVE SMOOTH",
"465 413 OFFCURVE",
"458 340 OFFCURVE",
"425 264 CURVE",
"374 274 OFFCURVE",
"323 281 OFFCURVE",
"280 281 CURVE SMOOTH",
"233 281 OFFCURVE",
"165 261 OFFCURVE",
"206 201 CURVE SMOOTH",
"220 183 OFFCURVE",
"234 172 OFFCURVE",
"242 173 CURVE SMOOTH",
"260 176 OFFCURVE",
"222 231 OFFCURVE",
"235 245 CURVE",
"252 268 OFFCURVE",
"331 260 OFFCURVE",
"416 243 CURVE",
"397 204 OFFCURVE",
"373 166 OFFCURVE",
"353 138 CURVE SMOOTH",
"347 129 OFFCURVE",
"357 114 OFFCURVE",
"386 152 CURVE SMOOTH",
"402 173 OFFCURVE",
"426 208 OFFCURVE",
"444 236 CURVE",
"498 224 OFFCURVE",
"549 211 OFFCURVE",
"589 200 CURVE",
"582 193 OFFCURVE",
"575 187 OFFCURVE",
"568 182 CURVE",
"486 105 OFFCURVE",
"270 -87 OFFCURVE",
"154 -87 CURVE SMOOTH"
);
},
{
closed = 1;
nodes = (
"722 191 OFFCURVE",
"664 206 OFFCURVE",
"641 212 CURVE",
"752 330 OFFCURVE",
"861 454 OFFCURVE",
"1012 537 CURVE",
"937 452 OFFCURVE",
"844 304 OFFCURVE",
"785 178 CURVE"
);
}
);
};
layerId = "5B3E1226-E0D0-4C23-AF14-DEF1E2C801D3";
paths = (
{
closed = 1;
nodes = (
"290 -96 OFFCURVE",
"487 74 OFFCURVE",
"621 206 CURVE",
"773 163 LINE",
"764 140 OFFCURVE",
"751 115 OFFCURVE",
"745 95 CURVE SMOOTH",
"730 51 OFFCURVE",
"723 16 OFFCURVE",
"723 -12 CURVE SMOOTH",
"723 -72 OFFCURVE",
"755 -95 OFFCURVE",
"797 -95 CURVE SMOOTH",
"836 -95 OFFCURVE",
"846 -53 OFFCURVE",
"832 -61 CURVE SMOOTH",
"821 -68 OFFCURVE",
"810 -70 OFFCURVE",
"801 -70 CURVE SMOOTH",
"793 -70 OFFCURVE",
"787 -68 OFFCURVE",
"782 -66 CURVE",
"773 -59 OFFCURVE",
"769 -46 OFFCURVE",
"769 -28 CURVE SMOOTH",
"769 11 OFFCURVE",
"790 75 OFFCURVE",
"822 150 CURVE",
"850 144 OFFCURVE",
"886 136 OFFCURVE",
"918 136 CURVE SMOOTH",
"960 136 OFFCURVE",
"995 149 OFFCURVE",
"995 195 CURVE SMOOTH",
"995 217 OFFCURVE",
"961 242 OFFCURVE",
"942 251 CURVE",
"938 252 OFFCURVE",
"936 253 OFFCURVE",
"934 253 CURVE SMOOTH",
"932 253 OFFCURVE",
"931 252 OFFCURVE",
"931 251 CURVE SMOOTH",
"931 249 OFFCURVE",
"934 245 OFFCURVE",
"938 241 CURVE SMOOTH",
"944 235 OFFCURVE",
"969 208 OFFCURVE",
"969 192 CURVE SMOOTH",
"969 176 OFFCURVE",
"950 169 OFFCURVE",
"923 169 CURVE SMOOTH",
"900 169 OFFCURVE",
"868 174 OFFCURVE",
"834 182 CURVE",
"842 200 OFFCURVE",
"852 220 OFFCURVE",
"862 239 CURVE SMOOTH",
"914 334 OFFCURVE",
"983 443 OFFCURVE",
"1052 526 CURVE SMOOTH",
"1069 546 OFFCURVE",
"1087 565 OFFCURVE",
"1105 585 CURVE SMOOTH",
"1112 592 OFFCURVE",
"1121 602 OFFCURVE",
"1121 613 CURVE SMOOTH",
"1121 626 OFFCURVE",
"1108 630 OFFCURVE",
"1098 630 CURVE SMOOTH",
"1089 630 OFFCURVE",
"1080 627 OFFCURVE",
"1072 624 CURVE SMOOTH",
"918 565 OFFCURVE",
"742 354 OFFCURVE",
"612 235 CURVE",
"564 247 OFFCURVE",
"511 261 OFFCURVE",
"458 272 CURVE",
"471 293 LINE SMOOTH",
"488 320 OFFCURVE",
"497 349 OFFCURVE",
"497 375 CURVE SMOOTH",
"497 421 OFFCURVE",
"469 457 OFFCURVE",
"403 457 CURVE SMOOTH",
"275 457 OFFCURVE",
"124 317 OFFCURVE",
"59 216 CURVE SMOOTH",
"28 168 OFFCURVE",
"7 103 OFFCURVE",
"7 46 CURVE SMOOTH",
"7 -42 OFFCURVE",
"56 -96 OFFCURVE",
"145 -96 CURVE SMOOTH"
);
},
{
closed = 1;
nodes = (
"84 -72 OFFCURVE",
"44 -14 OFFCURVE",
"44 52 CURVE SMOOTH",
"44 99 OFFCURVE",
"62 151 OFFCURVE",
"84 193 CURVE SMOOTH",
"101 226 OFFCURVE",
"121 257 OFFCURVE",
"145 286 CURVE SMOOTH",
"198 351 OFFCURVE",
"295 428 OFFCURVE",
"383 428 CURVE SMOOTH",
"431 428 OFFCURVE",
"448 403 OFFCURVE",
"448 368 CURVE SMOOTH",
"448 342 OFFCURVE",
"439 311 OFFCURVE",
"425 279 CURVE",
"374 289 OFFCURVE",
"323 296 OFFCURVE",
"280 296 CURVE SMOOTH",
"243 296 OFFCURVE",
"193 284 OFFCURVE",
"193 249 CURVE SMOOTH",
"193 240 OFFCURVE",
"197 229 OFFCURVE",
"206 216 CURVE SMOOTH",
"219 199 OFFCURVE",
"233 188 OFFCURVE",
"241 188 CURVE SMOOTH",
"245 188 OFFCURVE",
"247 191 OFFCURVE",
"247 195 CURVE SMOOTH",
"247 208 OFFCURVE",
"232 236 OFFCURVE",
"232 251 CURVE SMOOTH",
"232 255 OFFCURVE",
"233 258 OFFCURVE",
"235 260 CURVE SMOOTH",
"242 270 OFFCURVE",
"262 274 OFFCURVE",
"289 274 CURVE SMOOTH",
"323 274 OFFCURVE",
"368 268 OFFCURVE",
"416 258 CURVE",
"397 219 OFFCURVE",
"373 181 OFFCURVE",
"353 153 CURVE SMOOTH",
"350 148 OFFCURVE",
"351 142 OFFCURVE",
"357 142 CURVE SMOOTH",
"362 142 OFFCURVE",
"372 148 OFFCURVE",
"386 167 CURVE SMOOTH",
"402 188 OFFCURVE",
"426 223 OFFCURVE",
"444 251 CURVE",
"498 239 OFFCURVE",
"549 226 OFFCURVE",
"589 215 CURVE",
"582 208 OFFCURVE",
"575 202 OFFCURVE",
"568 197 CURVE",
"486 120 OFFCURVE",
"270 -72 OFFCURVE",
"154 -72 CURVE SMOOTH"
);
},
{
closed = 1;
nodes = (
"722 206 OFFCURVE",
"664 221 OFFCURVE",
"641 227 CURVE",
"752 345 OFFCURVE",
"861 469 OFFCURVE",
"1012 552 CURVE",
"937 467 OFFCURVE",
"844 319 OFFCURVE",
"785 193 CURVE"
);
}
);
width = 932;
}
);
note = A;
userData = {
RMXScaler = {
source = A;
};
};
},
{
glyphname = AE.ss01;
lastChange = "2021-09-02 13:46:44 +0000";
layers = (
{
anchors = (
{
name = bottom;
position = "{719, 0}";
},
{
name = top;
position = "{1237, 610}";
}
);
background = {
hints = (
{
horizontal = 1;
place = "{-26, 50}";
type = Stem;
},
{
horizontal = 1;
place = "{542, 33}";
type = Stem;
},
{
place = "{344, 29}";
type = Stem;
},
{
horizontal = 1;
place = "{549, 35}";
type = Stem;
}
);
paths = (
{
closed = 1;
nodes = (
"1293 590 OFFCURVE",
"1137 530 OFFCURVE",
"1076 431 CURVE SMOOTH",
"1065 413 OFFCURVE",
"1058 393 OFFCURVE",
"1058 372 CURVE SMOOTH",
"1058 354 OFFCURVE",
"1064 337 OFFCURVE",
"1075 322 CURVE SMOOTH",
"1076 320 LINE",
"986 301 OFFCURVE",
"916 266 OFFCURVE",
"867 233 CURVE",
"918 326 OFFCURVE",
"985 431 OFFCURVE",
"1052 511 CURVE SMOOTH",
"1069 531 OFFCURVE",
"1087 550 OFFCURVE",
"1105 570 CURVE SMOOTH",
"1112 577 OFFCURVE",
"1121 587 OFFCURVE",
"1121 598 CURVE SMOOTH",
"1121 611 OFFCURVE",
"1108 615 OFFCURVE",
"1098 615 CURVE SMOOTH",
"1089 615 OFFCURVE",
"1080 612 OFFCURVE",
"1072 609 CURVE SMOOTH",
"918 550 OFFCURVE",
"742 339 OFFCURVE",
"612 220 CURVE",
"564 232 OFFCURVE",
"511 246 OFFCURVE",
"458 257 CURVE",
"471 278 LINE SMOOTH",
"517 352 OFFCURVE",
"507 442 OFFCURVE",
"403 442 CURVE SMOOTH",
"275 442 OFFCURVE",
"124 302 OFFCURVE",
"59 201 CURVE SMOOTH",
"28 153 OFFCURVE",
"7 88 OFFCURVE",
"7 31 CURVE SMOOTH",
"7 -57 OFFCURVE",
"56 -111 OFFCURVE",
"145 -111 CURVE SMOOTH",
"290 -111 OFFCURVE",
"487 59 OFFCURVE",
"621 191 CURVE",
"770 149 LINE",
"674 39 OFFCURVE",
"688 -119 OFFCURVE",
"929 -119 CURVE SMOOTH",
"1019 -119 OFFCURVE",
"1176 -92 OFFCURVE",
"1310 -15 CURVE SMOOTH",
"1518 104 OFFCURVE",
"1548 286 OFFCURVE",
"1392 269 CURVE SMOOTH",
"1273 256 OFFCURVE",
"1210 202 OFFCURVE",
"1144 131 CURVE",
"1139 123 OFFCURVE",
"1125 85 OFFCURVE",
"1153 110 CURVE SMOOTH",
"1233 183 OFFCURVE",
"1309 242 OFFCURVE",
"1392 254 CURVE SMOOTH",
"1489 268 OFFCURVE",
"1462 126 OFFCURVE",
"1278 18 CURVE SMOOTH",
"1142 -61 OFFCURVE",
"986 -98 OFFCURVE",
"931 -98 CURVE SMOOTH",
"575 -98 OFFCURVE",
"877 254 OFFCURVE",
"1096 301 CURVE SMOOTH",
"1097 301 LINE",
"1137 278 OFFCURVE",
"1189 271 OFFCURVE",
"1234 271 CURVE SMOOTH",
"1262 271 OFFCURVE",
"1308 274 OFFCURVE",
"1326 299 CURVE SMOOTH",
"1330 304 OFFCURVE",
"1334 311 OFFCURVE",
"1334 318 CURVE SMOOTH",
"1334 343 OFFCURVE",
"1283 345 OFFCURVE",
"1265 345 CURVE SMOOTH",
"1220 345 OFFCURVE",
"1167 341 OFFCURVE",
"1123 334 CURVE",
"1115 344 OFFCURVE",
"1112 357 OFFCURVE",
"1112 370 CURVE SMOOTH",
"1112 396 OFFCURVE",
"1125 422 OFFCURVE",
"1140 443 CURVE SMOOTH",
"1197 523 OFFCURVE",
"1325 569 OFFCURVE",
"1420 569 CURVE SMOOTH",
"1444 569 OFFCURVE",
"1495 567 OFFCURVE",
"1495 533 CURVE SMOOTH",
"1495 510 OFFCURVE",
"1426 454 OFFCURVE",
"1397 443 CURVE SMOOTH",
"1351 425 OFFCURVE",
"1337 402 OFFCURVE",
"1394 419 CURVE SMOOTH",
"1434 431 OFFCURVE",
"1485 460 OFFCURVE",
"1505 476 CURVE SMOOTH",
"1616 569 OFFCURVE",
"1522 608 OFFCURVE",
"1407 599 CURVE SMOOTH"
);
},
{
closed = 1;
nodes = (
"937 452 OFFCURVE",
"844 304 OFFCURVE",
"785 178 CURVE",
"722 191 OFFCURVE",
"664 206 OFFCURVE",
"641 212 CURVE",
"752 330 OFFCURVE",
"861 454 OFFCURVE",
"1012 537 CURVE"
);
},
{
closed = 1;
nodes = (
"486 105 OFFCURVE",
"270 -87 OFFCURVE",
"154 -87 CURVE SMOOTH",
"84 -87 OFFCURVE",
"44 -29 OFFCURVE",
"44 37 CURVE SMOOTH",
"44 84 OFFCURVE",
"62 136 OFFCURVE",
"84 178 CURVE SMOOTH",
"101 211 OFFCURVE",
"121 242 OFFCURVE",
"145 271 CURVE SMOOTH",
"198 336 OFFCURVE",
"295 413 OFFCURVE",
"383 413 CURVE SMOOTH",
"465 413 OFFCURVE",
"458 340 OFFCURVE",
"425 264 CURVE",
"374 274 OFFCURVE",
"323 281 OFFCURVE",
"280 281 CURVE SMOOTH",
"233 281 OFFCURVE",
"165 261 OFFCURVE",
"206 201 CURVE SMOOTH",
"220 183 OFFCURVE",
"234 172 OFFCURVE",
"242 173 CURVE SMOOTH",
"260 176 OFFCURVE",
"222 231 OFFCURVE",
"235 245 CURVE",
"252 268 OFFCURVE",
"331 260 OFFCURVE",
"416 243 CURVE",
"397 204 OFFCURVE",
"373 166 OFFCURVE",
"353 138 CURVE SMOOTH",
"347 129 OFFCURVE",
"357 114 OFFCURVE",
"386 152 CURVE SMOOTH",
"402 173 OFFCURVE",
"426 208 OFFCURVE",
"444 236 CURVE",
"498 224 OFFCURVE",
"549 211 OFFCURVE",
"589 200 CURVE",
"582 193 OFFCURVE",
"575 187 OFFCURVE",
"568 182 CURVE"
);
},
{
closed = 1;
nodes = (
"1261 320 OFFCURVE",
"1287 321 OFFCURVE",
"1286 311 CURVE SMOOTH",
"1286 308 LINE",
"1276 294 OFFCURVE",
"1256 291 OFFCURVE",
"1240 291 CURVE SMOOTH",
"1210 291 OFFCURVE",
"1179 298 OFFCURVE",
"1151 310 CURVE",
"1185 316 OFFCURVE",
"1220 320 OFFCURVE",
"1254 320 CURVE SMOOTH"
);
}
);
};
layerId = "5B3E1226-E0D0-4C23-AF14-DEF1E2C801D3";
paths = (
{
closed = 1;
nodes = (
"1019 -104 OFFCURVE",
"1176 -77 OFFCURVE",
"1310 0 CURVE SMOOTH",
"1430 69 OFFCURVE",
"1491 158 OFFCURVE",
"1491 219 CURVE SMOOTH",
"1491 258 OFFCURVE",
"1465 285 OFFCURVE",
"1412 285 CURVE SMOOTH",
"1405 285 OFFCURVE",
"1399 285 OFFCURVE",
"1392 284 CURVE SMOOTH",
"1273 271 OFFCURVE",
"1210 217 OFFCURVE",
"1144 146 CURVE SMOOTH",
"1141 142 OFFCURVE",
"1136 129 OFFCURVE",
"1136 122 CURVE SMOOTH",
"1136 119 OFFCURVE",
"1137 117 OFFCURVE",
"1139 117 CURVE SMOOTH",
"1142 117 OFFCURVE",
"1146 119 OFFCURVE",
"1153 125 CURVE SMOOTH",
"1233 198 OFFCURVE",
"1309 257 OFFCURVE",
"1392 269 CURVE SMOOTH",
"1428 274 OFFCURVE",
"1447 258 OFFCURVE",
"1447 229 CURVE SMOOTH",
"1447 182 OFFCURVE",
"1393 101 OFFCURVE",
"1278 33 CURVE SMOOTH",
"1142 -46 OFFCURVE",
"986 -83 OFFCURVE",
"931 -83 CURVE SMOOTH",
"812 -83 OFFCURVE",
"767 -44 OFFCURVE",
"767 10 CURVE SMOOTH",
"767 118 OFFCURVE",
"947 316 OFFCURVE",
"1096 316 CURVE SMOOTH",
"1097 316 LINE",
"1137 293 OFFCURVE",
"1189 286 OFFCURVE",
"1234 286 CURVE SMOOTH",
"1262 286 OFFCURVE",
"1308 289 OFFCURVE",
"1326 314 CURVE SMOOTH",
"1330 319 OFFCURVE",
"1334 326 OFFCURVE",
"1334 333 CURVE SMOOTH",
"1334 358 OFFCURVE",
"1283 360 OFFCURVE",
"1265 360 CURVE SMOOTH",
"1220 360 OFFCURVE",
"1167 356 OFFCURVE",
"1123 349 CURVE",
"1115 359 OFFCURVE",
"1112 372 OFFCURVE",
"1112 385 CURVE SMOOTH",
"1112 411 OFFCURVE",
"1125 437 OFFCURVE",
"1140 458 CURVE SMOOTH",
"1197 538 OFFCURVE",
"1325 584 OFFCURVE",
"1420 584 CURVE SMOOTH",
"1444 584 OFFCURVE",
"1495 582 OFFCURVE",
"1495 548 CURVE SMOOTH",
"1495 525 OFFCURVE",
"1426 469 OFFCURVE",
"1397 458 CURVE SMOOTH",
"1372 448 OFFCURVE",
"1357 437 OFFCURVE",
"1357 431 CURVE SMOOTH",
"1357 429 OFFCURVE",
"1359 428 OFFCURVE",
"1364 428 CURVE SMOOTH",
"1370 428 OFFCURVE",
"1380 430 OFFCURVE",
"1394 434 CURVE SMOOTH",
"1434 446 OFFCURVE",
"1485 475 OFFCURVE",
"1505 491 CURVE SMOOTH",
"1540 520 OFFCURVE",
"1555 544 OFFCURVE",
"1555 563 CURVE SMOOTH",
"1555 598 OFFCURVE",
"1503 615 OFFCURVE",
"1438 615 CURVE SMOOTH",
"1428 615 OFFCURVE",
"1418 615 OFFCURVE",
"1407 614 CURVE SMOOTH",
"1293 605 OFFCURVE",
"1137 545 OFFCURVE",
"1076 446 CURVE SMOOTH",
"1065 428 OFFCURVE",
"1058 408 OFFCURVE",
"1058 387 CURVE SMOOTH",
"1058 369 OFFCURVE",
"1067 354 OFFCURVE",
"1075 337 CURVE SMOOTH",
"1076 335 LINE",
"986 316 OFFCURVE",
"916 281 OFFCURVE",
"867 248 CURVE",
"918 341 OFFCURVE",
"985 446 OFFCURVE",
"1052 526 CURVE SMOOTH",
"1069 546 OFFCURVE",
"1087 565 OFFCURVE",
"1105 585 CURVE SMOOTH",
"1112 592 OFFCURVE",
"1121 602 OFFCURVE",
"1121 613 CURVE SMOOTH",
"1121 626 OFFCURVE",
"1108 630 OFFCURVE",
"1098 630 CURVE SMOOTH",
"1089 630 OFFCURVE",
"1080 627 OFFCURVE",
"1072 624 CURVE SMOOTH",
"918 565 OFFCURVE",
"742 354 OFFCURVE",
"612 235 CURVE",
"564 247 OFFCURVE",
"511 261 OFFCURVE",
"458 272 CURVE",
"471 293 LINE SMOOTH",
"488 320 OFFCURVE",
"497 349 OFFCURVE",
"497 375 CURVE SMOOTH",
"497 421 OFFCURVE",
"469 457 OFFCURVE",
"403 457 CURVE SMOOTH",
"275 457 OFFCURVE",
"124 317 OFFCURVE",
"59 216 CURVE SMOOTH",
"28 168 OFFCURVE",
"7 103 OFFCURVE",
"7 46 CURVE SMOOTH",
"7 -42 OFFCURVE",
"56 -96 OFFCURVE",
"145 -96 CURVE SMOOTH",
"290 -96 OFFCURVE",
"487 74 OFFCURVE",
"621 206 CURVE",
"770 164 LINE",
"735 124 OFFCURVE",
"715 77 OFFCURVE",
"715 34 CURVE SMOOTH",
"715 -40 OFFCURVE",
"776 -104 OFFCURVE",
"929 -104 CURVE SMOOTH"
);
},
{
closed = 1;
nodes = (
"84 -72 OFFCURVE",
"44 -14 OFFCURVE",
"44 52 CURVE SMOOTH",
"44 99 OFFCURVE",
"62 151 OFFCURVE",
"84 193 CURVE SMOOTH",
"101 226 OFFCURVE",
"121 257 OFFCURVE",
"145 286 CURVE SMOOTH",
"198 351 OFFCURVE",
"295 428 OFFCURVE",
"383 428 CURVE SMOOTH",
"431 428 OFFCURVE",
"448 403 OFFCURVE",
"448 368 CURVE SMOOTH",
"448 342 OFFCURVE",
"439 311 OFFCURVE",
"425 279 CURVE",
"374 289 OFFCURVE",
"323 296 OFFCURVE",
"280 296 CURVE SMOOTH",
"243 296 OFFCURVE",
"193 284 OFFCURVE",
"193 249 CURVE SMOOTH",
"193 240 OFFCURVE",
"197 229 OFFCURVE",
"206 216 CURVE SMOOTH",
"219 199 OFFCURVE",
"233 188 OFFCURVE",
"241 188 CURVE SMOOTH",
"245 188 OFFCURVE",
"247 191 OFFCURVE",
"247 195 CURVE SMOOTH",
"247 208 OFFCURVE",
"232 236 OFFCURVE",
"232 251 CURVE SMOOTH",
"232 255 OFFCURVE",
"233 258 OFFCURVE",
"235 260 CURVE SMOOTH",
"242 270 OFFCURVE",
"262 274 OFFCURVE",
"289 274 CURVE SMOOTH",
"323 274 OFFCURVE",
"368 268 OFFCURVE",
"416 258 CURVE",
"397 219 OFFCURVE",
"373 181 OFFCURVE",
"353 153 CURVE SMOOTH",
"350 148 OFFCURVE",
"351 142 OFFCURVE",
"357 142 CURVE SMOOTH",
"362 142 OFFCURVE",
"372 148 OFFCURVE",
"386 167 CURVE SMOOTH",
"402 188 OFFCURVE",
"426 223 OFFCURVE",
"444 251 CURVE",
"498 239 OFFCURVE",
"549 226 OFFCURVE",
"589 215 CURVE",
"582 208 OFFCURVE",
"575 202 OFFCURVE",
"568 197 CURVE",
"486 120 OFFCURVE",
"270 -72 OFFCURVE",
"154 -72 CURVE SMOOTH"
);
},
{
closed = 1;
nodes = (
"722 206 OFFCURVE",
"664 221 OFFCURVE",
"641 227 CURVE",
"752 345 OFFCURVE",
"861 469 OFFCURVE",
"1012 552 CURVE",
"937 467 OFFCURVE",
"844 319 OFFCURVE",
"785 193 CURVE"
);
},
{
closed = 1;
nodes = (
"1210 306 OFFCURVE",
"1179 313 OFFCURVE",
"1151 325 CURVE",
"1187 331 OFFCURVE",
"1223 335 OFFCURVE",
"1259 335 CURVE SMOOTH",
"1269 335 OFFCURVE",
"1286 334 OFFCURVE",
"1286 326 CURVE SMOOTH",
"1286 323 LINE",
"1276 309 OFFCURVE",
"1256 306 OFFCURVE",
"1240 306 CURVE SMOOTH"
);
}
);
width = 1437;
}
);
note = AE;
userData = {
RMXScaler = {
source = AE;
};
};
},
{
glyphname = B.ss01;
lastChange = "2021-09-02 13:46:44 +0000";
layers = (
{
background = {
paths = (
{
closed = 1;
nodes = (
"325 -101 OFFCURVE",
"361 -99 OFFCURVE",
"396 -94 CURVE SMOOTH",
"436 -88 OFFCURVE",
"475 -79 OFFCURVE",
"514 -68 CURVE SMOOTH",
"606 -40 OFFCURVE",
"775 30 OFFCURVE",
"835 108 CURVE SMOOTH",
"852 130 OFFCURVE",
"865 157 OFFCURVE",
"865 185 CURVE SMOOTH",
"865 259 OFFCURVE",
"773 306 OFFCURVE",
"708 320 CURVE",
"785 336 OFFCURVE",
"932 395 OFFCURVE",
"976 452 CURVE SMOOTH",
"991 471 OFFCURVE",
"1004 495 OFFCURVE",
"1004 520 CURVE SMOOTH",
"1004 636 OFFCURVE",
"726 643 OFFCURVE",
"650 643 CURVE SMOOTH",
"462 643 OFFCURVE",
"190 614 OFFCURVE",
"55 471 CURVE SMOOTH",
"26 440 OFFCURVE",
"0 398 OFFCURVE",
"0 354 CURVE SMOOTH",
"0 322 OFFCURVE",
"14 295 OFFCURVE",
"43 281 CURVE SMOOTH",
"69 268 OFFCURVE",
"89 270 OFFCURVE",
"112 275 CURVE SMOOTH",
"118 276 OFFCURVE",
"131 287 OFFCURVE",
"131 294 CURVE SMOOTH",
"131 297 OFFCURVE",
"128 300 OFFCURVE",
"125 299 CURVE SMOOTH",
"113 293 OFFCURVE",
"92 293 OFFCURVE",
"75 301 CURVE SMOOTH",
"54 311 OFFCURVE",
"47 329 OFFCURVE",
"47 352 CURVE SMOOTH",
"47 394 OFFCURVE",
"82 437 OFFCURVE",
"111 464 CURVE SMOOTH",
"237 581 OFFCURVE",
"441 618 OFFCURVE",
"608 618 CURVE SMOOTH",
"677 618 OFFCURVE",
"941 606 OFFCURVE",
"941 507 CURVE SMOOTH",
"941 491 OFFCURVE",
"934 477 OFFCURVE",
"926 464 CURVE SMOOTH",
"890 409 OFFCURVE",
"721 341 OFFCURVE",
"655 341 CURVE SMOOTH",
"652 341 OFFCURVE",
"648 342 OFFCURVE",
"644 342 CURVE SMOOTH",
"634 342 OFFCURVE",
"623 335 OFFCURVE",
"623 324 CURVE SMOOTH",
"623 309 OFFCURVE",
"631 299 OFFCURVE",
"647 299 CURVE SMOOTH",
"707 299 OFFCURVE",
"812 245 OFFCURVE",
"812 177 CURVE SMOOTH",
"812 154 OFFCURVE",
"802 133 OFFCURVE",
"788 115 CURVE SMOOTH",
"715 20 OFFCURVE",
"509 -42 OFFCURVE",
"396 -61 CURVE SMOOTH",
"377 -64 OFFCURVE",
"150 -105 OFFCURVE",
"150 -16 CURVE SMOOTH",
"150 48 OFFCURVE",
"264 80 OFFCURVE",
"312 97 CURVE",
"291 68 OFFCURVE",
"274 32 OFFCURVE",
"274 0 CURVE SMOOTH",
"274 -12 OFFCURVE",
"277 -19 OFFCURVE",
"286 -27 CURVE SMOOTH",
"300 -39 OFFCURVE",
"319 -47 OFFCURVE",
"344 -36 CURVE",
"353 -29 OFFCURVE",
"364 -17 OFFCURVE",
"364 -9 CURVE SMOOTH",
"364 -8 OFFCURVE",
"363 -7 OFFCURVE",
"362 -7 CURVE SMOOTH",
"354 -7 OFFCURVE",
"339 -24 OFFCURVE",
"326 -24 CURVE SMOOTH",
"315 -24 OFFCURVE",
"307 -18 OFFCURVE",
"307 -7 CURVE SMOOTH",
"307 21 OFFCURVE",
"363 87 OFFCURVE",
"385 117 CURVE",
"413 123 OFFCURVE",
"442 127 OFFCURVE",
"471 127 CURVE SMOOTH",
"485 127 OFFCURVE",
"539 126 OFFCURVE",
"539 107 CURVE SMOOTH",
"539 106 OFFCURVE",
"537 103 OFFCURVE",
"537 101 CURVE SMOOTH",
"537 96 OFFCURVE",
"542 93 OFFCURVE",
"546 93 CURVE SMOOTH",
"559 93 OFFCURVE",
"577 112 OFFCURVE",
"577 124 CURVE SMOOTH",
"577 147 OFFCURVE",
"505 147 OFFCURVE",
"489 147 CURVE SMOOTH",
"461 147 OFFCURVE",
"435 146 OFFCURVE",
"410 144 CURVE",
"510 248 OFFCURVE",
"630 422 OFFCURVE",
"784 529 CURVE SMOOTH",
"820 554 OFFCURVE",
"802 560 OFFCURVE",
"776 549 CURVE SMOOTH",
"754 540 OFFCURVE",
"678 497 OFFCURVE",
"628 449 CURVE SMOOTH",
"527 352 OFFCURVE",
"465 301 OFFCURVE",
"335 133 CURVE",
"246 109 OFFCURVE",
"102 66 OFFCURVE",
"102 -18 CURVE SMOOTH",
"102 -96 OFFCURVE",
"236 -101 OFFCURVE",
"289 -101 CURVE SMOOTH"
);
}
);
};
layerId = "5B3E1226-E0D0-4C23-AF14-DEF1E2C801D3";
paths = (
{
closed = 1;
nodes = (
"325 -86 OFFCURVE",
"361 -84 OFFCURVE",
"396 -79 CURVE SMOOTH",
"436 -73 OFFCURVE",
"475 -64 OFFCURVE",
"514 -53 CURVE SMOOTH",
"606 -25 OFFCURVE",
"775 45 OFFCURVE",
"835 123 CURVE SMOOTH",
"852 145 OFFCURVE",
"865 172 OFFCURVE",
"865 200 CURVE SMOOTH",
"865 274 OFFCURVE",
"773 321 OFFCURVE",
"708 335 CURVE",
"785 351 OFFCURVE",
"932 410 OFFCURVE",
"976 467 CURVE SMOOTH",
"991 486 OFFCURVE",
"1004 510 OFFCURVE",
"1004 535 CURVE SMOOTH",
"1004 651 OFFCURVE",
"726 658 OFFCURVE",
"650 658 CURVE SMOOTH",
"462 658 OFFCURVE",
"190 629 OFFCURVE",
"55 486 CURVE SMOOTH",
"26 455 OFFCURVE",
"0 413 OFFCURVE",
"0 369 CURVE SMOOTH",
"0 337 OFFCURVE",
"14 310 OFFCURVE",
"43 296 CURVE SMOOTH",
"58 289 OFFCURVE",
"70 286 OFFCURVE",
"82 286 CURVE SMOOTH",
"92 286 OFFCURVE",
"102 288 OFFCURVE",
"112 290 CURVE SMOOTH",
"118 291 OFFCURVE",
"131 302 OFFCURVE",
"131 309 CURVE SMOOTH",
"131 312 OFFCURVE",
"128 315 OFFCURVE",
"125 314 CURVE SMOOTH",
"119 311 OFFCURVE",
"112 310 OFFCURVE",
"104 310 CURVE SMOOTH",
"94 310 OFFCURVE",
"84 312 OFFCURVE",
"75 316 CURVE SMOOTH",
"54 326 OFFCURVE",
"47 344 OFFCURVE",
"47 367 CURVE SMOOTH",
"47 409 OFFCURVE",
"82 452 OFFCURVE",
"111 479 CURVE SMOOTH",
"237 596 OFFCURVE",
"441 633 OFFCURVE",
"608 633 CURVE SMOOTH",
"677 633 OFFCURVE",
"941 621 OFFCURVE",
"941 522 CURVE SMOOTH",
"941 506 OFFCURVE",
"934 492 OFFCURVE",
"926 479 CURVE SMOOTH",
"890 424 OFFCURVE",
"721 356 OFFCURVE",
"655 356 CURVE SMOOTH",
"652 356 OFFCURVE",
"648 357 OFFCURVE",
"644 357 CURVE SMOOTH",
"634 357 OFFCURVE",
"623 350 OFFCURVE",
"623 339 CURVE SMOOTH",
"623 324 OFFCURVE",
"631 314 OFFCURVE",
"647 314 CURVE SMOOTH",
"707 314 OFFCURVE",
"812 260 OFFCURVE",
"812 192 CURVE SMOOTH",
"812 169 OFFCURVE",
"802 148 OFFCURVE",
"788 130 CURVE SMOOTH",
"715 35 OFFCURVE",
"509 -27 OFFCURVE",
"396 -46 CURVE SMOOTH",
"387 -47 OFFCURVE",
"328 -58 OFFCURVE",
"270 -58 CURVE SMOOTH",
"209 -58 OFFCURVE",
"150 -46 OFFCURVE",
"150 -1 CURVE SMOOTH",
"150 63 OFFCURVE",
"264 95 OFFCURVE",
"312 112 CURVE",
"291 83 OFFCURVE",
"274 47 OFFCURVE",
"274 15 CURVE SMOOTH",
"274 3 OFFCURVE",
"277 -4 OFFCURVE",
"286 -12 CURVE SMOOTH",
"295 -20 OFFCURVE",
"307 -26 OFFCURVE",
"321 -26 CURVE SMOOTH",
"328 -26 OFFCURVE",
"336 -25 OFFCURVE",
"344 -21 CURVE",
"353 -14 OFFCURVE",
"364 -2 OFFCURVE",
"364 6 CURVE SMOOTH",
"364 7 OFFCURVE",
"363 8 OFFCURVE",
"362 8 CURVE SMOOTH",
"354 8 OFFCURVE",
"339 -9 OFFCURVE",
"326 -9 CURVE SMOOTH",
"315 -9 OFFCURVE",
"307 -3 OFFCURVE",
"307 8 CURVE SMOOTH",
"307 36 OFFCURVE",
"363 102 OFFCURVE",
"385 132 CURVE",
"413 138 OFFCURVE",
"442 142 OFFCURVE",
"471 142 CURVE SMOOTH",
"485 142 OFFCURVE",
"539 141 OFFCURVE",
"539 122 CURVE SMOOTH",
"539 121 OFFCURVE",
"537 118 OFFCURVE",
"537 116 CURVE SMOOTH",
"537 111 OFFCURVE",
"542 108 OFFCURVE",
"546 108 CURVE SMOOTH",
"559 108 OFFCURVE",
"577 127 OFFCURVE",
"577 139 CURVE SMOOTH",
"577 162 OFFCURVE",
"505 162 OFFCURVE",
"489 162 CURVE SMOOTH",
"461 162 OFFCURVE",
"435 161 OFFCURVE",
"410 159 CURVE",
"510 263 OFFCURVE",
"630 437 OFFCURVE",
"784 544 CURVE SMOOTH",
"799 554 OFFCURVE",
"804 561 OFFCURVE",
"804 565 CURVE SMOOTH",
"804 568 OFFCURVE",
"802 569 OFFCURVE",
"797 569 CURVE SMOOTH",
"792 569 OFFCURVE",
"784 567 OFFCURVE",
"776 564 CURVE SMOOTH",
"754 555 OFFCURVE",
"678 512 OFFCURVE",
"628 464 CURVE SMOOTH",
"527 367 OFFCURVE",
"465 316 OFFCURVE",
"335 148 CURVE",
"246 124 OFFCURVE",
"102 81 OFFCURVE",
"102 -3 CURVE SMOOTH",
"102 -81 OFFCURVE",
"236 -86 OFFCURVE",
"289 -86 CURVE SMOOTH"
);
}
);
width = 855;
}
);
note = B;
userData = {
RMXScaler = {
source = B;
};
};
},
{
glyphname = C.ss01;
lastChange = "2021-09-02 13:46:44 +0000";
layers = (
{
anchors = (
{
name = bottom;
position = "{261, -47}";
},
{
name = top;
position = "{684, 610}";
}
);
background = {
paths = (
{
closed = 1;
nodes = (
"428 -75 OFFCURVE",
"576 2 OFFCURVE",
"676 91 CURVE SMOOTH",
"685 99 OFFCURVE",
"720 136 OFFCURVE",
"722 146 CURVE SMOOTH",
"722 148 OFFCURVE",
"721 150 OFFCURVE",
"718 150 CURVE",
"709 152 OFFCURVE",
"672 120 OFFCURVE",
"661 110 CURVE SMOOTH",
"567 29 OFFCURVE",
"435 -43 OFFCURVE",
"310 -43 CURVE SMOOTH",
"212 -43 OFFCURVE",
"114 9 OFFCURVE",
"114 118 CURVE SMOOTH",
"114 202 OFFCURVE",
"171 293 OFFCURVE",
"229 357 CURVE SMOOTH",
"345 483 OFFCURVE",
"511 564 OFFCURVE",
"684 564 CURVE SMOOTH",
"714 564 OFFCURVE",
"820 559 OFFCURVE",
"820 511 CURVE SMOOTH",
"820 411 OFFCURVE",
"547 316 OFFCURVE",
"477 316 CURVE SMOOTH",
"456 316 OFFCURVE",
"418 322 OFFCURVE",
"418 350 CURVE SMOOTH",
"418 409 OFFCURVE",
"539 465 OFFCURVE",
"568 473 CURVE SMOOTH",
"626 489 OFFCURVE",
"614 502 OFFCURVE",
"561 490 CURVE SMOOTH",
"483 472 OFFCURVE",
"389 399 OFFCURVE",
"389 342 CURVE SMOOTH",
"389 293 OFFCURVE",
"453 281 OFFCURVE",
"490 281 CURVE SMOOTH",
"574 281 OFFCURVE",
"727 333 OFFCURVE",
"791 398 CURVE SMOOTH",
"820 427 OFFCURVE",
"848 464 OFFCURVE",
"848 507 CURVE SMOOTH",
"848 592 OFFCURVE",
"754 611 OFFCURVE",
"689 611 CURVE SMOOTH",
"538 611 OFFCURVE",
"345 529 OFFCURVE",
"237 424 CURVE SMOOTH",
"153 343 OFFCURVE",
"61 208 OFFCURVE",
"61 96 CURVE SMOOTH",
"61 -32 OFFCURVE",
"178 -75 OFFCURVE",
"294 -75 CURVE SMOOTH"
);
}
);
};
layerId = "5B3E1226-E0D0-4C23-AF14-DEF1E2C801D3";
paths = (
{
closed = 1;
nodes = (
"428 -60 OFFCURVE",
"576 17 OFFCURVE",
"676 106 CURVE SMOOTH",
"685 114 OFFCURVE",
"720 151 OFFCURVE",
"722 161 CURVE SMOOTH",
"722 163 OFFCURVE",
"721 165 OFFCURVE",
"718 165 CURVE",
"709 167 OFFCURVE",
"672 135 OFFCURVE",
"661 125 CURVE SMOOTH",
"567 44 OFFCURVE",
"435 -28 OFFCURVE",
"310 -28 CURVE SMOOTH",
"212 -28 OFFCURVE",
"114 24 OFFCURVE",
"114 133 CURVE SMOOTH",
"114 217 OFFCURVE",
"171 308 OFFCURVE",
"229 372 CURVE SMOOTH",
"345 498 OFFCURVE",
"511 579 OFFCURVE",
"684 579 CURVE SMOOTH",
"714 579 OFFCURVE",
"820 574 OFFCURVE",
"820 526 CURVE SMOOTH",
"820 426 OFFCURVE",
"547 331 OFFCURVE",
"477 331 CURVE SMOOTH",
"456 331 OFFCURVE",
"418 337 OFFCURVE",
"418 365 CURVE SMOOTH",
"418 424 OFFCURVE",
"539 480 OFFCURVE",
"568 488 CURVE SMOOTH",
"595 496 OFFCURVE",
"606 502 OFFCURVE",
"606 506 CURVE SMOOTH",
"606 509 OFFCURVE",
"602 510 OFFCURVE",
"595 510 CURVE SMOOTH",
"587 510 OFFCURVE",
"575 508 OFFCURVE",
"561 505 CURVE SMOOTH",
"483 487 OFFCURVE",
"389 414 OFFCURVE",
"389 357 CURVE SMOOTH",
"389 308 OFFCURVE",
"453 296 OFFCURVE",
"490 296 CURVE SMOOTH",
"574 296 OFFCURVE",
"727 348 OFFCURVE",
"791 413 CURVE SMOOTH",
"820 442 OFFCURVE",
"848 479 OFFCURVE",
"848 522 CURVE SMOOTH",
"848 607 OFFCURVE",
"754 626 OFFCURVE",
"689 626 CURVE SMOOTH",
"538 626 OFFCURVE",
"345 544 OFFCURVE",
"237 439 CURVE SMOOTH",
"153 358 OFFCURVE",
"61 223 OFFCURVE",
"61 111 CURVE SMOOTH",
"61 -17 OFFCURVE",
"178 -60 OFFCURVE",
"294 -60 CURVE SMOOTH"
);
}
);
width = 646;
}
);
note = C;
userData = {
RMXScaler = {
source = C;
};
};
},
{
glyphname = D.ss01;
lastChange = "2021-09-02 13:46:44 +0000";
layers = (
{
anchors = (
{
name = bottom;
position = "{476, 0}";
},
{
name = center;
position = "{512, 333}";
},
{
name = top;
position = "{957, 610}";
}
);
background = {
paths = (
{
closed = 1;
nodes = (
"679 9 OFFCURVE",
"939 109 OFFCURVE",
"1035 282 CURVE SMOOTH",
"1164 520 OFFCURVE",
"895 609 OFFCURVE",
"706 609 CURVE SMOOTH",
"518 609 OFFCURVE",
"246 580 OFFCURVE",
"111 437 CURVE SMOOTH",
"82 406 OFFCURVE",
"56 364 OFFCURVE",
"56 320 CURVE SMOOTH",
"56 288 OFFCURVE",
"70 261 OFFCURVE",
"99 247 CURVE SMOOTH",
"125 234 OFFCURVE",
"145 236 OFFCURVE",
"168 241 CURVE SMOOTH",
"174 242 OFFCURVE",
"187 253 OFFCURVE",
"187 260 CURVE SMOOTH",
"187 263 OFFCURVE",
"184 266 OFFCURVE",
"181 265 CURVE SMOOTH",
"169 259 OFFCURVE",
"148 259 OFFCURVE",
"131 267 CURVE SMOOTH",
"110 277 OFFCURVE",
"103 295 OFFCURVE",
"103 318 CURVE SMOOTH",
"103 360 OFFCURVE",
"138 403 OFFCURVE",
"167 430 CURVE SMOOTH",
"293 547 OFFCURVE",
"501 587 OFFCURVE",
"668 587 CURVE SMOOTH",
"834 587 OFFCURVE",
"1060 533 OFFCURVE",
"992 311 CURVE SMOOTH",
"957 197 OFFCURVE",
"770 90 OFFCURVE",
"669 50 CURVE SMOOTH",
"622 31 OFFCURVE",
"575 17 OFFCURVE",
"526 7 CURVE SMOOTH",
"488 -1 OFFCURVE",
"244 -49 OFFCURVE",
"244 -6 CURVE SMOOTH",
"244 25 OFFCURVE",
"273 52 OFFCURVE",
"316 75 CURVE",
"306 49 OFFCURVE",
"306 27 OFFCURVE",
"315 11 CURVE SMOOTH",
"320 2 OFFCURVE",
"338 -1 OFFCURVE",
"335 16 CURVE SMOOTH",
"332 32 OFFCURVE",
"352 69 OFFCURVE",
"374 101 CURVE",
"468 137 OFFCURVE",
"589 158 OFFCURVE",
"641 158 CURVE SMOOTH",
"656 158 OFFCURVE",
"751 162 OFFCURVE",
"751 139 CURVE SMOOTH",
"751 130 OFFCURVE",
"730 117 OFFCURVE",
"744 117 CURVE SMOOTH",
"760 117 OFFCURVE",
"776 141 OFFCURVE",
"776 158 CURVE SMOOTH",
"776 192 OFFCURVE",
"671 189 OFFCURVE",
"652 189 CURVE SMOOTH",
"601 189 OFFCURVE",
"503 176 OFFCURVE",
"410 150 CURVE",
"414 155 LINE SMOOTH",
"508 265 OFFCURVE",
"622 417 OFFCURVE",
"784 529 CURVE SMOOTH",
"820 554 OFFCURVE",
"802 560 OFFCURVE",
"776 549 CURVE SMOOTH",
"754 540 OFFCURVE",
"678 497 OFFCURVE",
"628 449 CURVE SMOOTH",
"523 348 OFFCURVE",
"480 322 OFFCURVE",
"391 202 CURVE SMOOTH",
"371 175 OFFCURVE",
"354 151 OFFCURVE",
"341 128 CURVE",
"257 97 OFFCURVE",
"191 52 OFFCURVE",
"191 -5 CURVE SMOOTH",
"191 -98 OFFCURVE",
"521 -24 OFFCURVE",
"532 -22 CURVE SMOOTH"
);
}
);
};
layerId = "5B3E1226-E0D0-4C23-AF14-DEF1E2C801D3";
paths = (
{
closed = 1;
nodes = (
"397 -37 OFFCURVE",
"525 -8 OFFCURVE",
"532 -7 CURVE SMOOTH",
"679 24 OFFCURVE",
"939 124 OFFCURVE",
"1035 297 CURVE SMOOTH",
"1058 340 OFFCURVE",
"1069 379 OFFCURVE",
"1069 412 CURVE SMOOTH",
"1069 564 OFFCURVE",
"861 624 OFFCURVE",
"706 624 CURVE SMOOTH",
"518 624 OFFCURVE",
"246 595 OFFCURVE",
"111 452 CURVE SMOOTH",
"82 421 OFFCURVE",
"56 379 OFFCURVE",
"56 335 CURVE SMOOTH",
"56 303 OFFCURVE",
"70 276 OFFCURVE",
"99 262 CURVE SMOOTH",
"114 255 OFFCURVE",
"126 252 OFFCURVE",
"138 252 CURVE SMOOTH",
"148 252 OFFCURVE",
"158 254 OFFCURVE",
"168 256 CURVE SMOOTH",
"174 257 OFFCURVE",
"187 268 OFFCURVE",
"187 275 CURVE SMOOTH",
"187 278 OFFCURVE",
"184 281 OFFCURVE",
"181 280 CURVE SMOOTH",
"175 277 OFFCURVE",
"168 276 OFFCURVE",
"160 276 CURVE SMOOTH",
"150 276 OFFCURVE",
"140 278 OFFCURVE",
"131 282 CURVE SMOOTH",
"110 292 OFFCURVE",
"103 310 OFFCURVE",
"103 333 CURVE SMOOTH",
"103 375 OFFCURVE",
"138 418 OFFCURVE",
"167 445 CURVE SMOOTH",
"293 562 OFFCURVE",
"501 602 OFFCURVE",
"668 602 CURVE SMOOTH",
"813 602 OFFCURVE",
"1004 561 OFFCURVE",
"1004 402 CURVE SMOOTH",
"1004 379 OFFCURVE",
"1001 354 OFFCURVE",
"992 326 CURVE SMOOTH",
"957 212 OFFCURVE",
"770 105 OFFCURVE",
"669 65 CURVE SMOOTH",
"622 46 OFFCURVE",
"575 32 OFFCURVE",
"526 22 CURVE SMOOTH",
"499 16 OFFCURVE",
"373 -9 OFFCURVE",
"298 -9 CURVE SMOOTH",
"266 -9 OFFCURVE",
"244 -4 OFFCURVE",
"244 9 CURVE SMOOTH",
"244 40 OFFCURVE",
"273 67 OFFCURVE",
"316 90 CURVE",
"311 77 OFFCURVE",
"308 64 OFFCURVE",
"308 53 CURVE SMOOTH",
"308 43 OFFCURVE",
"311 34 OFFCURVE",
"315 26 CURVE",
"318 22 OFFCURVE",
"323 19 OFFCURVE",
"328 19 CURVE SMOOTH",
"332 19 OFFCURVE",
"335 21 OFFCURVE",
"335 27 CURVE SMOOTH",
"335 31 LINE",
"332 47 OFFCURVE",
"352 84 OFFCURVE",
"374 116 CURVE",
"468 152 OFFCURVE",
"589 173 OFFCURVE",
"641 173 CURVE SMOOTH",
"656 173 OFFCURVE",
"751 177 OFFCURVE",
"751 154 CURVE SMOOTH",
"751 147 OFFCURVE",
"739 138 OFFCURVE",
"739 134 CURVE SMOOTH",
"739 133 OFFCURVE",
"741 132 OFFCURVE",
"744 132 CURVE SMOOTH",
"760 132 OFFCURVE",
"776 156 OFFCURVE",
"776 173 CURVE SMOOTH",
"776 207 OFFCURVE",
"671 204 OFFCURVE",
"652 204 CURVE SMOOTH",
"601 204 OFFCURVE",
"503 191 OFFCURVE",
"410 165 CURVE",
"414 170 LINE SMOOTH",
"504 283 OFFCURVE",
"622 432 OFFCURVE",
"784 544 CURVE SMOOTH",
"799 554 OFFCURVE",
"804 561 OFFCURVE",
"804 565 CURVE SMOOTH",
"804 568 OFFCURVE",
"802 569 OFFCURVE",
"797 569 CURVE SMOOTH",
"792 569 OFFCURVE",
"784 567 OFFCURVE",
"776 564 CURVE SMOOTH",
"754 555 OFFCURVE",
"678 512 OFFCURVE",
"628 464 CURVE SMOOTH",
"523 363 OFFCURVE",
"480 337 OFFCURVE",
"391 217 CURVE SMOOTH",
"371 190 OFFCURVE",
"354 166 OFFCURVE",
"341 143 CURVE",
"257 112 OFFCURVE",
"191 67 OFFCURVE",
"191 10 CURVE SMOOTH",
"191 -26 OFFCURVE",
"240 -37 OFFCURVE",
"300 -37 CURVE SMOOTH"
);
}
);
width = 951;
}
);
note = D;
userData = {
RMXScaler = {
source = D;
};
};
},
{
glyphname = Eth.ss01;
lastChange = "2021-09-02 13:46:44 +0000";
layers = (
{
background = {
paths = (
{
closed = 1;
nodes = (
"402 -1 OFFCURVE",
"694 157 OFFCURVE",
"671 367 CURVE SMOOTH",
"649 569 OFFCURVE",
"424 596 OFFCURVE",
"269 596 CURVE SMOOTH",
"240 596 OFFCURVE",
"86 584 OFFCURVE",
"92 537 CURVE SMOOTH",
"92 533 OFFCURVE",
"102 533 OFFCURVE",
"103 533 CURVE SMOOTH",
"117 533 OFFCURVE",
"131 538 OFFCURVE",
"144 542 CURVE SMOOTH",
"189 557 OFFCURVE",
"244 557 OFFCURVE",
"293 557 CURVE SMOOTH",
"419 557 OFFCURVE",
"617 555 OFFCURVE",
"636 383 CURVE SMOOTH",
"654 214 OFFCURVE",
"346 34 OFFCURVE",
"197 34 CURVE SMOOTH",
"192 34 OFFCURVE",
"146 34 OFFCURVE",
"147 23 CURVE SMOOTH",
"148 11 OFFCURVE",
"203 -1 OFFCURVE",
"217 -1 CURVE SMOOTH"
);
},
{
closed = 1;
nodes = (
"115 -22 OFFCURVE",
"134 3 OFFCURVE",
"132 26 CURVE",
"132 26 OFFCURVE",
"131 31 OFFCURVE",
"129 31 CURVE SMOOTH",
"125 31 OFFCURVE",
"113 18 OFFCURVE",
"99 18 CURVE SMOOTH",
"90 18 OFFCURVE",
"88 24 OFFCURVE",
"87 32 CURVE SMOOTH",
"83 71 OFFCURVE",
"102 121 OFFCURVE",
"133 176 CURVE",
"193 176 LINE SMOOTH",
"234 176 OFFCURVE",
"287 185 OFFCURVE",
"287 201 CURVE SMOOTH",
"287 212 OFFCURVE",
"242 213 OFFCURVE",
"225 213 CURVE SMOOTH",
"156 213 LINE",
"244 350 OFFCURVE",
"383 495 OFFCURVE",
"382 507 CURVE SMOOTH",
"380 522 OFFCURVE",
"348 538 OFFCURVE",
"335 538 CURVE SMOOTH",
"287 538 OFFCURVE",
"178 360 OFFCURVE",
"111 213 CURVE",
"70 213 LINE SMOOTH",
"38 213 OFFCURVE",
"-5 176 OFFCURVE",
"28 176 CURVE SMOOTH",
"94 176 LINE",
"67 112 OFFCURVE",
"50 58 OFFCURVE",
"53 33 CURVE SMOOTH",
"55 14 OFFCURVE",
"68 -22 OFFCURVE",
"92 -22 CURVE SMOOTH"
);
}
);
};
components = (
{
name = D.ss01;
},
{
name = strokeshortcomb;
transform = "{1, 0, 0, 1, 419, 164}";
}
);
layerId = "5B3E1226-E0D0-4C23-AF14-DEF1E2C801D3";
width = 951;
}
);
note = Eth;
userData = {
RMXScaler = {
source = Eth;
};
};
},
{
glyphname = E.ss01;
lastChange = "2021-09-02 13:46:44 +0000";
layers = (
{
anchors = (
{
name = bottom;
position = "{235, -100}";
},
{
name = ogonek;
position = "{620, 10}";
},
{
name = top;
position = "{729, 615}";
},
{
name = topleft;
position = "{20, 610}";
}
);
background = {
paths = (
{
closed = 1;
nodes = (
"330 -119 OFFCURVE",
"487 -92 OFFCURVE",
"621 -15 CURVE SMOOTH",
"829 104 OFFCURVE",
"859 286 OFFCURVE",
"703 269 CURVE SMOOTH",
"584 256 OFFCURVE",
"521 202 OFFCURVE",
"455 131 CURVE",
"450 123 OFFCURVE",
"436 85 OFFCURVE",
"464 110 CURVE SMOOTH",
"544 183 OFFCURVE",
"620 242 OFFCURVE",
"703 254 CURVE SMOOTH",
"800 268 OFFCURVE",
"773 126 OFFCURVE",
"589 18 CURVE SMOOTH",
"453 -61 OFFCURVE",
"297 -98 OFFCURVE",
"242 -98 CURVE SMOOTH",
"-114 -98 OFFCURVE",
"188 254 OFFCURVE",
"407 301 CURVE SMOOTH",
"408 301 LINE",
"448 278 OFFCURVE",
"500 271 OFFCURVE",
"545 271 CURVE SMOOTH",
"573 271 OFFCURVE",
"619 274 OFFCURVE",
"637 299 CURVE SMOOTH",
"641 304 OFFCURVE",
"645 311 OFFCURVE",
"645 318 CURVE SMOOTH",
"645 343 OFFCURVE",
"594 345 OFFCURVE",
"576 345 CURVE SMOOTH",
"531 345 OFFCURVE",
"478 341 OFFCURVE",
"434 334 CURVE",
"426 344 OFFCURVE",
"423 357 OFFCURVE",
"423 370 CURVE SMOOTH",
"423 396 OFFCURVE",
"436 422 OFFCURVE",
"451 443 CURVE SMOOTH",
"508 523 OFFCURVE",
"636 569 OFFCURVE",
"731 569 CURVE SMOOTH",
"755 569 OFFCURVE",
"806 567 OFFCURVE",
"806 533 CURVE SMOOTH",
"806 510 OFFCURVE",
"737 454 OFFCURVE",
"708 443 CURVE SMOOTH",
"662 425 OFFCURVE",
"648 402 OFFCURVE",
"705 419 CURVE SMOOTH",
"745 431 OFFCURVE",
"796 460 OFFCURVE",
"816 476 CURVE SMOOTH",
"927 569 OFFCURVE",
"833 608 OFFCURVE",
"718 599 CURVE SMOOTH",
"604 590 OFFCURVE",
"448 530 OFFCURVE",
"387 431 CURVE SMOOTH",
"376 413 OFFCURVE",
"369 393 OFFCURVE",
"369 372 CURVE SMOOTH",
"369 354 OFFCURVE",
"375 337 OFFCURVE",
"386 322 CURVE SMOOTH",
"387 320 LINE",
"194 279 OFFCURVE",
"96 166 OFFCURVE",
"86 154 CURVE SMOOTH",
"-15 44 OFFCURVE",
"-5 -119 OFFCURVE",
"240 -119 CURVE SMOOTH"
);
},
{
closed = 1;
nodes = (
"521 291 OFFCURVE",
"490 298 OFFCURVE",
"462 310 CURVE",
"496 316 OFFCURVE",
"531 320 OFFCURVE",
"565 320 CURVE SMOOTH",
"572 320 OFFCURVE",
"598 321 OFFCURVE",
"597 311 CURVE SMOOTH",
"597 308 LINE",
"587 294 OFFCURVE",
"567 291 OFFCURVE",
"551 291 CURVE SMOOTH"
);
}
);
};
layerId = "5B3E1226-E0D0-4C23-AF14-DEF1E2C801D3";
paths = (
{
closed = 1;
nodes = (
"330 -104 OFFCURVE",
"487 -77 OFFCURVE",
"621 0 CURVE SMOOTH",
"741 69 OFFCURVE",
"802 158 OFFCURVE",
"802 219 CURVE SMOOTH",
"802 258 OFFCURVE",
"776 285 OFFCURVE",
"723 285 CURVE SMOOTH",
"716 285 OFFCURVE",
"710 285 OFFCURVE",
"703 284 CURVE SMOOTH",
"584 271 OFFCURVE",
"521 217 OFFCURVE",
"455 146 CURVE SMOOTH",
"452 142 OFFCURVE",
"447 129 OFFCURVE",
"447 122 CURVE SMOOTH",
"447 119 OFFCURVE",
"448 117 OFFCURVE",
"450 117 CURVE SMOOTH",
"453 117 OFFCURVE",
"457 119 OFFCURVE",
"464 125 CURVE SMOOTH",
"544 198 OFFCURVE",
"620 257 OFFCURVE",
"703 269 CURVE SMOOTH",
"739 274 OFFCURVE",
"758 258 OFFCURVE",
"758 229 CURVE SMOOTH",
"758 182 OFFCURVE",
"704 101 OFFCURVE",
"589 33 CURVE SMOOTH",
"453 -46 OFFCURVE",
"297 -83 OFFCURVE",
"242 -83 CURVE SMOOTH",
"123 -83 OFFCURVE",
"78 -44 OFFCURVE",
"78 10 CURVE SMOOTH",
"78 118 OFFCURVE",
"258 316 OFFCURVE",
"407 316 CURVE SMOOTH",
"408 316 LINE",
"448 293 OFFCURVE",
"500 286 OFFCURVE",
"545 286 CURVE SMOOTH",
"573 286 OFFCURVE",
"619 289 OFFCURVE",
"637 314 CURVE SMOOTH",
"641 319 OFFCURVE",
"645 326 OFFCURVE",
"645 333 CURVE SMOOTH",
"645 358 OFFCURVE",
"594 360 OFFCURVE",
"576 360 CURVE SMOOTH",
"531 360 OFFCURVE",
"478 356 OFFCURVE",
"434 349 CURVE",
"426 359 OFFCURVE",
"423 372 OFFCURVE",
"423 385 CURVE SMOOTH",
"423 411 OFFCURVE",
"436 437 OFFCURVE",
"451 458 CURVE SMOOTH",
"508 538 OFFCURVE",
"636 584 OFFCURVE",
"731 584 CURVE SMOOTH",
"755 584 OFFCURVE",
"806 582 OFFCURVE",
"806 548 CURVE SMOOTH",
"806 525 OFFCURVE",
"737 469 OFFCURVE",
"708 458 CURVE SMOOTH",
"683 448 OFFCURVE",
"668 437 OFFCURVE",
"668 431 CURVE SMOOTH",
"668 429 OFFCURVE",
"670 428 OFFCURVE",
"675 428 CURVE SMOOTH",
"681 428 OFFCURVE",
"691 430 OFFCURVE",
"705 434 CURVE SMOOTH",
"745 446 OFFCURVE",
"796 475 OFFCURVE",
"816 491 CURVE SMOOTH",
"851 520 OFFCURVE",
"866 544 OFFCURVE",
"866 563 CURVE SMOOTH",
"866 598 OFFCURVE",
"814 615 OFFCURVE",
"749 615 CURVE SMOOTH",
"739 615 OFFCURVE",
"729 615 OFFCURVE",
"718 614 CURVE SMOOTH",
"604 605 OFFCURVE",
"448 545 OFFCURVE",
"387 446 CURVE SMOOTH",
"376 428 OFFCURVE",
"369 408 OFFCURVE",
"369 387 CURVE SMOOTH",
"369 369 OFFCURVE",
"378 354 OFFCURVE",
"386 337 CURVE SMOOTH",
"387 335 LINE",
"194 294 OFFCURVE",
"96 181 OFFCURVE",
"86 169 CURVE SMOOTH",
"48 128 OFFCURVE",
"26 79 OFFCURVE",
"26 34 CURVE SMOOTH",
"26 -41 OFFCURVE",
"87 -104 OFFCURVE",
"240 -104 CURVE SMOOTH"
);
},
{
closed = 1;
nodes = (
"521 306 OFFCURVE",
"490 313 OFFCURVE",
"462 325 CURVE",
"498 331 OFFCURVE",
"534 335 OFFCURVE",
"570 335 CURVE SMOOTH",
"580 335 OFFCURVE",
"597 334 OFFCURVE",
"597 326 CURVE SMOOTH",
"597 323 LINE",
"587 309 OFFCURVE",
"567 306 OFFCURVE",
"551 306 CURVE SMOOTH"
);
}
);
width = 748;
}
);
note = E;
userData = {
RMXScaler = {
source = E;
};
};
},
{
glyphname = F.ss01;
lastChange = "2021-09-02 13:46:44 +0000";
layers = (
{
background = {
paths = (
{
closed = 1;
nodes = (
"313 -179 OFFCURVE",
"337 -167 OFFCURVE",
"345 -159 CURVE SMOOTH",
"350 -154 OFFCURVE",
"353 -149 OFFCURVE",
"357 -144 CURVE SMOOTH",
"359 -141 OFFCURVE",
"362 -140 OFFCURVE",
"362 -135 CURVE SMOOTH",
"362 -131 OFFCURVE",
"358 -128 OFFCURVE",
"354 -128 CURVE SMOOTH",
"350 -128 OFFCURVE",
"346 -132 OFFCURVE",
"345 -136 CURVE",
"338 -141 OFFCURVE",
"329 -149 OFFCURVE",
"321 -149 CURVE SMOOTH",
"310 -149 OFFCURVE",
"303 -142 OFFCURVE",
"303 -132 CURVE SMOOTH",
"303 -109 OFFCURVE",
"325 -82 OFFCURVE",
"340 -66 CURVE SMOOTH",
"441 39 OFFCURVE",
"538 144 OFFCURVE",
"636 251 CURVE",
"694 253 OFFCURVE",
"726 249 OFFCURVE",
"758 249 CURVE SMOOTH",
"763 249 OFFCURVE",
"774 249 OFFCURVE",
"774 257 CURVE SMOOTH",
"774 280 OFFCURVE",
"676 281 OFFCURVE",
"663 282 CURVE",
"712 338 OFFCURVE",
"862 503 OFFCURVE",
"862 580 CURVE SMOOTH",
"862 650 OFFCURVE",
"778 661 OFFCURVE",
"725 661 CURVE SMOOTH",
"641 661 OFFCURVE",
"553 642 OFFCURVE",
"472 618 CURVE SMOOTH",
"355 584 OFFCURVE",
"31 442 OFFCURVE",
"31 314 CURVE SMOOTH",
"31 282 OFFCURVE",
"82 272 OFFCURVE",
"109 272 CURVE SMOOTH",
"120 272 OFFCURVE",
"188 278 OFFCURVE",
"188 289 CURVE SMOOTH",
"188 296 OFFCURVE",
"159 294 OFFCURVE",
"155 294 CURVE SMOOTH",
"131 295 OFFCURVE",
"86 299 OFFCURVE",
"86 328 CURVE SMOOTH",
"86 382 OFFCURVE",
"237 478 OFFCURVE",
"289 506 CURVE SMOOTH",
"400 566 OFFCURVE",
"557 634 OFFCURVE",
"682 634 CURVE SMOOTH",
"720 634 OFFCURVE",
"795 630 OFFCURVE",
"795 582 CURVE SMOOTH",
"795 502 OFFCURVE",
"672 342 OFFCURVE",
"622 283 CURVE",
"493 283 OFFCURVE",
"378 267 OFFCURVE",
"265 234 CURVE SMOOTH",
"245 228 OFFCURVE",
"223 222 OFFCURVE",
"203 214 CURVE SMOOTH",
"195 211 OFFCURVE",
"186 205 OFFCURVE",
"186 194 CURVE SMOOTH",
"186 180 OFFCURVE",
"198 168 OFFCURVE",
"210 168 CURVE SMOOTH",
"212 168 OFFCURVE",
"215 168 OFFCURVE",
"216 169 CURVE",
"336 216 OFFCURVE",
"453 239 OFFCURVE",
"592 249 CURVE",
"486 138 OFFCURVE",
"375 42 OFFCURVE",
"282 -63 CURVE SMOOTH",
"270 -77 OFFCURVE",
"247 -102 OFFCURVE",
"247 -122 CURVE SMOOTH",
"247 -135 OFFCURVE",
"258 -144 OFFCURVE",
"267 -152 CURVE SMOOTH",
"278 -161 OFFCURVE",
"286 -179 OFFCURVE",
"302 -179 CURVE SMOOTH"
);
}
);
};
layerId = "5B3E1226-E0D0-4C23-AF14-DEF1E2C801D3";
paths = (
{
closed = 1;
nodes = (
"313 -164 OFFCURVE",
"337 -152 OFFCURVE",
"345 -144 CURVE SMOOTH",
"350 -139 OFFCURVE",
"353 -134 OFFCURVE",
"357 -129 CURVE SMOOTH",
"359 -126 OFFCURVE",
"362 -125 OFFCURVE",
"362 -120 CURVE SMOOTH",
"362 -116 OFFCURVE",
"358 -113 OFFCURVE",
"354 -113 CURVE SMOOTH",
"350 -113 OFFCURVE",
"346 -117 OFFCURVE",
"345 -121 CURVE",
"338 -126 OFFCURVE",
"329 -134 OFFCURVE",
"321 -134 CURVE SMOOTH",
"310 -134 OFFCURVE",
"303 -127 OFFCURVE",
"303 -117 CURVE SMOOTH",
"303 -94 OFFCURVE",
"325 -67 OFFCURVE",
"340 -51 CURVE SMOOTH",
"441 54 OFFCURVE",
"538 159 OFFCURVE",
"636 266 CURVE",
"648 266 OFFCURVE",
"658 267 OFFCURVE",
"668 267 CURVE SMOOTH",
"707 267 OFFCURVE",
"732 264 OFFCURVE",
"758 264 CURVE SMOOTH",
"763 264 OFFCURVE",
"774 264 OFFCURVE",
"774 272 CURVE SMOOTH",
"774 295 OFFCURVE",
"676 296 OFFCURVE",
"663 297 CURVE",
"712 353 OFFCURVE",
"862 518 OFFCURVE",
"862 595 CURVE SMOOTH",
"862 665 OFFCURVE",
"778 676 OFFCURVE",
"725 676 CURVE SMOOTH",
"641 676 OFFCURVE",
"553 657 OFFCURVE",
"472 633 CURVE SMOOTH",
"355 599 OFFCURVE",
"31 457 OFFCURVE",
"31 329 CURVE SMOOTH",
"31 297 OFFCURVE",
"82 287 OFFCURVE",
"109 287 CURVE SMOOTH",
"120 287 OFFCURVE",
"188 293 OFFCURVE",
"188 304 CURVE SMOOTH",
"188 308 OFFCURVE",
"176 309 OFFCURVE",
"167 309 CURVE SMOOTH",
"155 309 LINE SMOOTH",
"131 310 OFFCURVE",
"86 314 OFFCURVE",
"86 343 CURVE SMOOTH",
"86 397 OFFCURVE",
"237 493 OFFCURVE",
"289 521 CURVE SMOOTH",
"400 581 OFFCURVE",
"557 649 OFFCURVE",
"682 649 CURVE SMOOTH",
"720 649 OFFCURVE",
"795 645 OFFCURVE",
"795 597 CURVE SMOOTH",
"795 517 OFFCURVE",
"672 357 OFFCURVE",
"622 298 CURVE",
"493 298 OFFCURVE",
"378 282 OFFCURVE",
"265 249 CURVE SMOOTH",
"245 243 OFFCURVE",
"223 237 OFFCURVE",
"203 229 CURVE SMOOTH",
"195 226 OFFCURVE",
"186 220 OFFCURVE",
"186 209 CURVE SMOOTH",
"186 195 OFFCURVE",
"198 183 OFFCURVE",
"210 183 CURVE SMOOTH",
"212 183 OFFCURVE",
"215 183 OFFCURVE",
"216 184 CURVE",
"336 231 OFFCURVE",
"453 254 OFFCURVE",
"592 264 CURVE",
"486 153 OFFCURVE",
"375 57 OFFCURVE",
"282 -48 CURVE SMOOTH",
"270 -62 OFFCURVE",
"247 -87 OFFCURVE",
"247 -107 CURVE SMOOTH",
"247 -120 OFFCURVE",
"258 -129 OFFCURVE",
"267 -137 CURVE SMOOTH",
"278 -146 OFFCURVE",
"286 -164 OFFCURVE",
"302 -164 CURVE SMOOTH"
);
}
);
width = 699;
}
);
note = F;
userData = {
RMXScaler = {
source = F;
};
};
},
{
glyphname = G.ss01;
lastChange = "2021-09-02 13:46:44 +0000";
layers = (
{
anchors = (
{
name = bottom;
position = "{174, -386}";
},
{
name = top;
position = "{815, 643}";
}
);
background = {
paths = (
{
closed = 1;
nodes = (
"371 -401 OFFCURVE",
"512 -275 OFFCURVE",
"611 -126 CURVE",
"649 -133 OFFCURVE",
"684 -141 OFFCURVE",
"714 -149 CURVE SMOOTH",
"762 -163 OFFCURVE",
"802 -164 OFFCURVE",
"738 -131 CURVE SMOOTH",
"712 -117 OFFCURVE",
"676 -104 OFFCURVE",
"632 -94 CURVE",
"675 -24 OFFCURVE",
"709 50 OFFCURVE",
"735 118 CURVE SMOOTH",
"777 226 OFFCURVE",
"791 305 OFFCURVE",
"796 361 CURVE",
"870 397 OFFCURVE",
"974 454 OFFCURVE",
"974 540 CURVE SMOOTH",
"974 610 OFFCURVE",
"900 629 OFFCURVE",
"844 629 CURVE SMOOTH",
"834 629 OFFCURVE",
"825 628 OFFCURVE",
"815 627 CURVE SMOOTH",
"648 609 OFFCURVE",
"483 517 OFFCURVE",
"355 411 CURVE",
"334 440 OFFCURVE",
"328 468 OFFCURVE",
"323 503 CURVE SMOOTH",
"322 514 OFFCURVE",
"320 525 OFFCURVE",
"316 535 CURVE SMOOTH",
"314 539 OFFCURVE",
"312 542 OFFCURVE",
"308 542 CURVE SMOOTH",
"295 542 OFFCURVE",
"291 512 OFFCURVE",
"291 504 CURVE SMOOTH",
"291 462 OFFCURVE",
"304 422 OFFCURVE",
"330 389 CURVE",
"249 320 OFFCURVE",
"124 169 OFFCURVE",
"124 57 CURVE SMOOTH",
"124 0 OFFCURVE",
"155 -26 OFFCURVE",
"210 -26 CURVE SMOOTH",
"365 -26 OFFCURVE",
"603 195 OFFCURVE",
"707 305 CURVE",
"730 319 LINE",
"714 177 OFFCURVE",
"663 38 OFFCURVE",
"593 -85 CURVE",
"501 -66 OFFCURVE",
"386 -56 OFFCURVE",
"278 -57 CURVE SMOOTH",
"150 -60 OFFCURVE",
"15 -83 OFFCURVE",
"-42 -106 CURVE SMOOTH",
"-77 -118 OFFCURVE",
"-124 -190 OFFCURVE",
"-113 -221 CURVE SMOOTH",
"-66 -354 OFFCURVE",
"79 -416 OFFCURVE",
"180 -410 CURVE SMOOTH"
);
},
{
closed = 1;
nodes = (
"55 -372 OFFCURVE",
"-47 -300 OFFCURVE",
"-66 -242 CURVE SMOOTH",
"-75 -216 OFFCURVE",
"-84 -173 OFFCURVE",
"-53 -160 CURVE",
"88 -82 OFFCURVE",
"368 -88 OFFCURVE",
"573 -120 CURVE",
"503 -237 OFFCURVE",
"410 -342 OFFCURVE",
"181 -361 CURVE SMOOTH"
);
},
{
closed = 1;
nodes = (
"194 13 OFFCURVE",
"174 29 OFFCURVE",
"174 64 CURVE SMOOTH",
"174 137 OFFCURVE",
"249 245 OFFCURVE",
"298 296 CURVE SMOOTH",
"318 317 OFFCURVE",
"340 337 OFFCURVE",
"360 357 CURVE",
"415 320 OFFCURVE",
"483 315 OFFCURVE",
"548 315 CURVE SMOOTH",
"591 315 OFFCURVE",
"634 319 OFFCURVE",
"677 327 CURVE",
"577 210 OFFCURVE",
"418 54 OFFCURVE",
"266 18 CURVE SMOOTH",
"254 15 OFFCURVE",
"241 13 OFFCURVE",
"228 13 CURVE SMOOTH"
);
},
{
closed = 1;
nodes = (
"624 336 OFFCURVE",
"475 328 OFFCURVE",
"389 382 CURVE",
"502 485 OFFCURVE",
"636 570 OFFCURVE",
"788 599 CURVE SMOOTH",
"803 602 OFFCURVE",
"819 604 OFFCURVE",
"834 604 CURVE SMOOTH",
"875 604 OFFCURVE",
"922 589 OFFCURVE",
"922 540 CURVE SMOOTH",
"922 484 OFFCURVE",
"856 437 OFFCURVE",
"813 411 CURVE SMOOTH",
"798 402 LINE",
"798 427 OFFCURVE",
"785 433 OFFCURVE",
"774 433 CURVE SMOOTH",
"758 433 OFFCURVE",
"745 422 OFFCURVE",
"739 404 CURVE",
"736 375 LINE"
);
}
);
};
layerId = "5B3E1226-E0D0-4C23-AF14-DEF1E2C801D3";
paths = (
{
closed = 1;
nodes = (
"371 -386 OFFCURVE",
"512 -260 OFFCURVE",
"611 -111 CURVE",
"649 -118 OFFCURVE",
"684 -126 OFFCURVE",
"714 -134 CURVE SMOOTH",
"733 -140 OFFCURVE",
"751 -143 OFFCURVE",
"762 -143 CURVE SMOOTH",
"768 -143 OFFCURVE",
"771 -142 OFFCURVE",
"771 -140 CURVE SMOOTH",
"771 -136 OFFCURVE",
"762 -128 OFFCURVE",
"738 -116 CURVE SMOOTH",
"712 -102 OFFCURVE",
"676 -89 OFFCURVE",
"632 -79 CURVE",
"675 -9 OFFCURVE",
"709 65 OFFCURVE",
"735 133 CURVE SMOOTH",
"777 241 OFFCURVE",
"791 320 OFFCURVE",
"796 376 CURVE",
"870 412 OFFCURVE",
"974 469 OFFCURVE",
"974 555 CURVE SMOOTH",
"974 625 OFFCURVE",
"900 644 OFFCURVE",
"844 644 CURVE SMOOTH",
"834 644 OFFCURVE",
"825 643 OFFCURVE",
"815 642 CURVE SMOOTH",
"648 624 OFFCURVE",
"483 532 OFFCURVE",
"355 426 CURVE",
"334 455 OFFCURVE",
"328 483 OFFCURVE",
"323 518 CURVE SMOOTH",
"322 529 OFFCURVE",
"320 540 OFFCURVE",
"316 550 CURVE SMOOTH",
"314 554 OFFCURVE",
"312 557 OFFCURVE",
"308 557 CURVE SMOOTH",
"295 557 OFFCURVE",
"291 527 OFFCURVE",
"291 519 CURVE SMOOTH",
"291 477 OFFCURVE",
"304 437 OFFCURVE",
"330 404 CURVE",
"249 335 OFFCURVE",
"124 184 OFFCURVE",
"124 72 CURVE SMOOTH",
"124 15 OFFCURVE",
"155 -11 OFFCURVE",
"210 -11 CURVE SMOOTH",
"365 -11 OFFCURVE",
"603 210 OFFCURVE",
"707 320 CURVE",
"730 334 LINE",
"714 192 OFFCURVE",
"663 53 OFFCURVE",
"593 -70 CURVE",
"505 -52 OFFCURVE",
"396 -42 OFFCURVE",
"293 -42 CURVE SMOOTH",
"160 -42 OFFCURVE",
"17 -67 OFFCURVE",
"-42 -91 CURVE SMOOTH",
"-73 -102 OFFCURVE",
"-115 -161 OFFCURVE",
"-115 -195 CURVE SMOOTH",
"-115 -199 OFFCURVE",
"-114 -203 OFFCURVE",
"-113 -206 CURVE SMOOTH",
"-66 -339 OFFCURVE",
"79 -401 OFFCURVE",
"180 -395 CURVE SMOOTH"
);
},
{
closed = 1;
nodes = (
"41 -347 OFFCURVE",
"-48 -281 OFFCURVE",
"-66 -227 CURVE SMOOTH",
"-70 -215 OFFCURVE",
"-75 -199 OFFCURVE",
"-75 -184 CURVE SMOOTH",
"-75 -167 OFFCURVE",
"-69 -152 OFFCURVE",
"-53 -145 CURVE",
"29 -100 OFFCURVE",
"158 -83 OFFCURVE",
"291 -83 CURVE SMOOTH",
"388 -83 OFFCURVE",
"487 -92 OFFCURVE",
"573 -105 CURVE",
"503 -222 OFFCURVE",
"410 -327 OFFCURVE",
"181 -346 CURVE SMOOTH",
"172 -347 OFFCURVE",
"164 -347 OFFCURVE",
"155 -347 CURVE SMOOTH"
);
},
{
closed = 1;
nodes = (
"194 28 OFFCURVE",
"174 44 OFFCURVE",
"174 79 CURVE SMOOTH",
"174 152 OFFCURVE",
"249 260 OFFCURVE",
"298 311 CURVE SMOOTH",
"318 332 OFFCURVE",
"340 352 OFFCURVE",
"360 372 CURVE",
"415 335 OFFCURVE",
"483 330 OFFCURVE",
"548 330 CURVE SMOOTH",
"591 330 OFFCURVE",
"634 334 OFFCURVE",
"677 342 CURVE",
"577 225 OFFCURVE",
"418 69 OFFCURVE",
"266 33 CURVE SMOOTH",
"254 30 OFFCURVE",
"241 28 OFFCURVE",
"228 28 CURVE SMOOTH"
);
},
{
closed = 1;
nodes = (
"490 359 OFFCURVE",
"432 370 OFFCURVE",
"389 397 CURVE",
"502 500 OFFCURVE",
"636 585 OFFCURVE",
"788 614 CURVE SMOOTH",
"803 617 OFFCURVE",
"819 619 OFFCURVE",
"834 619 CURVE SMOOTH",
"875 619 OFFCURVE",
"922 604 OFFCURVE",
"922 555 CURVE SMOOTH",
"922 499 OFFCURVE",
"856 452 OFFCURVE",
"813 426 CURVE SMOOTH",
"798 417 LINE",
"798 442 OFFCURVE",
"785 448 OFFCURVE",
"774 448 CURVE SMOOTH",
"758 448 OFFCURVE",
"745 437 OFFCURVE",
"739 419 CURVE",
"736 390 LINE",
"680 370 OFFCURVE",
"614 359 OFFCURVE",
"552 359 CURVE SMOOTH"
);
}
);
width = 785;
}
);
note = G;
userData = {
RMXScaler = {
source = G;
};
};
},
